<svg width="412" height="654" viewBox="0 0 412 654" fill="none" xmlns="http://www.w3.org/2000/svg">
<g clip-path="url(#clip0_912_8190)">
<path d="M398.328 286.697C377.799 286.697 376.838 329.567 315.867 329.567H298.422V344.514H315.867C376.838 344.514 377.799 387.393 398.328 387.393C405.944 387.393 411.824 382.531 411.824 372.306V301.775C411.824 291.559 405.944 286.697 398.328 286.697Z" fill="#3B3B3D"/>
<path d="M315.867 337.049H298.422V344.522H315.867C376.838 344.522 377.799 387.401 398.328 387.401C405.944 387.401 411.824 382.539 411.824 372.314V337.049H315.867Z" fill="#303133"/>
<path d="M370.068 136.149C349.539 136.149 348.578 179.028 287.598 179.028H270.153V193.975H287.598C348.578 193.975 349.539 236.845 370.068 236.845C377.684 236.845 383.563 231.983 383.563 221.767V151.201C383.563 141.011 377.684 136.149 370.068 136.149Z" fill="#3B3B3D"/>
<path d="M287.598 186.502H270.153V193.984H287.598C348.578 193.984 349.539 236.854 370.068 236.854C377.684 236.854 383.563 231.992 383.563 221.776V186.502H287.598Z" fill="#303133"/>
<path d="M14.2009 261.507C34.7303 261.507 35.6911 304.387 96.6624 304.387H114.107V319.333H96.6624C35.6911 319.333 34.7303 362.204 14.2009 362.204C6.58497 362.204 0.705566 357.342 0.705566 347.125V276.595C0.705566 266.378 6.58497 261.507 14.2009 261.507Z" fill="#3B3B3D"/>
<path d="M96.6624 311.86H114.107V319.342H96.6624C35.6911 319.342 34.7303 362.213 14.2009 362.213C6.58497 362.213 0.705566 357.351 0.705566 347.134V311.86H96.6624Z" fill="#303133"/>
<path d="M45.4753 79.3872C66.0047 79.3872 66.9655 122.266 127.946 122.266H145.39V137.213H127.946C66.9655 137.213 66.0047 180.083 45.4753 180.083C37.8594 180.083 31.98 175.221 31.98 165.005V94.4745C31.98 84.2493 37.9035 79.3872 45.4753 79.3872Z" fill="#3B3B3D"/>
<path d="M127.946 129.74H145.39V137.222H127.946C66.966 137.222 66.0052 180.092 45.4758 180.092C37.8599 180.092 31.9805 175.23 31.9805 165.014V129.74H127.946Z" fill="#303133"/>
<g opacity="0.3">
<path d="M14.2009 261.507C34.7303 261.507 35.6911 304.387 96.6624 304.387H114.107V319.333H96.6624C35.6911 319.333 34.7303 362.204 14.2009 362.204C6.58497 362.204 0.705566 357.342 0.705566 347.125V276.595C0.705566 266.378 6.58497 261.507 14.2009 261.507Z" fill="#2BCF2E"/>
</g>
<path d="M297.532 268.702C287.166 215.861 279.092 151.67 279.092 82.4761C279.092 64.8918 261.797 77.2008 239.708 78.1503C212.884 79.3549 154.663 22.2676 135.209 22.2676C131.736 22.2676 129.744 24.8437 129.744 30.919C129.744 129.663 120.577 211.158 109.197 272.993C100.576 319.837 75.1987 369.099 75.1987 374.049V394.957C75.1987 410.581 142.349 418.749 142.349 501.922V651.476H270.162V501.913C270.162 425.237 337.295 410.818 337.295 394.957V374.049C337.33 362.901 307.916 321.596 297.532 268.702Z" fill="#1F2021"/>
<path d="M297.532 248.314C287.166 195.353 279.092 131.035 279.092 61.6954C279.092 44.0741 261.797 56.409 239.708 57.3606C212.884 58.5588 154.663 1.35107 135.209 1.35107C131.736 1.35107 129.744 3.9326 129.744 10.0208C129.744 108.982 120.577 190.64 109.197 252.605C96.2306 323.214 75.1987 363.99 75.1987 374.836C75.1987 390.484 142.349 398.678 142.349 482.018V652.848H270.162V482.009C270.162 405.171 337.295 390.73 337.295 374.836C337.33 358.695 311.23 318.227 297.532 248.314Z" fill="#303133"/>
<path d="M178.145 163.284C196.094 163.284 210.645 149.652 210.645 132.837C210.645 116.021 196.094 102.39 178.145 102.39C160.196 102.39 145.646 116.021 145.646 132.837C145.646 149.652 160.196 163.284 178.145 163.284Z" fill="#A8A8A8"/>
<mask id="mask0_912_8190" style="mask-type:luminance" maskUnits="userSpaceOnUse" x="145" y="102" width="66" height="62">
<path d="M178.145 163.284C196.094 163.284 210.645 149.652 210.645 132.837C210.645 116.021 196.094 102.39 178.145 102.39C160.196 102.39 145.646 116.021 145.646 132.837C145.646 149.652 160.196 163.284 178.145 163.284Z" fill="white"/>
</mask>
<g mask="url(#mask0_912_8190)">
<path d="M178.225 101.142C161.204 101.142 147.374 114.066 147.374 130.006C147.374 145.946 161.169 158.862 178.225 158.862V101.142Z" fill="#545454"/>
<path d="M178.225 131.923L203.787 146.078C206.482 142.365 208.199 138.037 208.783 133.49C209.367 128.944 208.798 124.324 207.128 120.053L178.225 131.861V131.923Z" fill="white"/>
</g>
<path d="M178.146 152.989C190.857 152.989 201.161 143.337 201.161 131.43C201.161 119.524 190.857 109.872 178.146 109.872C165.435 109.872 155.13 119.524 155.13 131.43C155.13 143.337 165.435 152.989 178.146 152.989Z" fill="#1F1F1F"/>
<path d="M178.145 145.41C186.114 145.41 192.575 139.356 192.575 131.888C192.575 124.419 186.114 118.365 178.145 118.365C170.176 118.365 163.715 124.419 163.715 131.888C163.715 139.356 170.176 145.41 178.145 145.41Z" fill="#383838"/>
<path d="M178.145 139.677C186.752 139.677 193.729 133.143 193.729 125.082C193.729 117.022 186.752 110.487 178.145 110.487C169.538 110.487 162.561 117.022 162.561 125.082C162.561 133.143 169.538 139.677 178.145 139.677Z" fill="white"/>
<path d="M178.145 135.897C185.633 135.897 191.702 130.208 191.702 123.192C191.702 116.175 185.633 110.487 178.145 110.487C170.658 110.487 164.588 116.175 164.588 123.192C164.588 130.208 170.658 135.897 178.145 135.897Z" fill="#AEADAB"/>
<path d="M164.121 119.587L178.145 123.192L164.121 126.797V119.587Z" fill="white"/>
<path d="M192.169 119.587L178.145 123.192L192.169 126.797V119.587Z" fill="white"/>
<path d="M146.853 338.002C164.802 338.002 179.353 324.37 179.353 307.555C179.353 290.739 164.802 277.107 146.853 277.107C128.904 277.107 114.354 290.739 114.354 307.555C114.354 324.37 128.904 338.002 146.853 338.002Z" fill="#A8A8A8"/>
<mask id="mask1_912_8190" style="mask-type:luminance" maskUnits="userSpaceOnUse" x="114" y="277" width="66" height="62">
<path d="M146.853 338.002C164.802 338.002 179.353 324.37 179.353 307.555C179.353 290.739 164.802 277.107 146.853 277.107C128.904 277.107 114.354 290.739 114.354 307.555C114.354 324.37 128.904 338.002 146.853 338.002Z" fill="white"/>
</mask>
<g mask="url(#mask1_912_8190)">
<path d="M146.933 275.859C129.911 275.859 116.081 288.783 116.081 304.723C116.081 320.664 129.876 333.579 146.933 333.579V275.859Z" fill="#545454"/>
<path d="M146.933 306.64L172.495 320.795C175.19 317.082 176.907 312.754 177.491 308.208C178.075 303.661 177.506 299.041 175.836 294.771L146.906 306.57L146.933 306.64Z" fill="white"/>
</g>
<path d="M146.854 327.706C159.565 327.706 169.869 318.054 169.869 306.148C169.869 294.241 159.565 284.589 146.854 284.589C134.143 284.589 123.838 294.241 123.838 306.148C123.838 318.054 134.143 327.706 146.854 327.706Z" fill="#1F1F1F"/>
<path d="M146.853 320.118C154.823 320.118 161.283 314.064 161.283 306.596C161.283 299.127 154.823 293.073 146.853 293.073C138.884 293.073 132.424 299.127 132.424 306.596C132.424 314.064 138.884 320.118 146.853 320.118Z" fill="#383838"/>
<path d="M146.853 317.076C155.46 317.076 162.437 310.542 162.437 302.481C162.437 294.421 155.46 287.886 146.853 287.886C138.246 287.886 131.269 294.421 131.269 302.481C131.269 310.542 138.246 317.076 146.853 317.076Z" fill="white"/>
<path d="M146.853 313.287C154.341 313.287 160.41 307.599 160.41 300.583C160.41 293.566 154.341 287.878 146.853 287.878C139.366 287.878 133.296 293.566 133.296 300.583C133.296 307.599 139.366 313.287 146.853 313.287Z" fill="#AEADAB"/>
<path d="M132.829 296.986L146.853 300.582L132.829 304.187V296.986Z" fill="white"/>
<path d="M160.878 296.986L146.854 300.582L160.878 304.187V296.986Z" fill="white"/>
<path d="M236.851 224.75C254.801 224.75 269.351 211.119 269.351 194.303C269.351 177.488 254.801 163.856 236.851 163.856C218.902 163.856 204.352 177.488 204.352 194.303C204.352 211.119 218.902 224.75 236.851 224.75Z" fill="#A8A8A8"/>
<mask id="mask2_912_8190" style="mask-type:luminance" maskUnits="userSpaceOnUse" x="204" y="163" width="66" height="62">
<path d="M236.851 224.75C254.801 224.75 269.351 211.119 269.351 194.303C269.351 177.488 254.801 163.856 236.851 163.856C218.902 163.856 204.352 177.488 204.352 194.303C204.352 211.119 218.902 224.75 236.851 224.75Z" fill="white"/>
</mask>
<g mask="url(#mask2_912_8190)">
<path d="M236.931 162.633C219.91 162.633 206.08 175.558 206.08 191.498C206.08 207.438 219.875 220.354 236.931 220.354V162.633Z" fill="#545454"/>
<path d="M236.931 193.406L262.493 207.561C265.188 203.848 266.905 199.52 267.489 194.974C268.073 190.427 267.504 185.807 265.834 181.537L236.931 193.318V193.406Z" fill="white"/>
</g>
<path d="M236.851 214.454C249.562 214.454 259.866 204.803 259.866 192.896C259.866 180.99 249.562 171.338 236.851 171.338C224.14 171.338 213.836 180.99 213.836 192.896C213.836 204.803 224.14 214.454 236.851 214.454Z" fill="#1F1F1F"/>
<path d="M236.851 206.876C244.82 206.876 251.281 200.822 251.281 193.353C251.281 185.885 244.82 179.831 236.851 179.831C228.882 179.831 222.421 185.885 222.421 193.353C222.421 200.822 228.882 206.876 236.851 206.876Z" fill="#383838"/>
<path d="M236.851 201.152C245.458 201.152 252.435 194.617 252.435 186.557C252.435 178.496 245.458 171.962 236.851 171.962C228.244 171.962 221.267 178.496 221.267 186.557C221.267 194.617 228.244 201.152 236.851 201.152Z" fill="white"/>
<path d="M236.851 197.363C244.338 197.363 250.408 191.675 250.408 184.658C250.408 177.642 244.338 171.954 236.851 171.954C229.364 171.954 223.294 177.642 223.294 184.658C223.294 191.675 229.364 197.363 236.851 197.363Z" fill="#AEADAB"/>
<path d="M222.827 181.054L236.851 184.658L222.827 188.263V181.054Z" fill="white"/>
<path d="M250.875 181.054L236.851 184.658L250.875 188.263V181.054Z" fill="white"/>
<path d="M265.799 373.716C283.748 373.716 298.298 360.084 298.298 343.268C298.298 326.453 283.748 312.821 265.799 312.821C247.849 312.821 233.299 326.453 233.299 343.268C233.299 360.084 247.849 373.716 265.799 373.716Z" fill="#A8A8A8"/>
<mask id="mask3_912_8190" style="mask-type:luminance" maskUnits="userSpaceOnUse" x="233" y="312" width="66" height="62">
<path d="M265.799 373.716C283.748 373.716 298.298 360.084 298.298 343.268C298.298 326.453 283.748 312.821 265.799 312.821C247.849 312.821 233.299 326.453 233.299 343.268C233.299 360.084 247.849 373.716 265.799 373.716Z" fill="white"/>
</mask>
<g mask="url(#mask3_912_8190)">
<path d="M265.869 311.582C248.857 311.582 235.062 324.497 235.062 340.437C235.062 356.377 248.857 369.302 265.869 369.302V311.582Z" fill="#545454"/>
<path d="M265.869 342.363L291.432 356.509C294.82 351.831 296.646 346.208 296.65 340.437C296.654 337.034 296.017 333.661 294.773 330.493L265.843 342.292L265.869 342.363Z" fill="white"/>
</g>
<path d="M265.799 363.419C278.51 363.419 288.814 353.767 288.814 341.861C288.814 329.955 278.51 320.303 265.799 320.303C253.088 320.303 242.784 329.955 242.784 341.861C242.784 353.767 253.088 363.419 265.799 363.419Z" fill="#1F1F1F"/>
<path d="M265.799 355.841C273.768 355.841 280.228 349.787 280.228 342.319C280.228 334.851 273.768 328.796 265.799 328.796C257.83 328.796 251.369 334.851 251.369 342.319C251.369 349.787 257.83 355.841 265.799 355.841Z" fill="#383838"/>
<path d="M265.799 352.79C274.406 352.79 281.383 346.256 281.383 338.195C281.383 330.134 274.406 323.6 265.799 323.6C257.192 323.6 250.214 330.134 250.214 338.195C250.214 346.256 257.192 352.79 265.799 352.79Z" fill="white"/>
<path d="M265.799 349.009C273.286 349.009 279.356 343.321 279.356 336.305C279.356 329.288 273.286 323.6 265.799 323.6C258.311 323.6 252.242 329.288 252.242 336.305C252.242 343.321 258.311 349.009 265.799 349.009Z" fill="#AEADAB"/>
<path d="M251.774 332.7L265.799 336.304L251.774 339.909V332.7Z" fill="white"/>
<path d="M279.814 332.7L265.799 336.304L279.814 339.909V332.7Z" fill="white"/>
<path d="M279.091 63.353C279.091 45.7688 261.797 58.0777 239.707 59.0273C212.884 60.2318 154.663 3.14453 135.218 3.14453C154.663 3.14453 216.093 78.2821 240.836 80.4185C261.427 82.2033 279.091 45.8039 279.091 63.353Z" fill="#46464A"/>
<path d="M142.058 464.292H270.471" stroke="#46464A" stroke-width="3" stroke-miterlimit="10" stroke-linecap="round"/>
<path d="M176.294 515.602C176.294 503.839 184.069 496.462 207.066 496.462C230.064 496.462 237.838 503.839 237.838 515.602C237.838 535.49 215.59 564.24 207.066 564.24C198.542 564.24 176.294 535.49 176.294 515.602Z" fill="#121212"/>
<path d="M202.738 529.925C205.762 532.949 206.996 546.146 207.049 551.193C207.049 546.313 208.327 532.958 211.359 529.934C214.391 526.909 228.53 525.634 228.53 525.634C228.53 525.634 214.427 524.359 211.359 521.344C208.292 518.328 207.102 505.122 207.04 500.075C207.04 504.964 205.771 518.319 202.747 521.335C199.724 524.351 185.559 525.634 185.559 525.634C185.559 525.634 199.689 526.909 202.738 529.925Z" fill="#303133"/>
<path d="M271.325 464.6C281.017 403.596 337.011 390.228 337.011 375.649C337.011 359.452 310.921 318.854 297.229 248.691C286.867 195.555 278.796 131.006 278.796 61.4264C278.796 43.7442 261.509 56.1218 239.429 57.0766C212.617 58.2878 154.42 0.882324 134.975 0.882324C131.503 0.882324 129.512 3.47278 129.512 9.582C129.512 108.877 120.348 190.825 108.973 253.005C96.0123 323.849 74.9893 364.775 74.9893 375.649C74.9893 390.105 131.838 398.221 140.896 464.6" stroke="white" stroke-width="2" stroke-miterlimit="10"/>
<path d="M188.837 43.5269C194.373 48.3098 201.874 54.9566 207.419 59.5373C216.842 67.0546 226.3 75.5918 237.909 79.4339C245.965 81.7814 253.934 77.2711 260.131 72.4002C263.357 69.9033 266.345 67.1249 269.36 64.3466C266.477 67.248 263.551 70.1143 260.404 72.7431C254.234 77.8338 245.983 82.5991 237.697 80.1812C229.764 77.7898 223.012 72.7343 216.489 67.8019C206.793 60.2759 197.749 51.9233 188.837 43.5005V43.5269Z" fill="#6D6D73"/>
<path d="M191.579 133.23V652.379" stroke="#A8A8A8" stroke-width="2" stroke-miterlimit="10" stroke-linecap="round"/>
<path d="M160.19 313.588V652.379" stroke="#A8A8A8" stroke-width="2" stroke-miterlimit="10" stroke-linecap="round"/>
<path d="M254.349 350.872V652.379" stroke="#A8A8A8" stroke-width="2" stroke-miterlimit="10" stroke-linecap="round"/>
<path d="M222.959 194.582V652.379" stroke="#A8A8A8" stroke-width="2" stroke-miterlimit="10" stroke-linecap="round"/>
<path d="M160.19 310.902V652.379" stroke="#2BCF2E" stroke-width="2" stroke-miterlimit="10" stroke-linecap="round"/>
</g>
<defs>
<clipPath id="clip0_912_8190">
<rect width="412" height="653.73" fill="white"/>
</clipPath>
</defs>
</svg>
