<svg width="796" height="796" viewBox="0 0 796 796" fill="none" xmlns="http://www.w3.org/2000/svg">
<g id="Group 14">
<circle id="Ellipse 236" cx="398" cy="398" r="398" fill="#19C63E"/>
<path id="5" d="M179 623.706C179 589.328 183.759 558.387 193.276 530.885C202.793 502.853 213.368 488.838 225 488.838C228.172 488.838 245.092 495.449 275.759 508.671C306.425 521.365 329.161 527.711 343.966 527.711C358.77 527.711 370.138 525.331 378.069 520.571C386.529 515.811 390.759 509.465 390.759 501.531C390.759 472.442 337.092 455.253 229.759 449.964C211.253 448.906 202 392.314 202 280.189C202 168.063 210.724 112 228.172 112H578.724C592.471 112 599.345 133.156 599.345 175.467C599.345 200.854 596.701 228.886 591.414 259.562C586.655 289.709 578.195 304.782 566.035 304.782H343.966V340.483C446.012 340.483 518.977 356.878 562.862 389.67C598.287 416.644 616 456.311 616 508.671C616 561.032 596.437 603.344 557.31 635.606C518.184 667.869 455.529 684 369.345 684C313.299 684 267.563 677.653 232.138 664.96C196.713 652.266 179 638.515 179 623.706Z" fill="black"/>
</g>
</svg>
