<svg width="649" height="48" viewBox="0 0 649 48" fill="none" xmlns="http://www.w3.org/2000/svg">
<g id="&#60;TunerBallance&#62;">
<path id="Union" fill-rule="evenodd" clip-rule="evenodd" d="M24 0V48H25V0H24ZM0 38V10H1V38H0ZM12 38V10H13V38H12ZM36 38V10H37V38H36ZM48 10V38H49V10H48ZM60 38V10H61V38H60ZM72 10V38H73V10H72ZM84 48V0H85V48H84ZM96 10V38H97V10H96ZM108 38V10H109V38H108ZM120 10V38H121V10H120ZM132 38V10H133V38H132ZM144 0V48H145V0H144ZM156 38V10H157V38H156ZM168 10V38H169V10H168ZM180 38V10H181V38H180ZM192 10V38H193V10H192ZM204 48V0H205V48H204ZM216 10V38H217V10H216ZM228 38V10H229V38H228ZM240 10V38H241V10H240ZM252 38V10H253V38H252ZM264 0V48H265V0H264ZM276 38V10H277V38H276ZM288 10V38H289V10H288ZM300 38V10H301V38H300ZM312 10V38H313V10H312ZM324 48V0H325V48H324ZM336 10V38H337V10H336ZM348 38V10H349V38H348ZM360 10V38H361V10H360ZM372 38V10H373V38H372ZM384 0V48H385V0H384ZM396 38V10H397V38H396ZM408 10V38H409V10H408ZM420 38V10H421V38H420ZM432 10V38H433V10H432ZM444 48V0H445V48H444ZM456 10V38H457V10H456ZM468 38V10H469V38H468ZM480 10V38H481V10H480ZM492 38V10H493V38H492ZM504 0V48H505V0H504ZM516 38V10H517V38H516ZM528 10V38H529V10H528ZM540 38V10H541V38H540ZM552 10V38H553V10H552ZM564 48V0H565V48H564ZM576 10V38H577V10H576ZM588 38V10H589V38H588ZM600 10V38H601V10H600ZM612 38V10H613V38H612ZM624 0V48H625V0H624ZM636 38V10H637V38H636ZM648 10V38H649V10H648Z" fill="#808182"/>
</g>
</svg>
