<svg width="412" height="737" viewBox="0 0 412 737" fill="none" xmlns="http://www.w3.org/2000/svg">
<g id="Guitar">
<g id="&#208;&#154;&#208;&#190;&#208;&#187;&#208;&#186;&#208;&#184;">
<path id="Vector" d="M370.7 449.871V430.879H346.31V449.871H370.7Z" fill="#242526"/>
<path id="Vector_2" d="M411.21 466.204V414.566C411.21 405.05 406.81 401.721 399.53 401.721H389C381.33 401.721 362.55 428.94 362.55 440.385C362.55 451.83 381.33 479.049 389 479.049H399.5C406.81 479.049 411.21 475.72 411.21 466.204Z" fill="#242526"/>
<path id="Vector_3" d="M370.7 440.375V430.879H346.31V440.375H370.7Z" fill="#313133"/>
<path id="Vector_4" d="M411.21 414.566C411.21 405.05 406.81 401.721 399.53 401.721H389C381.33 401.721 362.55 428.94 362.55 440.385H411.18L411.21 414.566Z" fill="#313133"/>
<path id="Vector_5" d="M370.7 322.225V303.233H346.31V322.225H370.7Z" fill="#242526"/>
<path id="Vector_6" d="M411.21 338.548V286.879C411.21 277.353 406.81 274.025 399.53 274.025H389C381.33 274.025 362.55 301.243 362.55 312.689C362.55 324.134 381.33 351.352 389 351.352H399.5C406.81 351.392 411.21 348.064 411.21 338.548Z" fill="#242526"/>
<path id="Vector_7" d="M370.7 312.729V303.233H346.31V312.729H370.7Z" fill="#313133"/>
<path id="Vector_8" d="M411.21 286.879C411.21 277.353 406.81 274.025 399.53 274.025H389C381.33 274.025 362.55 301.243 362.55 312.689H411.18L411.21 286.879Z" fill="#313133"/>
<path id="Vector_9" d="M370.7 194.569V175.577H346.31V194.569H370.7Z" fill="#242526"/>
<path id="Vector_10" d="M411.21 210.912V159.263C411.21 149.737 406.81 146.409 399.53 146.409H389C381.33 146.409 362.55 173.627 362.55 185.072C362.55 196.518 381.33 223.736 389 223.736H399.5C406.81 223.736 411.21 220.408 411.21 210.912Z" fill="#242526"/>
<path id="Vector_11" d="M370.7 185.073V175.577H346.31V185.073H370.7Z" fill="#313133"/>
<path id="Vector_12" d="M411.21 159.263C411.21 149.737 406.81 146.409 399.53 146.409H389C381.33 146.409 362.55 173.627 362.55 185.072H411.18L411.21 159.263Z" fill="#313133"/>
<path id="Vector_13" d="M65.6802 449.881V430.889H41.2902V449.881H65.6802Z" fill="#242526"/>
<path id="Vector_14" d="M0.790039 466.204V414.566C0.790039 405.05 5.19005 401.721 12.47 401.721H23C30.67 401.721 49.45 428.94 49.45 440.385C49.45 451.83 30.64 479.049 23 479.049H12.5C5.19005 479.049 0.790039 475.72 0.790039 466.204Z" fill="#242526"/>
<path id="Vector_15" d="M65.6899 440.375V430.879H41.2999V440.375H65.6899Z" fill="#313133"/>
<path id="Vector_16" d="M0.790039 414.566C0.790039 405.05 5.19005 401.721 12.47 401.721H23C30.67 401.721 49.45 428.94 49.45 440.385H0.790039V414.566Z" fill="#313133"/>
<path id="Vector_17" d="M65.6899 322.225V303.233H41.3V322.225H65.6899Z" fill="#242526"/>
<path id="Vector_18" d="M0.790039 338.548V286.879C0.790039 277.353 5.19005 274.025 12.47 274.025H23C30.67 274.025 49.45 301.243 49.45 312.689C49.45 324.134 30.64 351.392 23 351.392H12.5C5.19005 351.392 0.790039 348.064 0.790039 338.548Z" fill="#242526"/>
<path id="Vector_19" d="M65.6899 312.729V303.233H41.3V312.729H65.6899Z" fill="#313133"/>
<path id="Vector_20" d="M0.790039 286.879C0.790039 277.353 5.19005 274.025 12.47 274.025H23C30.67 274.025 49.45 301.243 49.45 312.689H0.790039V286.879Z" fill="#313133"/>
<path id="Vector_21" d="M65.6899 194.569V175.577H41.2999V194.569H65.6899Z" fill="#242526"/>
<path id="Vector_22" d="M0.790039 210.912V159.263C0.790039 149.737 5.19005 146.409 12.47 146.409H23C30.67 146.409 49.45 173.627 49.45 185.072C49.45 196.518 30.64 223.736 23 223.736H12.5C5.19005 223.736 0.790039 220.408 0.790039 210.912Z" fill="#242526"/>
<path id="Vector_23" d="M65.6899 185.073V175.577H41.2999V185.073H65.6899Z" fill="#313133"/>
<path id="Vector_24" d="M0.790039 159.263C0.790039 149.737 5.19005 146.409 12.47 146.409H23C30.67 146.409 49.45 173.627 49.45 185.072H0.790039V159.263Z" fill="#313133"/>
</g>
<path id="1" opacity="0.3" d="M47.0001 175.576C45.6071 172.342 43.9898 169.209 42.1601 166.2C41.5101 165.121 40.8401 164.061 40.1601 163.012C39.8201 162.485 39.4701 161.965 39.1101 161.452C33.4601 153.216 26.8501 146.409 23.0101 146.409H12.5101C5.23007 146.409 0.830078 149.737 0.830078 159.263V210.912C0.830078 220.428 5.23007 223.756 12.5101 223.756H23.0001C29.0001 223.756 41.6501 207.293 47.0001 194.588H65.7201V175.596L47.0001 175.576Z" fill="#2BCF2E"/>
<g id="&#208;&#147;&#209;&#128;&#208;&#184;&#209;&#132;">
<path id="Vector_25" d="M56.36 431.059C53.26 467.524 50.36 492.033 51.93 497.781C55.62 511.785 123 556.136 123 675.476V736.69H289V675.476C289 564.253 356.38 511.785 360.07 497.791C361.5 492.353 359.56 466.734 357.07 431.069L56.36 431.059Z" fill="#1F2021"/>
<path id="Vector_26" d="M288.35 736.69V658.083C288.35 546.85 355.2 494.382 358.86 480.378C362.29 467.224 346.12 335.739 350.02 229.804C354.08 119.64 377.23 42.8824 370.25 34.8858C363.1 26.7092 334.85 45.7212 297.63 37.3847C269.63 31.1174 236.71 0.850098 206 0.850098C175.29 0.850098 142.37 31.1174 114.37 37.3847C77.15 45.7212 50.06 25.5797 41.75 34.8858C35.17 42.2627 55.28 102.547 61.98 229.804C68.7 357.52 49.71 467.224 53.14 480.378C56.8 494.372 123.65 538.734 123.65 658.083V736.69H288.35Z" fill="#303133"/>
<path id="Vector_27" d="M298.77 182.793C317.471 182.793 332.63 168.562 332.63 151.007C332.63 133.452 317.471 119.22 298.77 119.22C280.07 119.22 264.91 133.452 264.91 151.007C264.91 168.562 280.07 182.793 298.77 182.793Z" fill="#A8A8A8"/>
<g id="Clip path group">
<mask id="mask0_912_7033" style="mask-type:luminance" maskUnits="userSpaceOnUse" x="264" y="119" width="69" height="64">
<g id="clip-path">
<path id="Vector_28" d="M298.77 182.793C317.471 182.793 332.63 168.562 332.63 151.007C332.63 133.452 317.471 119.22 298.77 119.22C280.07 119.22 264.91 133.452 264.91 151.007C264.91 168.562 280.07 182.793 298.77 182.793Z" fill="white"/>
</g>
</mask>
<g mask="url(#mask0_912_7033)">
<g id="Group">
<path id="Vector_29" d="M298.85 117.951C281.13 117.951 266.76 131.435 266.76 148.078C266.76 164.721 281.13 178.205 298.85 178.205V117.951Z" fill="#545454"/>
<path id="Vector_30" d="M298.85 150.057L325.51 164.831C328.314 160.955 330.103 156.44 330.713 151.696C331.322 146.952 330.734 142.13 329 137.672L298.86 149.987L298.85 150.057Z" fill="white"/>
</g>
</g>
</g>
<path id="Vector_31" d="M298.77 172.048C312.008 172.048 322.74 161.974 322.74 149.547C322.74 137.121 312.008 127.047 298.77 127.047C285.532 127.047 274.8 137.121 274.8 149.547C274.8 161.974 285.532 172.048 298.77 172.048Z" fill="#1F1F1F"/>
<path id="Vector_32" d="M298.77 164.131C307.071 164.131 313.8 157.812 313.8 150.017C313.8 142.222 307.071 135.903 298.77 135.903C290.469 135.903 283.74 142.222 283.74 150.017C283.74 157.812 290.469 164.131 298.77 164.131Z" fill="#383838"/>
<path id="Vector_33" d="M298.77 157.035C307.734 157.035 315 150.214 315 141.801C315 133.388 307.734 126.567 298.77 126.567C289.806 126.567 282.54 133.388 282.54 141.801C282.54 150.214 289.806 157.035 298.77 157.035Z" fill="white"/>
<path id="Vector_34" d="M298.77 153.086C306.574 153.086 312.9 147.147 312.9 139.822C312.9 132.496 306.574 126.557 298.77 126.557C290.966 126.557 284.64 132.496 284.64 139.822C284.64 147.147 290.966 153.086 298.77 153.086Z" fill="#AEADAB"/>
<path id="Vector_35" d="M284.17 136.063L298.77 139.821L284.17 143.58V136.063Z" fill="white"/>
<path id="Vector_36" d="M313.38 136.063L298.77 139.821L313.38 143.58V136.063Z" fill="white"/>
<path id="Vector_37" d="M291.47 315.697C310.17 315.697 325.33 301.466 325.33 283.911C325.33 266.355 310.17 252.124 291.47 252.124C272.77 252.124 257.61 266.355 257.61 283.911C257.61 301.466 272.77 315.697 291.47 315.697Z" fill="#A8A8A8"/>
<g id="Clip path group_2">
<mask id="mask1_912_7033" style="mask-type:luminance" maskUnits="userSpaceOnUse" x="257" y="252" width="69" height="64">
<g id="clip-path-2">
<path id="Vector_38" d="M291.47 315.697C310.17 315.697 325.33 301.466 325.33 283.911C325.33 266.355 310.17 252.124 291.47 252.124C272.77 252.124 257.61 266.355 257.61 283.911C257.61 301.466 272.77 315.697 291.47 315.697Z" fill="white"/>
</g>
</mask>
<g mask="url(#mask1_912_7033)">
<g id="Group_2">
<path id="Vector_39" d="M291.55 250.825C273.82 250.825 259.45 264.309 259.45 280.952C259.45 297.595 273.82 311.079 291.55 311.079V250.825Z" fill="#545454"/>
<path id="Vector_40" d="M291.55 282.961L318.21 297.725C321.736 292.842 323.635 286.974 323.64 280.952C323.63 277.395 322.952 273.872 321.64 270.566L291.55 282.881V282.961Z" fill="white"/>
</g>
</g>
</g>
<path id="Vector_41" d="M291.47 304.942C304.708 304.942 315.44 294.869 315.44 282.442C315.44 270.015 304.708 259.941 291.47 259.941C278.232 259.941 267.5 270.015 267.5 282.442C267.5 294.869 278.232 304.942 291.47 304.942Z" fill="#1F1F1F"/>
<path id="Vector_42" d="M291.47 297.025C299.771 297.025 306.5 290.706 306.5 282.911C306.5 275.116 299.771 268.797 291.47 268.797C283.169 268.797 276.44 275.116 276.44 282.911C276.44 290.706 283.169 297.025 291.47 297.025Z" fill="#383838"/>
<path id="Vector_43" d="M291.47 291.717C300.433 291.717 307.7 284.897 307.7 276.484C307.7 268.07 300.433 261.25 291.47 261.25C282.506 261.25 275.24 268.07 275.24 276.484C275.24 284.897 282.506 291.717 291.47 291.717Z" fill="white"/>
<path id="Vector_44" d="M291.47 287.769C299.274 287.769 305.6 281.83 305.6 274.505C305.6 267.179 299.274 261.24 291.47 261.24C283.666 261.24 277.34 267.179 277.34 274.505C277.34 281.83 283.666 287.769 291.47 287.769Z" fill="#AEADAB"/>
<path id="Vector_45" d="M276.86 270.746L291.47 274.505L276.86 278.263V270.746Z" fill="white"/>
<path id="Vector_46" d="M306.08 270.746L291.47 274.505L306.08 278.263V270.746Z" fill="white"/>
<path id="Vector_47" d="M291.47 445.542C310.17 445.542 325.33 431.311 325.33 413.756C325.33 396.201 310.17 381.969 291.47 381.969C272.77 381.969 257.61 396.201 257.61 413.756C257.61 431.311 272.77 445.542 291.47 445.542Z" fill="#A8A8A8"/>
<g id="Clip path group_3">
<mask id="mask2_912_7033" style="mask-type:luminance" maskUnits="userSpaceOnUse" x="257" y="381" width="69" height="65">
<g id="clip-path-3">
<path id="Vector_48" d="M291.47 445.542C310.17 445.542 325.33 431.311 325.33 413.756C325.33 396.201 310.17 381.969 291.47 381.969C272.77 381.969 257.61 396.201 257.61 413.756C257.61 431.311 272.77 445.542 291.47 445.542Z" fill="white"/>
</g>
</mask>
<g mask="url(#mask2_912_7033)">
<g id="Group_3">
<path id="Vector_49" d="M291.55 380.67C273.82 380.67 259.45 394.164 259.45 410.797C259.45 427.43 273.82 440.925 291.55 440.925V380.67Z" fill="#545454"/>
<path id="Vector_50" d="M291.55 412.826L318.21 427.6C321.734 422.716 323.633 416.849 323.64 410.827C323.63 407.27 322.952 403.747 321.64 400.441L291.55 412.726V412.826Z" fill="white"/>
</g>
</g>
</g>
<path id="Vector_51" d="M291.47 434.788C304.708 434.788 315.44 424.714 315.44 412.287C315.44 399.86 304.708 389.787 291.47 389.787C278.232 389.787 267.5 399.86 267.5 412.287C267.5 424.714 278.232 434.788 291.47 434.788Z" fill="#1F1F1F"/>
<path id="Vector_52" d="M291.47 426.881C299.771 426.881 306.5 420.562 306.5 412.767C306.5 404.972 299.771 398.653 291.47 398.653C283.169 398.653 276.44 404.972 276.44 412.767C276.44 420.562 283.169 426.881 291.47 426.881Z" fill="#383838"/>
<path id="Vector_53" d="M291.47 423.692C300.433 423.692 307.7 416.872 307.7 408.459C307.7 400.045 300.433 393.225 291.47 393.225C282.506 393.225 275.24 400.045 275.24 408.459C275.24 416.872 282.506 423.692 291.47 423.692Z" fill="white"/>
<path id="Vector_54" d="M291.47 419.754C299.274 419.754 305.6 413.815 305.6 406.49C305.6 399.164 299.274 393.225 291.47 393.225C283.666 393.225 277.34 399.164 277.34 406.49C277.34 413.815 283.666 419.754 291.47 419.754Z" fill="#AEADAB"/>
<path id="Vector_55" d="M276.86 402.721L291.47 406.489L276.86 410.248V402.721Z" fill="white"/>
<path id="Vector_56" d="M306.08 402.721L291.47 406.489L306.08 410.248V402.721Z" fill="white"/>
<path id="Vector_57" d="M113.6 182.793C132.301 182.793 147.46 168.562 147.46 151.007C147.46 133.452 132.301 119.22 113.6 119.22C94.8999 119.22 79.7402 133.452 79.7402 151.007C79.7402 168.562 94.8999 182.793 113.6 182.793Z" fill="#A8A8A8"/>
<g id="Clip path group_4">
<mask id="mask3_912_7033" style="mask-type:luminance" maskUnits="userSpaceOnUse" x="79" y="119" width="69" height="64">
<g id="clip-path-4">
<path id="Vector_58" d="M113.6 182.793C132.301 182.793 147.46 168.562 147.46 151.007C147.46 133.452 132.301 119.22 113.6 119.22C94.8999 119.22 79.7402 133.452 79.7402 151.007C79.7402 168.562 94.8999 182.793 113.6 182.793Z" fill="white"/>
</g>
</mask>
<g mask="url(#mask3_912_7033)">
<g id="Group_4">
<path id="Vector_59" d="M113.68 117.951C95.9503 117.951 81.5903 131.435 81.5903 148.078C81.5903 164.721 95.9503 178.205 113.68 178.205V117.951Z" fill="#545454"/>
<path id="Vector_60" d="M113.68 150.057L140.34 164.831C143.865 159.947 145.764 154.08 145.77 148.058C145.761 144.501 145.083 140.978 143.77 137.672L113.64 149.987L113.68 150.057Z" fill="white"/>
</g>
</g>
</g>
<path id="Vector_61" d="M113.6 172.048C126.838 172.048 137.57 161.974 137.57 149.547C137.57 137.121 126.838 127.047 113.6 127.047C100.362 127.047 89.6299 137.121 89.6299 149.547C89.6299 161.974 100.362 172.048 113.6 172.048Z" fill="#1F1F1F"/>
<path id="Vector_62" d="M113.6 164.131C121.901 164.131 128.63 157.812 128.63 150.017C128.63 142.222 121.901 135.903 113.6 135.903C105.299 135.903 98.5698 142.222 98.5698 150.017C98.5698 157.812 105.299 164.131 113.6 164.131Z" fill="#383838"/>
<path id="Vector_63" d="M113.6 157.035C122.564 157.035 129.83 150.214 129.83 141.801C129.83 133.388 122.564 126.567 113.6 126.567C104.637 126.567 97.3701 133.388 97.3701 141.801C97.3701 150.214 104.637 157.035 113.6 157.035Z" fill="white"/>
<path id="Vector_64" d="M113.6 153.086C121.404 153.086 127.73 147.147 127.73 139.822C127.73 132.496 121.404 126.557 113.6 126.557C105.796 126.557 99.4702 132.496 99.4702 139.822C99.4702 147.147 105.796 153.086 113.6 153.086Z" fill="#AEADAB"/>
<path id="Vector_65" d="M98.9897 136.063L113.6 139.821L98.9897 143.58V136.063Z" fill="white"/>
<path id="Vector_66" d="M128.21 136.063L113.6 139.821L128.21 143.58V136.063Z" fill="white"/>
<path id="Vector_67" d="M120.9 315.697C139.6 315.697 154.76 301.466 154.76 283.911C154.76 266.355 139.6 252.124 120.9 252.124C102.2 252.124 87.04 266.355 87.04 283.911C87.04 301.466 102.2 315.697 120.9 315.697Z" fill="#A8A8A8"/>
<g id="Clip path group_5">
<mask id="mask4_912_7033" style="mask-type:luminance" maskUnits="userSpaceOnUse" x="87" y="252" width="68" height="64">
<g id="clip-path-5">
<path id="Vector_68" d="M120.9 315.697C139.6 315.697 154.76 301.466 154.76 283.911C154.76 266.355 139.6 252.124 120.9 252.124C102.2 252.124 87.04 266.355 87.04 283.911C87.04 301.466 102.2 315.697 120.9 315.697Z" fill="white"/>
</g>
</mask>
<g mask="url(#mask4_912_7033)">
<g id="Group_5">
<path id="Vector_69" d="M121 250.825C103.28 250.825 88.9102 264.309 88.9102 280.952C88.9102 297.595 103.28 311.079 121 311.079V250.825Z" fill="#545454"/>
<path id="Vector_70" d="M121 282.961L147.66 297.725C150.469 293.852 152.26 289.335 152.868 284.59C153.477 279.844 152.882 275.022 151.14 270.566L121 282.881V282.961Z" fill="white"/>
</g>
</g>
</g>
<path id="Vector_71" d="M120.9 304.942C134.138 304.942 144.87 294.869 144.87 282.442C144.87 270.015 134.138 259.941 120.9 259.941C107.662 259.941 96.9302 270.015 96.9302 282.442C96.9302 294.869 107.662 304.942 120.9 304.942Z" fill="#1F1F1F"/>
<path id="Vector_72" d="M120.9 297.025C129.201 297.025 135.93 290.706 135.93 282.911C135.93 275.116 129.201 268.797 120.9 268.797C112.599 268.797 105.87 275.116 105.87 282.911C105.87 290.706 112.599 297.025 120.9 297.025Z" fill="#383838"/>
<path id="Vector_73" d="M120.9 291.717C129.863 291.717 137.13 284.897 137.13 276.484C137.13 268.07 129.863 261.25 120.9 261.25C111.936 261.25 104.67 268.07 104.67 276.484C104.67 284.897 111.936 291.717 120.9 291.717Z" fill="white"/>
<path id="Vector_74" d="M120.9 287.769C128.704 287.769 135.03 281.83 135.03 274.505C135.03 267.179 128.704 261.24 120.9 261.24C113.096 261.24 106.77 267.179 106.77 274.505C106.77 281.83 113.096 287.769 120.9 287.769Z" fill="#AEADAB"/>
<path id="Vector_75" d="M106.3 270.746L120.9 274.505L106.3 278.263V270.746Z" fill="white"/>
<path id="Vector_76" d="M135.51 270.746L120.9 274.505L135.51 278.263V270.746Z" fill="white"/>
<path id="Vector_77" d="M120.9 445.542C139.6 445.542 154.76 431.311 154.76 413.756C154.76 396.201 139.6 381.969 120.9 381.969C102.2 381.969 87.04 396.201 87.04 413.756C87.04 431.311 102.2 445.542 120.9 445.542Z" fill="#A8A8A8"/>
<g id="Clip path group_6">
<mask id="mask5_912_7033" style="mask-type:luminance" maskUnits="userSpaceOnUse" x="87" y="381" width="68" height="65">
<g id="clip-path-6">
<path id="Vector_78" d="M120.9 445.542C139.6 445.542 154.76 431.311 154.76 413.756C154.76 396.201 139.6 381.969 120.9 381.969C102.2 381.969 87.04 396.201 87.04 413.756C87.04 431.311 102.2 445.542 120.9 445.542Z" fill="white"/>
</g>
</mask>
<g mask="url(#mask5_912_7033)">
<g id="Group_6">
<path id="Vector_79" d="M121 380.67C103.28 380.67 88.9102 394.164 88.9102 410.797C88.9102 427.43 103.28 440.925 121 440.925V380.67Z" fill="#545454"/>
<path id="Vector_80" d="M121 412.826L147.66 427.6C150.469 423.725 152.26 419.207 152.868 414.46C153.476 409.713 152.882 404.889 151.14 400.432L121 412.726V412.826Z" fill="white"/>
</g>
</g>
</g>
<path id="Vector_81" d="M120.9 434.788C134.138 434.788 144.87 424.714 144.87 412.287C144.87 399.86 134.138 389.787 120.9 389.787C107.662 389.787 96.9302 399.86 96.9302 412.287C96.9302 424.714 107.662 434.788 120.9 434.788Z" fill="#1F1F1F"/>
<path id="Vector_82" d="M120.9 426.881C129.201 426.881 135.93 420.562 135.93 412.767C135.93 404.972 129.201 398.653 120.9 398.653C112.599 398.653 105.87 404.972 105.87 412.767C105.87 420.562 112.599 426.881 120.9 426.881Z" fill="#383838"/>
<path id="Vector_83" d="M120.9 423.692C129.863 423.692 137.13 416.872 137.13 408.459C137.13 400.045 129.863 393.225 120.9 393.225C111.936 393.225 104.67 400.045 104.67 408.459C104.67 416.872 111.936 423.692 120.9 423.692Z" fill="white"/>
<path id="Vector_84" d="M120.9 419.754C128.704 419.754 135.03 413.815 135.03 406.49C135.03 399.164 128.704 393.225 120.9 393.225C113.096 393.225 106.77 399.164 106.77 406.49C106.77 413.815 113.096 419.754 120.9 419.754Z" fill="#AEADAB"/>
<path id="Vector_85" d="M106.3 402.721L120.9 406.489L106.3 410.248V402.721Z" fill="white"/>
<path id="Vector_86" d="M135.51 402.721L120.9 406.489L135.51 410.248V402.721Z" fill="white"/>
<path id="Vector_87" d="M126.75 647.878H285.62C286.027 647.878 286.43 647.958 286.806 648.114C287.182 648.27 287.524 648.498 287.812 648.786C288.1 649.073 288.328 649.415 288.484 649.791C288.64 650.167 288.72 650.57 288.72 650.977V667.969H123.65V650.977C123.65 650.57 123.73 650.167 123.886 649.791C124.042 649.415 124.27 649.073 124.558 648.786C124.846 648.498 125.187 648.27 125.564 648.114C125.94 647.958 126.343 647.878 126.75 647.878Z" fill="#46464A"/>
<path id="Vector_88" d="M127.94 663.721H284.43C285.568 663.721 286.659 664.173 287.463 664.977C288.268 665.781 288.72 666.872 288.72 668.009H123.65C123.65 666.872 124.102 665.781 124.906 664.977C125.711 664.173 126.802 663.721 127.94 663.721Z" fill="#1F2021"/>
<path id="Vector_89" d="M133.19 649.767V665.19" stroke="#1F2021" stroke-width="5" stroke-miterlimit="10" stroke-linecap="round"/>
<path id="Vector_90" d="M162.4 649.767V665.19" stroke="#1F2021" stroke-width="5" stroke-miterlimit="10" stroke-linecap="round"/>
<path id="Vector_91" d="M191.4 649.767V665.19" stroke="#1F2021" stroke-width="5" stroke-miterlimit="10" stroke-linecap="round"/>
<path id="Vector_92" d="M220.6 649.767V665.19" stroke="#1F2021" stroke-width="5" stroke-miterlimit="10" stroke-linecap="round"/>
<path id="Vector_93" d="M249.5 649.767V665.19" stroke="#1F2021" stroke-width="5" stroke-miterlimit="10" stroke-linecap="round"/>
<path id="Vector_94" d="M279.18 649.767V665.19" stroke="#1F2021" stroke-width="5" stroke-miterlimit="10" stroke-linecap="round"/>
<path id="Vector_95" d="M288.55 647.878C292.55 543.842 355.32 494.253 358.86 480.698C362.29 467.544 346.12 336.049 350.02 230.124C354.08 119.96 377.23 43.2025 370.25 35.2058C363.1 27.0293 334.85 46.0513 297.63 37.7148C269.63 31.4374 236.71 1.18018 206 1.18018C175.29 1.18018 142.37 31.4374 114.37 37.7148C77.15 46.0513 50.06 25.8998 41.75 35.2058C35.17 42.5827 55.28 102.867 61.98 230.124C68.7 357.85 49.71 467.544 53.14 480.698C56.69 494.283 119.71 536.425 123.47 647.888" stroke="white" stroke-width="2" stroke-miterlimit="10"/>
<path id="Vector_96" d="M169.65 55.1072C169.65 41.1831 178.84 32.4468 206 32.4468C233.16 32.4468 242.35 41.1831 242.35 55.1072C242.35 78.6473 216.06 112.683 206 112.683C195.94 112.683 169.65 78.6473 169.65 55.1072Z" fill="#121212"/>
<path id="Vector_97" d="M200.91 72.06C204.48 75.6384 205.91 91.2619 206 97.2394C206 91.4518 207.51 75.6484 211.09 72.07C214.67 68.4915 231.37 66.9721 231.37 66.9721C231.37 66.9721 214.67 65.4627 211.1 61.8842C207.53 58.3058 206.1 42.6923 206 36.7148C206 42.5024 204.49 58.3058 200.92 61.8842C197.35 65.4627 180.62 66.9721 180.62 66.9721C180.62 66.9721 197.33 68.4815 200.91 72.06Z" fill="#303133"/>
</g>
<g id="&#208;&#161;&#209;&#130;&#209;&#128;&#209;&#131;&#208;&#189;&#209;&#139;">
<path id="Vector_98" d="M279.18 420.403V647.568V736.69" stroke="#A8A8A8" stroke-width="2" stroke-miterlimit="10" stroke-linecap="round"/>
<path id="Vector_99" d="M279.03 288.719L249.5 647.568V736.69" stroke="#A8A8A8" stroke-width="2" stroke-miterlimit="10" stroke-linecap="round"/>
<path id="Vector_100" d="M285.64 153.855L220.6 647.568V736.69" stroke="#A8A8A8" stroke-width="2" stroke-miterlimit="10" stroke-linecap="round"/>
<path id="Vector_101" d="M133.19 420.403V736.69" stroke="#A8A8A8" stroke-width="2" stroke-miterlimit="10" stroke-linecap="round"/>
<path id="Vector_102" d="M133.41 288.969L162.39 647.568V736.69" stroke="#A8A8A8" stroke-width="2" stroke-miterlimit="10" stroke-linecap="round"/>
<path id="Vector_103" d="M126.8 153.855L191.4 647.568V736.69" stroke="#A8A8A8" stroke-width="2" stroke-miterlimit="10" stroke-linecap="round"/>
</g>
<path id="1_2" d="M126.12 152.586L191.4 647.877V737" stroke="#2BCF2E" stroke-width="2" stroke-miterlimit="10" stroke-linecap="round"/>
</g>
</svg>
