<svg width="46" height="33" viewBox="0 0 46 33" fill="none" xmlns="http://www.w3.org/2000/svg">
<path d="M18.2525 23.0485V9.55322L30.1163 16.3016L18.2525 23.0485ZM44.6407 5.30502C44.1049 3.33604 42.5915 1.81353 40.6679 1.27475L40.627 1.26567C35.7947 0.651214 30.2056 0.300097 24.5332 0.300097C23.9566 0.300097 23.3815 0.303124 22.8079 0.310691L22.8957 0.309178C22.4084 0.303124 21.8348 0.298584 21.2581 0.298584C15.5858 0.298584 9.99367 0.6497 4.50446 1.32923L5.16129 1.26264C3.19836 1.81202 1.68493 3.33301 1.15977 5.26264L1.15069 5.30199C0.545319 8.49382 0.200256 12.1669 0.200256 15.9202C0.200256 16.0534 0.200256 16.1866 0.20177 16.3183V16.2971C0.20177 16.4091 0.200256 16.5422 0.200256 16.6754C0.200256 20.4287 0.546832 24.1003 1.2082 27.6614L1.15069 27.2922C1.68645 29.2611 3.19988 30.7836 5.12345 31.3224L5.16431 31.3315C9.9967 31.946 15.5858 32.2971 21.2581 32.2971C21.8333 32.2971 22.4084 32.294 22.9835 32.2865L22.8957 32.288C23.383 32.294 23.9581 32.2986 24.5332 32.2986C30.2071 32.2986 35.7977 31.9475 41.2869 31.2679L40.6301 31.3345C42.5945 30.7867 44.1079 29.2642 44.6346 27.3345L44.6437 27.2952C45.2476 24.1034 45.5926 20.4303 45.5926 16.6785C45.5926 16.5453 45.5926 16.4121 45.5911 16.2804V16.3001C45.5911 16.1881 45.5926 16.0549 45.5926 15.9217C45.5926 12.1684 45.246 8.49684 44.5847 4.93574L44.6407 5.30502Z" fill="#96989F"/>
</svg>
