<svg width="796" height="796" viewBox="0 0 796 796" fill="none" xmlns="http://www.w3.org/2000/svg">
<path d="M794 398C794 616.705 616.705 794 398 794C179.295 794 2 616.705 2 398C2 179.295 179.295 2 398 2C616.705 2 794 179.295 794 398Z" fill="#19C63E" stroke="#112211" stroke-width="4"/>
<path d="M195.166 531.539L195.17 531.528C199.9 517.595 204.841 507.314 209.941 500.554C215.05 493.784 220.081 490.838 225 490.838C225.134 490.838 225.543 490.887 226.349 491.088C227.11 491.278 228.1 491.572 229.332 491.977C231.793 492.787 235.125 494.012 239.341 495.659C247.769 498.952 259.64 503.9 274.967 510.508L274.981 510.513L274.994 510.519C305.675 523.219 328.732 529.711 343.966 529.711C358.921 529.711 370.7 527.317 379.074 522.3C387.982 517.281 392.759 510.352 392.759 501.531C392.759 493.551 389.047 486.505 382.003 480.431C375.006 474.398 364.658 469.254 351.119 464.918C324.033 456.242 283.574 450.614 229.864 447.967C226.382 447.763 222.804 444.924 219.416 437.89C216.071 430.942 213.216 420.487 210.914 406.404C206.314 378.273 204 336.225 204 280.189C204 224.15 206.182 182.228 210.519 154.355C212.691 140.398 215.383 130.108 218.534 123.358C221.743 116.484 225.063 114 228.172 114H578.724C584.239 114 588.926 118.139 592.288 128.485C595.625 138.757 597.345 154.368 597.345 175.467C597.345 200.718 594.715 228.634 589.443 259.222L589.441 259.236L589.438 259.25C587.072 274.24 583.813 285.269 579.756 292.498C575.713 299.701 571.106 302.782 566.035 302.782H343.966H341.966V304.782V340.483V342.483H343.966C445.898 342.483 518.309 358.879 561.659 391.267C596.49 417.794 614 456.816 614 508.671C614 560.457 594.687 602.195 556.038 634.063L557.31 635.606L556.038 634.063C517.446 665.885 455.361 682 369.345 682C313.427 682 267.943 675.665 232.813 663.077C215.183 656.76 202.126 650.234 193.511 643.546C184.885 636.85 181 630.227 181 623.706C181 589.511 185.734 558.796 195.166 531.539Z" fill="black" stroke="#112211" stroke-width="4"/>
</svg>
