<svg width="412" height="738" viewBox="0 0 412 738" fill="none" xmlns="http://www.w3.org/2000/svg">
<g id="Guitar" clip-path="url(#clip0_912_7292)">
<g id="Guitar_2">
<g id="&#208;&#154;&#208;&#190;&#208;&#187;&#208;&#186;&#208;&#184;">
<path id="Vector" d="M370.7 450.06V431.06H346.31V450.06H370.7Z" fill="#242526"/>
<path id="Vector_2" d="M411.21 466.4V414.74C411.21 405.22 406.81 401.89 399.53 401.89H389C381.33 401.89 362.55 429.12 362.55 440.57C362.55 452.02 381.33 479.25 389 479.25H399.5C406.81 479.25 411.21 475.92 411.21 466.4Z" fill="#242526"/>
<path id="Vector_3" d="M370.7 440.56V431.06H346.31V440.56H370.7Z" fill="#313133"/>
<path id="Vector_4" d="M411.21 414.74C411.21 405.22 406.81 401.89 399.53 401.89H389C381.33 401.89 362.55 429.12 362.55 440.57H411.18L411.21 414.74Z" fill="#313133"/>
<path id="Vector_5" d="M370.7 322.36V303.36H346.31V322.36H370.7Z" fill="#242526"/>
<path id="Vector_6" d="M411.21 338.69V287C411.21 277.47 406.81 274.14 399.53 274.14H389C381.33 274.14 362.55 301.37 362.55 312.82C362.55 324.27 381.33 351.5 389 351.5H399.5C406.81 351.54 411.21 348.21 411.21 338.69Z" fill="#242526"/>
<path id="Vector_7" d="M370.7 312.86V303.36H346.31V312.86H370.7Z" fill="#313133"/>
<path id="Vector_8" d="M411.21 287C411.21 277.47 406.81 274.14 399.53 274.14H389C381.33 274.14 362.55 301.37 362.55 312.82H411.18L411.21 287Z" fill="#313133"/>
<path id="Vector_9" d="M370.7 194.65V175.65H346.31V194.65H370.7Z" fill="#242526"/>
<path id="Vector_10" d="M411.21 211V159.33C411.21 149.8 406.81 146.47 399.53 146.47H389C381.33 146.47 362.55 173.7 362.55 185.15C362.55 196.6 381.33 223.83 389 223.83H399.5C406.81 223.83 411.21 220.5 411.21 211Z" fill="#242526"/>
<path id="Vector_11" d="M370.7 185.15V175.65H346.31V185.15H370.7Z" fill="#313133"/>
<path id="Vector_12" d="M411.21 159.33C411.21 149.8 406.81 146.47 399.53 146.47H389C381.33 146.47 362.55 173.7 362.55 185.15H411.18L411.21 159.33Z" fill="#313133"/>
<path id="Vector_13" d="M65.6802 450.07V431.07H41.2902V450.07H65.6802Z" fill="#242526"/>
<path id="Vector_14" d="M0.790039 466.4V414.74C0.790039 405.22 5.19005 401.89 12.47 401.89H23C30.67 401.89 49.45 429.12 49.45 440.57C49.45 452.02 30.64 479.25 23 479.25H12.5C5.19005 479.25 0.790039 475.92 0.790039 466.4Z" fill="#242526"/>
<path id="Vector_15" d="M65.6899 440.56V431.06H41.2999V440.56H65.6899Z" fill="#313133"/>
<path id="Vector_16" d="M0.790039 414.74C0.790039 405.22 5.19005 401.89 12.47 401.89H23C30.67 401.89 49.45 429.12 49.45 440.57H0.790039V414.74Z" fill="#313133"/>
<path id="Vector_17" d="M65.6899 322.36V303.36H41.3V322.36H65.6899Z" fill="#242526"/>
<path id="Vector_18" d="M0.790039 338.69V287C0.790039 277.47 5.19005 274.14 12.47 274.14H23C30.67 274.14 49.45 301.37 49.45 312.82C49.45 324.27 30.64 351.54 23 351.54H12.5C5.19005 351.54 0.790039 348.21 0.790039 338.69Z" fill="#242526"/>
<path id="Vector_19" d="M65.6899 312.86V303.36H41.3V312.86H65.6899Z" fill="#313133"/>
<path id="Vector_20" d="M0.790039 287C0.790039 277.47 5.19005 274.14 12.47 274.14H23C30.67 274.14 49.45 301.37 49.45 312.82H0.790039V287Z" fill="#313133"/>
<path id="Vector_21" d="M65.6899 194.65V175.65H41.2999V194.65H65.6899Z" fill="#242526"/>
<path id="Vector_22" d="M0.790039 211V159.33C0.790039 149.8 5.19005 146.47 12.47 146.47H23C30.67 146.47 49.45 173.7 49.45 185.15C49.45 196.6 30.64 223.83 23 223.83H12.5C5.19005 223.83 0.790039 220.5 0.790039 211Z" fill="#242526"/>
<path id="Vector_23" d="M65.6899 185.15V175.65H41.2999V185.15H65.6899Z" fill="#313133"/>
<path id="Vector_24" d="M0.790039 159.33C0.790039 149.8 5.19005 146.47 12.47 146.47H23C30.67 146.47 49.45 173.7 49.45 185.15H0.790039V159.33Z" fill="#313133"/>
</g>
<g id="&#208;&#147;&#209;&#128;&#208;&#184;&#209;&#132;">
<path id="Vector_25" d="M56.36 431.24C53.26 467.72 50.36 492.24 51.93 497.99C55.62 512 123 556.37 123 675.76V737H289V675.76C289 564.49 356.38 512 360.07 498C361.5 492.56 359.56 466.93 357.07 431.25L56.36 431.24Z" fill="#1F2021"/>
<path id="Vector_26" d="M288.35 737V658.36C288.35 547.08 355.2 494.59 358.86 480.58C362.29 467.42 346.12 335.88 350.02 229.9C354.08 119.69 377.23 42.9001 370.25 34.9001C363.1 26.7201 334.85 45.7401 297.63 37.4001C269.63 31.1301 236.71 0.850098 206 0.850098C175.29 0.850098 142.37 31.1301 114.37 37.4001C77.15 45.7401 50.06 25.5901 41.75 34.9001C35.17 42.2801 55.28 102.59 61.98 229.9C68.7 357.67 49.71 467.42 53.14 480.58C56.8 494.58 123.65 538.96 123.65 658.36V737H288.35Z" fill="#303133"/>
<path id="Vector_27" d="M298.77 182.87C317.471 182.87 332.63 168.633 332.63 151.07C332.63 133.507 317.471 119.27 298.77 119.27C280.07 119.27 264.91 133.507 264.91 151.07C264.91 168.633 280.07 182.87 298.77 182.87Z" fill="#A8A8A8"/>
<g id="Clip path group">
<mask id="mask0_912_7292" style="mask-type:luminance" maskUnits="userSpaceOnUse" x="264" y="119" width="69" height="64">
<g id="clip-path">
<path id="Vector_28" d="M298.77 182.87C317.471 182.87 332.63 168.633 332.63 151.07C332.63 133.507 317.471 119.27 298.77 119.27C280.07 119.27 264.91 133.507 264.91 151.07C264.91 168.633 280.07 182.87 298.77 182.87Z" fill="white"/>
</g>
</mask>
<g mask="url(#mask0_912_7292)">
<g id="Group">
<path id="Vector_29" d="M298.85 118C281.13 118 266.76 131.49 266.76 148.14C266.76 164.79 281.13 178.28 298.85 178.28V118Z" fill="#545454"/>
<path id="Vector_30" d="M298.85 150.12L325.51 164.9C328.314 161.023 330.103 156.505 330.713 151.759C331.322 147.013 330.734 142.19 329 137.73L298.86 150.05L298.85 150.12Z" fill="white"/>
</g>
</g>
</g>
<path id="Vector_31" d="M298.77 172.12C312.008 172.12 322.74 162.042 322.74 149.61C322.74 137.178 312.008 127.1 298.77 127.1C285.532 127.1 274.8 137.178 274.8 149.61C274.8 162.042 285.532 172.12 298.77 172.12Z" fill="#1F1F1F"/>
<path id="Vector_32" d="M298.77 164.2C307.071 164.2 313.8 157.878 313.8 150.08C313.8 142.282 307.071 135.96 298.77 135.96C290.469 135.96 283.74 142.282 283.74 150.08C283.74 157.878 290.469 164.2 298.77 164.2Z" fill="#383838"/>
<path id="Vector_33" d="M298.77 157.1C307.734 157.1 315 150.277 315 141.86C315 133.443 307.734 126.62 298.77 126.62C289.806 126.62 282.54 133.443 282.54 141.86C282.54 150.277 289.806 157.1 298.77 157.1Z" fill="white"/>
<path id="Vector_34" d="M298.77 153.15C306.574 153.15 312.9 147.209 312.9 139.88C312.9 132.551 306.574 126.61 298.77 126.61C290.966 126.61 284.64 132.551 284.64 139.88C284.64 147.209 290.966 153.15 298.77 153.15Z" fill="#AEADAB"/>
<path id="Vector_35" d="M284.17 136.12L298.77 139.88L284.17 143.64V136.12Z" fill="white"/>
<path id="Vector_36" d="M313.38 136.12L298.77 139.88L313.38 143.64V136.12Z" fill="white"/>
<path id="Vector_37" d="M291.47 315.83C310.17 315.83 325.33 301.593 325.33 284.03C325.33 266.467 310.17 252.23 291.47 252.23C272.77 252.23 257.61 266.467 257.61 284.03C257.61 301.593 272.77 315.83 291.47 315.83Z" fill="#A8A8A8"/>
<g id="Clip path group_2">
<mask id="mask1_912_7292" style="mask-type:luminance" maskUnits="userSpaceOnUse" x="257" y="252" width="69" height="64">
<g id="clip-path-2">
<path id="Vector_38" d="M291.47 315.83C310.17 315.83 325.33 301.593 325.33 284.03C325.33 266.467 310.17 252.23 291.47 252.23C272.77 252.23 257.61 266.467 257.61 284.03C257.61 301.593 272.77 315.83 291.47 315.83Z" fill="white"/>
</g>
</mask>
<g mask="url(#mask1_912_7292)">
<g id="Group_2">
<path id="Vector_39" d="M291.55 250.93C273.82 250.93 259.45 264.42 259.45 281.07C259.45 297.72 273.82 311.21 291.55 311.21V250.93Z" fill="#545454"/>
<path id="Vector_40" d="M291.55 283.08L318.21 297.85C321.736 292.965 323.635 287.095 323.64 281.07C323.63 277.512 322.952 273.988 321.64 270.68L291.55 283V283.08Z" fill="white"/>
</g>
</g>
</g>
<path id="Vector_41" d="M291.47 305.07C304.708 305.07 315.44 294.992 315.44 282.56C315.44 270.128 304.708 260.05 291.47 260.05C278.232 260.05 267.5 270.128 267.5 282.56C267.5 294.992 278.232 305.07 291.47 305.07Z" fill="#1F1F1F"/>
<path id="Vector_42" d="M291.47 297.15C299.771 297.15 306.5 290.828 306.5 283.03C306.5 275.232 299.771 268.91 291.47 268.91C283.169 268.91 276.44 275.232 276.44 283.03C276.44 290.828 283.169 297.15 291.47 297.15Z" fill="#383838"/>
<path id="Vector_43" d="M291.47 291.84C300.433 291.84 307.7 285.017 307.7 276.6C307.7 268.183 300.433 261.36 291.47 261.36C282.506 261.36 275.24 268.183 275.24 276.6C275.24 285.017 282.506 291.84 291.47 291.84Z" fill="white"/>
<path id="Vector_44" d="M291.47 287.89C299.274 287.89 305.6 281.949 305.6 274.62C305.6 267.291 299.274 261.35 291.47 261.35C283.666 261.35 277.34 267.291 277.34 274.62C277.34 281.949 283.666 287.89 291.47 287.89Z" fill="#AEADAB"/>
<path id="Vector_45" d="M276.86 270.86L291.47 274.62L276.86 278.38V270.86Z" fill="white"/>
<path id="Vector_46" d="M306.08 270.86L291.47 274.62L306.08 278.38V270.86Z" fill="white"/>
<path id="Vector_47" d="M291.47 445.73C310.17 445.73 325.33 431.493 325.33 413.93C325.33 396.367 310.17 382.13 291.47 382.13C272.77 382.13 257.61 396.367 257.61 413.93C257.61 431.493 272.77 445.73 291.47 445.73Z" fill="#A8A8A8"/>
<g id="Clip path group_3">
<mask id="mask2_912_7292" style="mask-type:luminance" maskUnits="userSpaceOnUse" x="257" y="382" width="69" height="64">
<g id="clip-path-3">
<path id="Vector_48" d="M291.47 445.73C310.17 445.73 325.33 431.493 325.33 413.93C325.33 396.367 310.17 382.13 291.47 382.13C272.77 382.13 257.61 396.367 257.61 413.93C257.61 431.493 272.77 445.73 291.47 445.73Z" fill="white"/>
</g>
</mask>
<g mask="url(#mask2_912_7292)">
<g id="Group_3">
<path id="Vector_49" d="M291.55 380.83C273.82 380.83 259.45 394.33 259.45 410.97C259.45 427.61 273.82 441.11 291.55 441.11V380.83Z" fill="#545454"/>
<path id="Vector_50" d="M291.55 413L318.21 427.78C321.734 422.894 323.633 417.024 323.64 411C323.63 407.442 322.952 403.917 321.64 400.61L291.55 412.9V413Z" fill="white"/>
</g>
</g>
</g>
<path id="Vector_51" d="M291.47 434.97C304.708 434.97 315.44 424.892 315.44 412.46C315.44 400.028 304.708 389.95 291.47 389.95C278.232 389.95 267.5 400.028 267.5 412.46C267.5 424.892 278.232 434.97 291.47 434.97Z" fill="#1F1F1F"/>
<path id="Vector_52" d="M291.47 427.06C299.771 427.06 306.5 420.739 306.5 412.94C306.5 405.142 299.771 398.82 291.47 398.82C283.169 398.82 276.44 405.142 276.44 412.94C276.44 420.739 283.169 427.06 291.47 427.06Z" fill="#383838"/>
<path id="Vector_53" d="M291.47 423.87C300.433 423.87 307.7 417.047 307.7 408.63C307.7 400.213 300.433 393.39 291.47 393.39C282.506 393.39 275.24 400.213 275.24 408.63C275.24 417.047 282.506 423.87 291.47 423.87Z" fill="white"/>
<path id="Vector_54" d="M291.47 419.93C299.274 419.93 305.6 413.989 305.6 406.66C305.6 399.331 299.274 393.39 291.47 393.39C283.666 393.39 277.34 399.331 277.34 406.66C277.34 413.989 283.666 419.93 291.47 419.93Z" fill="#AEADAB"/>
<path id="Vector_55" d="M276.86 402.89L291.47 406.66L276.86 410.42V402.89Z" fill="white"/>
<path id="Vector_56" d="M306.08 402.89L291.47 406.66L306.08 410.42V402.89Z" fill="white"/>
<path id="Vector_57" d="M113.6 182.87C132.301 182.87 147.46 168.633 147.46 151.07C147.46 133.507 132.301 119.27 113.6 119.27C94.8999 119.27 79.7402 133.507 79.7402 151.07C79.7402 168.633 94.8999 182.87 113.6 182.87Z" fill="#A8A8A8"/>
<g id="Clip path group_4">
<mask id="mask3_912_7292" style="mask-type:luminance" maskUnits="userSpaceOnUse" x="79" y="119" width="69" height="64">
<g id="clip-path-4">
<path id="Vector_58" d="M113.6 182.87C132.301 182.87 147.46 168.633 147.46 151.07C147.46 133.507 132.301 119.27 113.6 119.27C94.8999 119.27 79.7402 133.507 79.7402 151.07C79.7402 168.633 94.8999 182.87 113.6 182.87Z" fill="white"/>
</g>
</mask>
<g mask="url(#mask3_912_7292)">
<g id="Group_4">
<path id="Vector_59" d="M113.68 118C95.9503 118 81.5903 131.49 81.5903 148.14C81.5903 164.79 95.9503 178.28 113.68 178.28V118Z" fill="#545454"/>
<path id="Vector_60" d="M113.68 150.12L140.34 164.9C143.865 160.014 145.764 154.144 145.77 148.12C145.761 144.562 145.083 141.037 143.77 137.73L113.64 150.05L113.68 150.12Z" fill="white"/>
</g>
</g>
</g>
<path id="Vector_61" d="M113.6 172.12C126.838 172.12 137.57 162.042 137.57 149.61C137.57 137.178 126.838 127.1 113.6 127.1C100.362 127.1 89.6299 137.178 89.6299 149.61C89.6299 162.042 100.362 172.12 113.6 172.12Z" fill="#1F1F1F"/>
<path id="Vector_62" d="M113.6 164.2C121.901 164.2 128.63 157.878 128.63 150.08C128.63 142.282 121.901 135.96 113.6 135.96C105.299 135.96 98.5698 142.282 98.5698 150.08C98.5698 157.878 105.299 164.2 113.6 164.2Z" fill="#383838"/>
<path id="Vector_63" d="M113.6 157.1C122.564 157.1 129.83 150.277 129.83 141.86C129.83 133.443 122.564 126.62 113.6 126.62C104.637 126.62 97.3701 133.443 97.3701 141.86C97.3701 150.277 104.637 157.1 113.6 157.1Z" fill="white"/>
<path id="Vector_64" d="M113.6 153.15C121.404 153.15 127.73 147.209 127.73 139.88C127.73 132.551 121.404 126.61 113.6 126.61C105.796 126.61 99.4702 132.551 99.4702 139.88C99.4702 147.209 105.796 153.15 113.6 153.15Z" fill="#AEADAB"/>
<path id="Vector_65" d="M98.9897 136.12L113.6 139.88L98.9897 143.64V136.12Z" fill="white"/>
<path id="Vector_66" d="M128.21 136.12L113.6 139.88L128.21 143.64V136.12Z" fill="white"/>
<path id="Vector_67" d="M120.9 315.83C139.6 315.83 154.76 301.593 154.76 284.03C154.76 266.467 139.6 252.23 120.9 252.23C102.2 252.23 87.04 266.467 87.04 284.03C87.04 301.593 102.2 315.83 120.9 315.83Z" fill="#A8A8A8"/>
<g id="Clip path group_5">
<mask id="mask4_912_7292" style="mask-type:luminance" maskUnits="userSpaceOnUse" x="87" y="252" width="68" height="64">
<g id="clip-path-5">
<path id="Vector_68" d="M120.9 315.83C139.6 315.83 154.76 301.593 154.76 284.03C154.76 266.467 139.6 252.23 120.9 252.23C102.2 252.23 87.04 266.467 87.04 284.03C87.04 301.593 102.2 315.83 120.9 315.83Z" fill="white"/>
</g>
</mask>
<g mask="url(#mask4_912_7292)">
<g id="Group_5">
<path id="Vector_69" d="M121 250.93C103.28 250.93 88.9102 264.42 88.9102 281.07C88.9102 297.72 103.28 311.21 121 311.21V250.93Z" fill="#545454"/>
<path id="Vector_70" d="M121 283.08L147.66 297.85C150.469 293.975 152.26 289.457 152.868 284.709C153.477 279.962 152.882 275.138 151.14 270.68L121 283V283.08Z" fill="white"/>
</g>
</g>
</g>
<path id="Vector_71" d="M120.9 305.07C134.138 305.07 144.87 294.992 144.87 282.56C144.87 270.128 134.138 260.05 120.9 260.05C107.662 260.05 96.9302 270.128 96.9302 282.56C96.9302 294.992 107.662 305.07 120.9 305.07Z" fill="#1F1F1F"/>
<path id="Vector_72" d="M120.9 297.15C129.201 297.15 135.93 290.828 135.93 283.03C135.93 275.232 129.201 268.91 120.9 268.91C112.599 268.91 105.87 275.232 105.87 283.03C105.87 290.828 112.599 297.15 120.9 297.15Z" fill="#383838"/>
<path id="Vector_73" d="M120.9 291.84C129.863 291.84 137.13 285.017 137.13 276.6C137.13 268.183 129.863 261.36 120.9 261.36C111.936 261.36 104.67 268.183 104.67 276.6C104.67 285.017 111.936 291.84 120.9 291.84Z" fill="white"/>
<path id="Vector_74" d="M120.9 287.89C128.704 287.89 135.03 281.949 135.03 274.62C135.03 267.291 128.704 261.35 120.9 261.35C113.096 261.35 106.77 267.291 106.77 274.62C106.77 281.949 113.096 287.89 120.9 287.89Z" fill="#AEADAB"/>
<path id="Vector_75" d="M106.3 270.86L120.9 274.62L106.3 278.38V270.86Z" fill="white"/>
<path id="Vector_76" d="M135.51 270.86L120.9 274.62L135.51 278.38V270.86Z" fill="white"/>
<path id="Vector_77" d="M120.9 445.73C139.6 445.73 154.76 431.493 154.76 413.93C154.76 396.367 139.6 382.13 120.9 382.13C102.2 382.13 87.04 396.367 87.04 413.93C87.04 431.493 102.2 445.73 120.9 445.73Z" fill="#A8A8A8"/>
<g id="Clip path group_6">
<mask id="mask5_912_7292" style="mask-type:luminance" maskUnits="userSpaceOnUse" x="87" y="382" width="68" height="64">
<g id="clip-path-6">
<path id="Vector_78" d="M120.9 445.73C139.6 445.73 154.76 431.493 154.76 413.93C154.76 396.367 139.6 382.13 120.9 382.13C102.2 382.13 87.04 396.367 87.04 413.93C87.04 431.493 102.2 445.73 120.9 445.73Z" fill="white"/>
</g>
</mask>
<g mask="url(#mask5_912_7292)">
<g id="Group_6">
<path id="Vector_79" d="M121 380.83C103.28 380.83 88.9102 394.33 88.9102 410.97C88.9102 427.61 103.28 441.11 121 441.11V380.83Z" fill="#545454"/>
<path id="Vector_80" d="M121 413L147.66 427.78C150.469 423.903 152.26 419.383 152.868 414.634C153.476 409.885 152.882 405.06 151.14 400.6L121 412.9V413Z" fill="white"/>
</g>
</g>
</g>
<path id="Vector_81" d="M120.9 434.97C134.138 434.97 144.87 424.892 144.87 412.46C144.87 400.028 134.138 389.95 120.9 389.95C107.662 389.95 96.9302 400.028 96.9302 412.46C96.9302 424.892 107.662 434.97 120.9 434.97Z" fill="#1F1F1F"/>
<path id="Vector_82" d="M120.9 427.06C129.201 427.06 135.93 420.739 135.93 412.94C135.93 405.142 129.201 398.82 120.9 398.82C112.599 398.82 105.87 405.142 105.87 412.94C105.87 420.739 112.599 427.06 120.9 427.06Z" fill="#383838"/>
<path id="Vector_83" d="M120.9 423.87C129.863 423.87 137.13 417.047 137.13 408.63C137.13 400.213 129.863 393.39 120.9 393.39C111.936 393.39 104.67 400.213 104.67 408.63C104.67 417.047 111.936 423.87 120.9 423.87Z" fill="white"/>
<path id="Vector_84" d="M120.9 419.93C128.704 419.93 135.03 413.989 135.03 406.66C135.03 399.331 128.704 393.39 120.9 393.39C113.096 393.39 106.77 399.331 106.77 406.66C106.77 413.989 113.096 419.93 120.9 419.93Z" fill="#AEADAB"/>
<path id="Vector_85" d="M106.3 402.89L120.9 406.66L106.3 410.42V402.89Z" fill="white"/>
<path id="Vector_86" d="M135.51 402.89L120.9 406.66L135.51 410.42V402.89Z" fill="white"/>
<path id="Vector_87" d="M126.75 648.15H285.62C286.027 648.15 286.43 648.231 286.806 648.386C287.182 648.542 287.524 648.77 287.812 649.058C288.1 649.346 288.328 649.688 288.484 650.064C288.64 650.44 288.72 650.843 288.72 651.25V668.25H123.65V651.25C123.65 650.843 123.73 650.44 123.886 650.064C124.042 649.688 124.27 649.346 124.558 649.058C124.846 648.77 125.187 648.542 125.564 648.386C125.94 648.231 126.343 648.15 126.75 648.15Z" fill="#46464A"/>
<path id="Vector_88" d="M127.94 664H284.43C285.568 664 286.659 664.452 287.463 665.257C288.268 666.061 288.72 667.152 288.72 668.29H123.65C123.65 667.152 124.102 666.061 124.906 665.257C125.711 664.452 126.802 664 127.94 664Z" fill="#1F2021"/>
<path id="Vector_89" d="M133.19 650.04V665.47" stroke="#1F2021" stroke-width="5" stroke-miterlimit="10" stroke-linecap="round"/>
<path id="Vector_90" d="M162.4 650.04V665.47" stroke="#1F2021" stroke-width="5" stroke-miterlimit="10" stroke-linecap="round"/>
<path id="Vector_91" d="M191.4 650.04V665.47" stroke="#1F2021" stroke-width="5" stroke-miterlimit="10" stroke-linecap="round"/>
<path id="Vector_92" d="M220.6 650.04V665.47" stroke="#1F2021" stroke-width="5" stroke-miterlimit="10" stroke-linecap="round"/>
<path id="Vector_93" d="M249.5 650.04V665.47" stroke="#1F2021" stroke-width="5" stroke-miterlimit="10" stroke-linecap="round"/>
<path id="Vector_94" d="M279.18 650.04V665.47" stroke="#1F2021" stroke-width="5" stroke-miterlimit="10" stroke-linecap="round"/>
<path id="Vector_95" d="M288.55 648.15C292.55 544.07 355.32 494.46 358.86 480.9C362.29 467.74 346.12 336.19 350.02 230.22C354.08 120.01 377.23 43.2202 370.25 35.2202C363.1 27.0402 334.85 46.0702 297.63 37.7302C269.63 31.4502 236.71 1.18018 206 1.18018C175.29 1.18018 142.37 31.4502 114.37 37.7302C77.15 46.0702 50.06 25.9102 41.75 35.2202C35.17 42.6002 55.28 102.91 61.98 230.22C68.7 358 49.71 467.74 53.14 480.9C56.69 494.49 119.71 536.65 123.47 648.16" stroke="white" stroke-width="2" stroke-miterlimit="10"/>
<path id="Vector_96" d="M169.65 55.13C169.65 41.2 178.84 32.46 206 32.46C233.16 32.46 242.35 41.2 242.35 55.13C242.35 78.68 216.06 112.73 206 112.73C195.94 112.73 169.65 78.68 169.65 55.13Z" fill="#121212"/>
<path id="Vector_97" d="M200.91 72.09C204.48 75.67 205.91 91.3 206 97.28C206 91.49 207.51 75.68 211.09 72.1C214.67 68.52 231.37 67 231.37 67C231.37 67 214.67 65.49 211.1 61.91C207.53 58.33 206.1 42.71 206 36.73C206 42.52 204.49 58.33 200.92 61.91C197.35 65.49 180.62 67 180.62 67C180.62 67 197.33 68.51 200.91 72.09Z" fill="#303133"/>
</g>
<g id="&#208;&#161;&#209;&#130;&#209;&#128;&#209;&#131;&#208;&#189;&#209;&#139;">
<path id="Vector_98" d="M279.18 420.58V647.84V737" stroke="#A8A8A8" stroke-width="2" stroke-miterlimit="10" stroke-linecap="round"/>
<path id="Vector_99" d="M279.03 288.84L249.5 647.84V737" stroke="#A8A8A8" stroke-width="2" stroke-miterlimit="10" stroke-linecap="round"/>
<path id="Vector_100" d="M285.64 153.92L220.6 647.84V737" stroke="#A8A8A8" stroke-width="2" stroke-miterlimit="10" stroke-linecap="round"/>
<path id="Vector_101" d="M133.19 420.58V737" stroke="#A8A8A8" stroke-width="2" stroke-miterlimit="10" stroke-linecap="round"/>
<path id="Vector_102" d="M133.41 289.09L162.39 647.84V737" stroke="#A8A8A8" stroke-width="2" stroke-miterlimit="10" stroke-linecap="round"/>
<path id="Vector_103" d="M126.8 153.92L191.4 647.84V737" stroke="#A8A8A8" stroke-width="2" stroke-miterlimit="10" stroke-linecap="round"/>
</g>
</g>
</g>
<defs>
<clipPath id="clip0_912_7292">
<rect width="412" height="738" fill="white"/>
</clipPath>
</defs>
</svg>
