<?xml version="1.0" encoding="UTF-8"?>
<!--Generator: Apple Native CoreSVG 232.5-->
<!DOCTYPE svg
PUBLIC "-//W3C//DTD SVG 1.1//EN"
       "http://www.w3.org/Graphics/SVG/1.1/DTD/svg11.dtd">
<svg version="1.1" xmlns="http://www.w3.org/2000/svg" xmlns:xlink="http://www.w3.org/1999/xlink" width="3300" height="2200">
 <!--glyph: "", point size: 100.0, font version: "19.2d2e1", template writer version: "128"-->
 <style>.monochrome-0 {-sfsymbols-motion-group:0}

.multicolor-0:tintColor {-sfsymbols-motion-group:0}

.hierarchical-0:primary {-sfsymbols-motion-group:0}

.SFSymbolsPreviewWireframe {fill:none;opacity:1.0;stroke:black;stroke-width:0.5}
</style>
 <g id="Notes">
  <rect height="2200" id="artboard" style="fill:white;opacity:1" width="3300" x="0" y="0"/>
  <line style="fill:none;stroke:black;opacity:1;stroke-width:0.5;" x1="263" x2="3036" y1="292" y2="292"/>
  <text style="stroke:none;fill:black;font-family:sans-serif;font-size:13;font-weight:bold;" transform="matrix(1 0 0 1 263 322)">Weight/Scale Variations</text>
  <text style="stroke:none;fill:black;font-family:sans-serif;font-size:13;text-anchor:middle;" transform="matrix(1 0 0 1 559.711 322)">Ultralight</text>
  <text style="stroke:none;fill:black;font-family:sans-serif;font-size:13;text-anchor:middle;" transform="matrix(1 0 0 1 856.422 322)">Thin</text>
  <text style="stroke:none;fill:black;font-family:sans-serif;font-size:13;text-anchor:middle;" transform="matrix(1 0 0 1 1153.13 322)">Light</text>
  <text style="stroke:none;fill:black;font-family:sans-serif;font-size:13;text-anchor:middle;" transform="matrix(1 0 0 1 1449.84 322)">Regular</text>
  <text style="stroke:none;fill:black;font-family:sans-serif;font-size:13;text-anchor:middle;" transform="matrix(1 0 0 1 1746.56 322)">Medium</text>
  <text style="stroke:none;fill:black;font-family:sans-serif;font-size:13;text-anchor:middle;" transform="matrix(1 0 0 1 2043.27 322)">Semibold</text>
  <text style="stroke:none;fill:black;font-family:sans-serif;font-size:13;text-anchor:middle;" transform="matrix(1 0 0 1 2339.98 322)">Bold</text>
  <text style="stroke:none;fill:black;font-family:sans-serif;font-size:13;text-anchor:middle;" transform="matrix(1 0 0 1 2636.69 322)">Heavy</text>
  <text style="stroke:none;fill:black;font-family:sans-serif;font-size:13;text-anchor:middle;" transform="matrix(1 0 0 1 2933.4 322)">Black</text>
  <line style="fill:none;stroke:black;opacity:1;stroke-width:0.5;" x1="263" x2="3036" y1="1903" y2="1903"/>
  <g transform="matrix(0.2 0 0 0.2 263 1933)">
   <path d="m46.2402 4.15039c21.5332 0 39.4531-17.8711 39.4531-39.4043s-17.9688-39.4043-39.502-39.4043c-21.4844 0-39.3555 17.8711-39.3555 39.4043s17.9199 39.4043 39.4043 39.4043Zm0-7.42188c-17.7246 0-31.8848-14.209-31.8848-31.9824s14.1113-31.9824 31.8359-31.9824c17.7734 0 32.0312 14.209 32.0312 31.9824s-14.209 31.9824-31.9824 31.9824Zm-17.9688-31.9824c0 2.14844 1.51367 3.61328 3.75977 3.61328h10.498v10.5957c0 2.19727 1.46484 3.71094 3.61328 3.71094 2.24609 0 3.71094-1.51367 3.71094-3.71094v-10.5957h10.5957c2.19727 0 3.71094-1.46484 3.71094-3.61328 0-2.19727-1.51367-3.71094-3.71094-3.71094h-10.5957v-10.5469c0-2.24609-1.46484-3.75977-3.71094-3.75977-2.14844 0-3.61328 1.51367-3.61328 3.75977v10.5469h-10.498c-2.24609 0-3.75977 1.51367-3.75977 3.71094Z"/>
  </g>
  <g transform="matrix(0.2 0 0 0.2 281.506 1933)">
   <path d="m58.5449 14.5508c27.2461 0 49.8047-22.6074 49.8047-49.8047 0-27.2461-22.6074-49.8047-49.8535-49.8047-27.1973 0-49.7559 22.5586-49.7559 49.8047 0 27.1973 22.6074 49.8047 49.8047 49.8047Zm0-8.30078c-23.0469 0-41.4551-18.457-41.4551-41.5039s18.3594-41.5039 41.4062-41.5039 41.5527 18.457 41.5527 41.5039-18.457 41.5039-41.5039 41.5039Zm-22.6562-41.5039c0 2.39258 1.66016 4.00391 4.15039 4.00391h14.3555v14.4043c0 2.44141 1.66016 4.15039 4.05273 4.15039 2.44141 0 4.15039-1.66016 4.15039-4.15039v-14.4043h14.4043c2.44141 0 4.15039-1.61133 4.15039-4.00391 0-2.44141-1.70898-4.15039-4.15039-4.15039h-14.4043v-14.3555c0-2.49023-1.70898-4.19922-4.15039-4.19922-2.39258 0-4.05273 1.70898-4.05273 4.19922v14.3555h-14.3555c-2.49023 0-4.15039 1.70898-4.15039 4.15039Z"/>
  </g>
  <g transform="matrix(0.2 0 0 0.2 304.924 1933)">
   <path d="m74.8535 28.3203c34.8145 0 63.623-28.8086 63.623-63.5742 0-34.8145-28.8574-63.623-63.6719-63.623-34.7656 0-63.5254 28.8086-63.5254 63.623 0 34.7656 28.8086 63.5742 63.5742 63.5742Zm0-9.08203c-30.1758 0-54.4434-24.3164-54.4434-54.4922 0-30.2246 24.2188-54.4922 54.3945-54.4922 30.2246 0 54.541 24.2676 54.541 54.4922 0 30.1758-24.2676 54.4922-54.4922 54.4922Zm-28.8574-54.4922c0 2.58789 1.85547 4.39453 4.58984 4.39453h19.7266v19.7754c0 2.68555 1.85547 4.58984 4.44336 4.58984 2.68555 0 4.54102-1.85547 4.54102-4.58984v-19.7754h19.7754c2.68555 0 4.58984-1.80664 4.58984-4.39453 0-2.73438-1.85547-4.58984-4.58984-4.58984h-19.7754v-19.7266c0-2.73438-1.85547-4.63867-4.54102-4.63867-2.58789 0-4.44336 1.9043-4.44336 4.63867v19.7266h-19.7266c-2.73438 0-4.58984 1.85547-4.58984 4.58984Z"/>
  </g>
  <text style="stroke:none;fill:black;font-family:sans-serif;font-size:13;font-weight:bold;" transform="matrix(1 0 0 1 263 1953)">Design Variations</text>
  <text style="stroke:none;fill:black;font-family:sans-serif;font-size:13;" transform="matrix(1 0 0 1 263 1971)">Symbols are supported in up to nine weights and three scales.</text>
  <text style="stroke:none;fill:black;font-family:sans-serif;font-size:13;" transform="matrix(1 0 0 1 263 1989)">For optimal layout with text and other symbols, vertically align</text>
  <text style="stroke:none;fill:black;font-family:sans-serif;font-size:13;" transform="matrix(1 0 0 1 263 2007)">symbols with the adjacent text.</text>
  <line style="fill:none;stroke:#00AEEF;stroke-width:0.5;opacity:1.0;" x1="776" x2="776" y1="1919" y2="1933"/>
  <g transform="matrix(0.2 0 0 0.2 776 1933)">
   <path d="m16.5527 0.78125c2.58789 0 3.85742-0.976562 4.78516-3.71094l6.29883-17.2363h28.8086l6.29883 17.2363c0.927734 2.73438 2.19727 3.71094 4.73633 3.71094 2.58789 0 4.24805-1.5625 4.24805-4.00391 0-0.830078-0.146484-1.61133-0.537109-2.63672l-22.9004-60.9863c-1.12305-2.97852-3.125-4.49219-6.25-4.49219-3.02734 0-5.07812 1.46484-6.15234 4.44336l-22.9004 61.084c-0.390625 1.02539-0.537109 1.80664-0.537109 2.63672 0 2.44141 1.5625 3.95508 4.10156 3.95508Zm13.4766-28.3691 11.8652-32.8613h0.244141l11.8652 32.8613Z"/>
  </g>
  <line style="fill:none;stroke:#00AEEF;stroke-width:0.5;opacity:1.0;" x1="792.836" x2="792.836" y1="1919" y2="1933"/>
  <text style="stroke:none;fill:black;font-family:sans-serif;font-size:13;font-weight:bold;" transform="matrix(1 0 0 1 776 1953)">Margins</text>
  <text style="stroke:none;fill:black;font-family:sans-serif;font-size:13;" transform="matrix(1 0 0 1 776 1971)">Leading and trailing margins on the left and right side of each symbol</text>
  <text style="stroke:none;fill:black;font-family:sans-serif;font-size:13;" transform="matrix(1 0 0 1 776 1989)">can be adjusted by modifying the x-location of the margin guidelines.</text>
  <text style="stroke:none;fill:black;font-family:sans-serif;font-size:13;" transform="matrix(1 0 0 1 776 2007)">Modifications are automatically applied proportionally to all</text>
  <text style="stroke:none;fill:black;font-family:sans-serif;font-size:13;" transform="matrix(1 0 0 1 776 2025)">scales and weights.</text>
  <g transform="matrix(0.2 0 0 0.2 1289 1933)">
   <path d="m14.209 9.32617 8.49609 8.54492c4.29688 4.3457 9.22852 4.05273 13.8672-1.07422l53.4668-58.9355-4.83398-4.88281-53.0762 58.3984c-1.75781 2.00195-3.41797 2.49023-5.76172 0.146484l-5.85938-5.81055c-2.34375-2.29492-1.80664-4.00391 0.195312-5.81055l57.373-54.0039-4.88281-4.83398-57.959 54.4434c-4.93164 4.58984-5.32227 9.47266-1.02539 13.8184Zm32.0801-90.9668c-2.09961 2.05078-2.24609 4.93164-1.07422 6.88477 1.17188 1.80664 3.4668 2.97852 6.68945 2.14844 7.32422-1.70898 14.9414-2.00195 22.0703 2.68555l-2.92969 7.27539c-1.70898 4.15039-0.830078 7.08008 1.85547 9.81445l11.4746 11.5723c2.44141 2.44141 4.49219 2.53906 7.32422 2.05078l5.32227-0.976562 3.32031 3.36914-0.195312 2.7832c-0.195312 2.49023 0.439453 4.39453 2.88086 6.78711l3.80859 3.71094c2.39258 2.39258 5.46875 2.53906 7.8125 0.195312l14.5508-14.5996c2.34375-2.34375 2.24609-5.32227-0.146484-7.71484l-3.85742-3.80859c-2.39258-2.39258-4.24805-3.17383-6.64062-2.97852l-2.88086 0.244141-3.22266-3.17383 1.2207-5.61523c0.634766-2.83203-0.146484-5.0293-3.07617-7.95898l-10.9863-10.9375c-16.6992-16.6016-38.8672-16.2109-53.3203-1.75781Zm7.4707 1.85547c12.1582-8.88672 28.6133-7.37305 39.7461 3.75977l12.1582 12.0605c1.17188 1.17188 1.36719 2.09961 1.02539 3.80859l-1.61133 7.42188 7.51953 7.42188 4.93164-0.292969c1.26953-0.0488281 1.66016 0.0488281 2.63672 1.02539l2.88086 2.88086-12.207 12.207-2.88086-2.88086c-0.976562-0.976562-1.12305-1.36719-1.07422-2.68555l0.341797-4.88281-7.4707-7.42188-7.61719 1.26953c-1.61133 0.341797-2.34375 0.195312-3.56445-0.976562l-10.0098-10.0098c-1.26953-1.17188-1.41602-2.00195-0.634766-3.85742l4.39453-10.4492c-7.8125-7.27539-17.9688-10.4004-28.125-7.42188-0.78125 0.195312-1.07422-0.439453-0.439453-0.976562Z"/>
  </g>
  <text style="stroke:none;fill:black;font-family:sans-serif;font-size:13;font-weight:bold;" transform="matrix(1 0 0 1 1289 1953)">Exporting</text>
  <text style="stroke:none;fill:black;font-family:sans-serif;font-size:13;" transform="matrix(1 0 0 1 1289 1971)">Symbols should be outlined when exporting to ensure the</text>
  <text style="stroke:none;fill:black;font-family:sans-serif;font-size:13;" transform="matrix(1 0 0 1 1289 1989)">design is preserved when submitting to Xcode.</text>
  <text id="template-version" style="stroke:none;fill:black;font-family:sans-serif;font-size:13;text-anchor:end;" transform="matrix(1 0 0 1 3036 1933)">Template v.5.0</text>
  <text style="stroke:none;fill:black;font-family:sans-serif;font-size:13;text-anchor:end;" transform="matrix(1 0 0 1 3036 1951)">Requires Xcode 15 or greater</text>
  <text id="descriptive-name" style="stroke:none;fill:black;font-family:sans-serif;font-size:13;text-anchor:end;" transform="matrix(1 0 0 1 3036 1969)">Generated from custom.sound.cloud_1</text>
  <text style="stroke:none;fill:black;font-family:sans-serif;font-size:13;text-anchor:end;" transform="matrix(1 0 0 1 3036 1987)">Typeset at 100.0 points</text>
  <text style="stroke:none;fill:black;font-family:sans-serif;font-size:13;" transform="matrix(1 0 0 1 263 726)">Small</text>
  <text style="stroke:none;fill:black;font-family:sans-serif;font-size:13;" transform="matrix(1 0 0 1 263 1156)">Medium</text>
  <text style="stroke:none;fill:black;font-family:sans-serif;font-size:13;" transform="matrix(1 0 0 1 263 1586)">Large</text>
 </g>
 <g id="Guides">
  <g id="H-reference" style="fill:#27AAE1;stroke:none;" transform="matrix(1 0 0 1 339 696)">
   <path d="M0.993654 0L3.63775 0L29.3281-67.1323L30.0303-67.1323L30.0303-70.459L28.1226-70.459ZM11.6885-24.4799L46.9815-24.4799L46.2315-26.7285L12.4385-26.7285ZM55.1196 0L57.7637 0L30.6382-70.459L29.4326-70.459L29.4326-67.1323Z"/>
  </g>
  <line id="Baseline-S" style="fill:none;stroke:#27AAE1;opacity:1;stroke-width:0.5;" x1="263" x2="3036" y1="696" y2="696"/>
  <line id="Capline-S" style="fill:none;stroke:#27AAE1;opacity:1;stroke-width:0.5;" x1="263" x2="3036" y1="625.541" y2="625.541"/>
  <g id="H-reference" style="fill:#27AAE1;stroke:none;" transform="matrix(1 0 0 1 339 1126)">
   <path d="M0.993654 0L3.63775 0L29.3281-67.1323L30.0303-67.1323L30.0303-70.459L28.1226-70.459ZM11.6885-24.4799L46.9815-24.4799L46.2315-26.7285L12.4385-26.7285ZM55.1196 0L57.7637 0L30.6382-70.459L29.4326-70.459L29.4326-67.1323Z"/>
  </g>
  <line id="Baseline-M" style="fill:none;stroke:#27AAE1;opacity:1;stroke-width:0.5;" x1="263" x2="3036" y1="1126" y2="1126"/>
  <line id="Capline-M" style="fill:none;stroke:#27AAE1;opacity:1;stroke-width:0.5;" x1="263" x2="3036" y1="1055.54" y2="1055.54"/>
  <g id="H-reference" style="fill:#27AAE1;stroke:none;" transform="matrix(1 0 0 1 339 1556)">
   <path d="M0.993654 0L3.63775 0L29.3281-67.1323L30.0303-67.1323L30.0303-70.459L28.1226-70.459ZM11.6885-24.4799L46.9815-24.4799L46.2315-26.7285L12.4385-26.7285ZM55.1196 0L57.7637 0L30.6382-70.459L29.4326-70.459L29.4326-67.1323Z"/>
  </g>
  <line id="Baseline-L" style="fill:none;stroke:#27AAE1;opacity:1;stroke-width:0.5;" x1="263" x2="3036" y1="1556" y2="1556"/>
  <line id="Capline-L" style="fill:none;stroke:#27AAE1;opacity:1;stroke-width:0.5;" x1="263" x2="3036" y1="1485.54" y2="1485.54"/>
  <line id="left-margin-Ultralight-S" style="fill:none;stroke:#00AEEF;stroke-width:0.5;opacity:1.0;" x1="515.649" x2="515.649" y1="600.785" y2="720.121"/>
  <line id="right-margin-Ultralight-S" style="fill:none;stroke:#00AEEF;stroke-width:0.5;opacity:1.0;" x1="603.773" x2="603.773" y1="600.785" y2="720.121"/>
  <line id="left-margin-Regular-S" style="fill:none;stroke:#00AEEF;stroke-width:0.5;opacity:1.0;" x1="1403.58" x2="1403.58" y1="600.785" y2="720.121"/>
  <line id="right-margin-Regular-S" style="fill:none;stroke:#00AEEF;stroke-width:0.5;opacity:1.0;" x1="1496.11" x2="1496.11" y1="600.785" y2="720.121"/>
  <line id="left-margin-Black-S" style="fill:none;stroke:#00AEEF;stroke-width:0.5;opacity:1.0;" x1="2884.57" x2="2884.57" y1="600.785" y2="720.121"/>
  <line id="right-margin-Black-S" style="fill:none;stroke:#00AEEF;stroke-width:0.5;opacity:1.0;" x1="2982.23" x2="2982.23" y1="600.785" y2="720.121"/>
 </g>
 <g id="Symbols">
  <g id="Black-S" transform="matrix(1 0 0 1 2884.57 696)">
   <path class="monochrome-0 multicolor-0:tintColor hierarchical-0:primary SFSymbolsPreviewWireframe" d="M87.885-35.775C87.885-15.2162 71.2188 1.45 50.66 1.45C30.1012 1.45 13.435-15.2162 13.435-35.775C13.435-56.3338 30.1012-73 50.66-73C71.2188-73 87.885-56.3338 87.885-35.775ZM25.14-25.282C25.25-25.282 25.35-25.374 25.37-25.505L25.99-30.359L25.37-35.323C25.35-35.453 25.25-35.547 25.14-35.547C25.02-35.547 24.92-35.451 24.9-35.323L24.35-30.359L24.9-25.506C24.92-25.376 25.02-25.282 25.14-25.282ZM23.06-27.128C23.18-27.128 23.27-27.214 23.29-27.342L23.77-30.359L23.29-33.431C23.27-33.556 23.18-33.646 23.06-33.646C22.95-33.646 22.85-33.556 22.84-33.43L22.43-30.359L22.84-27.343C22.85-27.216 22.95-27.128 23.06-27.128ZM27.61-36.247C27.6-36.405 27.48-36.52 27.33-36.52C27.19-36.52 27.07-36.405 27.05-36.247L26.53-30.359L27.05-24.685C27.07-24.528 27.19-24.415 27.33-24.415C27.48-24.415 27.6-24.528 27.61-24.685L28.21-30.359L27.61-36.247ZM29.55-24.186C29.72-24.186 29.86-24.324 29.88-24.505L30.44-30.357L29.88-36.409C29.86-36.591 29.72-36.728 29.55-36.728C29.38-36.728 29.24-36.591 29.22-36.408L28.73-30.357L29.22-24.505C29.24-24.324 29.38-24.186 29.55-24.186ZM31.79-24.091C31.99-24.091 32.15-24.248 32.17-24.457L32.16-24.456L32.69-30.357L32.16-35.972C32.15-36.178 31.99-36.337 31.79-36.337C31.58-36.337 31.42-36.178 31.41-35.971L30.94-30.357L31.41-24.457C31.42-24.248 31.58-24.091 31.79-24.091ZM34.96-30.355L34.47-39.486C34.45-39.717 34.27-39.902 34.04-39.902C33.81-39.902 33.63-39.718 33.62-39.486L33.18-30.355L33.62-24.456C33.63-24.223 33.81-24.041 34.04-24.041C34.27-24.041 34.45-24.223 34.47-24.456L34.47-24.454L34.96-30.355ZM36.32-24.031C36.57-24.031 36.77-24.233 36.78-24.492L36.78-24.488L37.25-30.354L36.78-41.575C36.77-41.833 36.57-42.035 36.32-42.035C36.06-42.035 35.85-41.833 35.84-41.575L35.43-30.354L35.84-24.49C35.85-24.233 36.06-24.031 36.32-24.031ZM38.6-43.018C38.32-43.018 38.1-42.793 38.08-42.509L37.7-30.352L38.08-24.549C38.1-24.267 38.32-24.043 38.6-24.043C38.88-24.043 39.11-24.265 39.12-24.55L39.12-24.547L39.55-30.352L39.12-42.509C39.11-42.795 38.88-43.018 38.6-43.018ZM40.91-24.031C41.22-24.031 41.47-24.274 41.48-24.587L41.48-24.584L41.88-30.352L41.48-42.917C41.47-43.229 41.22-43.473 40.91-43.473C40.6-43.473 40.35-43.229 40.35-42.917L39.99-30.352L40.35-24.584C40.35-24.274 40.6-24.031 40.91-24.031ZM43.24-24.037C43.57-24.037 43.84-24.303 43.85-24.641L43.85-24.636L44.22-30.351L43.85-42.597C43.84-42.934 43.57-43.199 43.24-43.199C42.9-43.199 42.63-42.934 42.62-42.597L42.3-30.351L42.62-24.638C42.63-24.303 42.9-24.037 43.24-24.037ZM46.58-30.351L46.25-42.15C46.24-42.514 45.95-42.8 45.58-42.8C45.22-42.8 44.93-42.514 44.92-42.148L44.62-30.351L44.92-24.673C44.93-24.312 45.22-24.026 45.58-24.026C45.94-24.026 46.24-24.312 46.25-24.678L46.25-24.673L46.58-30.351ZM47.94-24.015C48.33-24.015 48.65-24.328 48.65-24.712L48.65-24.709L48.96-30.348L48.65-44.389C48.65-44.774 48.33-45.086 47.94-45.086C47.56-45.086 47.24-44.773 47.23-44.387L46.97-30.353L47.23-24.709C47.24-24.328 47.56-24.015 47.94-24.015ZM50.3-46.407C49.88-46.407 49.54-46.071 49.54-45.661L49.23-30.346L49.54-24.791C49.54-24.386 49.88-24.05 50.3-24.05C50.71-24.05 51.05-24.386 51.05-24.797L51.05-24.791L51.39-30.346L51.05-45.661C51.05-46.072 50.71-46.407 50.3-46.407ZM52.45-24.01C52.47-24.009 71.42-24 71.54-24C75.35-24 78.43-27.043 78.43-30.799C78.43-34.552 75.35-37.596 71.54-37.596C70.6-37.596 69.7-37.408 68.88-37.067C68.33-43.194 63.12-48 56.77-48C55.22-48 53.71-47.698 52.37-47.187C51.85-46.988 51.71-46.784 51.7-46.387L51.7-24.815C51.71-24.398 52.04-24.052 52.45-24.01Z"/>
  </g>
  <g id="Regular-S" transform="matrix(1 0 0 1 1403.58 696)">
   <path class="monochrome-0 multicolor-0:tintColor hierarchical-0:primary SFSymbolsPreviewWireframe" d="M83.865-35.775C83.865-15.2162 67.1988 1.45 46.64 1.45C26.0812 1.45 9.415-15.2162 9.415-35.775C9.415-56.3338 26.0812-73 46.64-73C67.1988-73 83.865-56.3338 83.865-35.775ZM21.13-25.282C21.24-25.282 21.34-25.374 21.36-25.505L21.98-30.359L21.36-35.323C21.34-35.453 21.24-35.547 21.13-35.547C21.01-35.547 20.91-35.451 20.89-35.323L20.34-30.359L20.89-25.506C20.91-25.376 21.01-25.282 21.13-25.282ZM19.05-27.128C19.17-27.128 19.26-27.214 19.28-27.342L19.76-30.359L19.28-33.431C19.26-33.556 19.17-33.646 19.05-33.646C18.94-33.646 18.84-33.556 18.83-33.43L18.42-30.359L18.83-27.343C18.84-27.216 18.94-27.128 19.05-27.128ZM23.6-36.247C23.59-36.405 23.47-36.52 23.32-36.52C23.18-36.52 23.06-36.405 23.04-36.247L22.52-30.359L23.04-24.685C23.06-24.528 23.18-24.415 23.32-24.415C23.47-24.415 23.59-24.528 23.6-24.685L24.2-30.359L23.6-36.247ZM25.54-24.186C25.71-24.186 25.85-24.324 25.87-24.505L26.43-30.357L25.87-36.409C25.85-36.591 25.71-36.728 25.54-36.728C25.37-36.728 25.23-36.591 25.21-36.408L24.72-30.357L25.21-24.505C25.23-24.324 25.37-24.186 25.54-24.186ZM27.78-24.091C27.98-24.091 28.14-24.248 28.16-24.457L28.15-24.456L28.68-30.357L28.15-35.972C28.14-36.178 27.98-36.337 27.78-36.337C27.57-36.337 27.41-36.178 27.4-35.971L26.93-30.357L27.4-24.457C27.41-24.248 27.57-24.091 27.78-24.091ZM30.95-30.355L30.46-39.486C30.44-39.717 30.26-39.902 30.03-39.902C29.8-39.902 29.62-39.718 29.61-39.486L29.17-30.355L29.61-24.456C29.62-24.223 29.8-24.041 30.03-24.041C30.26-24.041 30.44-24.223 30.46-24.456L30.46-24.454L30.95-30.355ZM32.31-24.031C32.56-24.031 32.76-24.233 32.77-24.492L32.77-24.488L33.24-30.354L32.77-41.575C32.76-41.833 32.56-42.035 32.31-42.035C32.05-42.035 31.84-41.833 31.83-41.575L31.42-30.354L31.83-24.49C31.84-24.233 32.05-24.031 32.31-24.031ZM34.59-43.018C34.31-43.018 34.09-42.793 34.07-42.509L33.69-30.352L34.07-24.549C34.09-24.267 34.31-24.043 34.59-24.043C34.87-24.043 35.1-24.265 35.11-24.55L35.11-24.547L35.54-30.352L35.11-42.509C35.1-42.795 34.87-43.018 34.59-43.018ZM36.9-24.031C37.21-24.031 37.46-24.274 37.47-24.587L37.47-24.584L37.87-30.352L37.47-42.917C37.46-43.229 37.21-43.473 36.9-43.473C36.59-43.473 36.34-43.229 36.34-42.917L35.98-30.352L36.34-24.584C36.34-24.274 36.59-24.031 36.9-24.031ZM39.23-24.037C39.56-24.037 39.83-24.303 39.84-24.641L39.84-24.636L40.21-30.351L39.84-42.597C39.83-42.934 39.56-43.199 39.23-43.199C38.89-43.199 38.62-42.934 38.61-42.597L38.29-30.351L38.61-24.638C38.62-24.303 38.89-24.037 39.23-24.037ZM42.57-30.351L42.24-42.15C42.23-42.514 41.94-42.8 41.57-42.8C41.21-42.8 40.92-42.514 40.91-42.148L40.61-30.351L40.91-24.673C40.92-24.312 41.21-24.026 41.57-24.026C41.93-24.026 42.23-24.312 42.24-24.678L42.24-24.673L42.57-30.351ZM43.93-24.015C44.32-24.015 44.64-24.328 44.64-24.712L44.64-24.709L44.95-30.348L44.64-44.389C44.64-44.774 44.32-45.086 43.93-45.086C43.55-45.086 43.23-44.773 43.22-44.387L42.96-30.353L43.22-24.709C43.23-24.328 43.55-24.015 43.93-24.015ZM46.29-46.407C45.87-46.407 45.53-46.071 45.53-45.661L45.22-30.346L45.53-24.791C45.53-24.386 45.87-24.05 46.29-24.05C46.7-24.05 47.04-24.386 47.04-24.797L47.04-24.791L47.38-30.346L47.04-45.661C47.04-46.072 46.7-46.407 46.29-46.407ZM48.44-24.01C48.46-24.009 67.41-24 67.53-24C71.34-24 74.42-27.043 74.42-30.799C74.42-34.552 71.34-37.596 67.53-37.596C66.59-37.596 65.69-37.408 64.87-37.067C64.32-43.194 59.11-48 52.76-48C51.21-48 49.7-47.698 48.36-47.187C47.84-46.988 47.7-46.784 47.69-46.387L47.69-24.815C47.7-24.398 48.03-24.052 48.44-24.01Z"/>
  </g>
  <g id="Ultralight-S" transform="matrix(1 0 0 1 515.649 696)">
   <path class="monochrome-0 multicolor-0:tintColor hierarchical-0:primary SFSymbolsPreviewWireframe" d="M81.801-35.775C81.801-15.2162 65.1348 1.45 44.576 1.45C24.0172 1.45 7.351-15.2162 7.351-35.775C7.351-56.3338 24.0172-73 44.576-73C65.1348-73 81.801-56.3338 81.801-35.775ZM19.056-25.282C19.172-25.282 19.27-25.374 19.286-25.505L19.914-30.359L19.288-35.323C19.269-35.453 19.172-35.547 19.056-35.547C18.938-35.547 18.837-35.451 18.821-35.323L18.272-30.359L18.821-25.506C18.837-25.376 18.938-25.282 19.056-25.282ZM16.985-27.128C17.099-27.128 17.191-27.214 17.207-27.342L17.694-30.359L17.207-33.431C17.19-33.556 17.099-33.646 16.985-33.646C16.867-33.646 16.775-33.556 16.758-33.43L16.351-30.359L16.758-27.343C16.775-27.216 16.867-27.128 16.985-27.128ZM21.533-36.247C21.518-36.405 21.4-36.52 21.253-36.52C21.107-36.52 20.988-36.405 20.974-36.247L20.45-30.359L20.974-24.685C20.988-24.528 21.107-24.415 21.253-24.415C21.4-24.415 21.518-24.528 21.533-24.685L22.127-30.359L21.533-36.247ZM23.473-24.186C23.645-24.186 23.784-24.324 23.801-24.505L24.362-30.357L23.801-36.409C23.784-36.591 23.645-36.728 23.473-36.728C23.298-36.728 23.157-36.591 23.145-36.408L22.649-30.357L23.145-24.505C23.157-24.324 23.298-24.186 23.473-24.186ZM25.708-24.091C25.909-24.091 26.069-24.248 26.086-24.457L26.084-24.456L26.612-30.357L26.084-35.972C26.069-36.178 25.909-36.337 25.708-36.337C25.504-36.337 25.344-36.178 25.332-35.971L24.865-30.357L25.332-24.457C25.345-24.248 25.505-24.091 25.708-24.091ZM28.882-30.355L28.387-39.486C28.373-39.717 28.188-39.902 27.961-39.902C27.736-39.902 27.551-39.718 27.537-39.486L27.099-30.355L27.537-24.456C27.551-24.223 27.736-24.041 27.961-24.041C28.188-24.041 28.373-24.223 28.387-24.456L28.387-24.454L28.882-30.355ZM30.236-24.031C30.486-24.031 30.694-24.233 30.706-24.492L30.706-24.488L31.169-30.354L30.706-41.575C30.694-41.833 30.486-42.035 30.236-42.035C29.981-42.035 29.775-41.833 29.761-41.575L29.353-30.354L29.763-24.49C29.775-24.233 29.981-24.031 30.236-24.031ZM32.525-43.018C32.243-43.018 32.016-42.793 32.005-42.509L31.625-30.352L32.005-24.549C32.016-24.267 32.243-24.043 32.525-24.043C32.806-24.043 33.034-24.265 33.044-24.55L33.044-24.547L33.475-30.352L33.044-42.509C33.034-42.795 32.805-43.018 32.525-43.018ZM34.833-24.031C35.142-24.031 35.388-24.274 35.4-24.587L35.4-24.584L35.798-30.352L35.4-42.917C35.388-43.229 35.142-43.473 34.833-43.473C34.522-43.473 34.272-43.229 34.267-42.917L33.909-30.352L34.267-24.584C34.272-24.274 34.522-24.031 34.833-24.031ZM37.16-24.037C37.494-24.037 37.764-24.303 37.774-24.641L37.774-24.636L38.141-30.351L37.774-42.597C37.764-42.934 37.494-43.199 37.16-43.199C36.824-43.199 36.553-42.934 36.544-42.597L36.222-30.351L36.546-24.638C36.553-24.303 36.824-24.037 37.16-24.037ZM40.498-30.351L40.166-42.15C40.158-42.514 39.866-42.8 39.504-42.8C39.14-42.8 38.848-42.514 38.84-42.148L38.542-30.351L38.84-24.673C38.848-24.312 39.14-24.026 39.504-24.026C39.866-24.026 40.158-24.312 40.166-24.678L40.166-24.673L40.498-30.351ZM41.865-24.015C42.25-24.015 42.569-24.328 42.575-24.712L42.575-24.709L42.876-30.348L42.575-44.389C42.57-44.774 42.251-45.086 41.865-45.086C41.48-45.086 41.162-44.773 41.154-44.387L40.886-30.353L41.154-24.709C41.162-24.328 41.48-24.015 41.865-24.015ZM44.219-46.407C43.803-46.407 43.465-46.071 43.458-45.661L43.147-30.346L43.46-24.791C43.465-24.386 43.803-24.05 44.219-24.05C44.628-24.05 44.972-24.386 44.974-24.797L44.974-24.791L45.314-30.346L44.974-45.661C44.972-46.072 44.628-46.407 44.219-46.407ZM46.371-24.01C46.388-24.009 65.341-24 65.462-24C69.267-24 72.351-27.043 72.351-30.799C72.351-34.552 69.267-37.596 65.462-37.596C64.518-37.596 63.618-37.408 62.798-37.067C62.252-43.194 57.045-48 50.694-48C49.141-48 47.627-47.698 46.29-47.187C45.769-46.988 45.63-46.784 45.626-46.387L45.626-24.815C45.632-24.398 45.958-24.052 46.371-24.01Z"/>
  </g>
 </g>
</svg>
