<svg width="412" height="640" viewBox="0 0 412 640" fill="none" xmlns="http://www.w3.org/2000/svg">
<g id="Ukulele" clip-path="url(#clip0_912_8105)">
<g id="&#208;&#154;&#208;&#190;&#208;&#187;&#208;&#186;&#208;&#184;">
<path id="Vector" d="M381.047 389.77C398.036 389.77 411.807 372.113 411.807 350.332C411.807 328.551 398.036 310.894 381.047 310.894C364.059 310.894 350.288 328.551 350.288 350.332C350.288 372.113 364.059 389.77 381.047 389.77Z" fill="#3B3B3D"/>
<path id="Vector_2" d="M381.047 389.778C398.036 389.778 411.816 372.115 411.816 350.332H350.288C350.288 372.115 364.059 389.778 381.047 389.778Z" fill="#313133"/>
<path id="Vector_3" d="M355.503 359.808V340.873H319.861V359.808H355.503Z" fill="#3B3B3D"/>
<path id="Vector_4" d="M355.503 359.799V350.332H319.861V359.799H355.503Z" fill="#313133"/>
<path id="Vector_5" d="M381.047 213.872C398.036 213.872 411.807 196.215 411.807 174.434C411.807 152.653 398.036 134.996 381.047 134.996C364.059 134.996 350.288 152.653 350.288 174.434C350.288 196.215 364.059 213.872 381.047 213.872Z" fill="#3B3B3D"/>
<path id="Vector_6" d="M381.047 213.889C398.036 213.889 411.816 196.235 411.816 174.443H350.288C350.288 196.217 364.059 213.889 381.047 213.889Z" fill="#313133"/>
<path id="Vector_7" d="M355.503 183.91V164.975H319.861V183.91H355.503Z" fill="#3B3B3D"/>
<path id="Vector_8" d="M355.503 183.901V174.434H319.861V183.901H355.503Z" fill="#313133"/>
<path id="Vector_9" d="M31.0488 389.77C48.0369 389.77 61.8085 372.113 61.8085 350.332C61.8085 328.551 48.0369 310.894 31.0488 310.894C14.0607 310.894 0.289062 328.551 0.289062 350.332C0.289062 372.113 14.0607 389.77 31.0488 389.77Z" fill="#3B3B3D"/>
<path id="Vector_10" d="M31.0488 389.778C14.0516 389.778 0.280273 372.115 0.280273 350.332H61.8085C61.8085 372.115 48.0372 389.778 31.0488 389.778Z" fill="#313133"/>
<path id="Vector_11" d="M92.2441 359.808V340.873H56.6018V359.808H92.2441Z" fill="#3B3B3D"/>
<path id="Vector_12" d="M92.2441 359.808V350.34H56.6018V359.808H92.2441Z" fill="#313133"/>
<path id="Vector_13" d="M31.0488 213.872C48.0369 213.872 61.8085 196.215 61.8085 174.434C61.8085 152.653 48.0369 134.996 31.0488 134.996C14.0607 134.996 0.289062 152.653 0.289062 174.434C0.289062 196.215 14.0607 213.872 31.0488 213.872Z" fill="#3B3B3D"/>
<path id="Vector_14" d="M31.0488 213.889C14.0516 213.889 0.280273 196.235 0.280273 174.443H61.8085C61.8085 196.217 48.0372 213.889 31.0488 213.889Z" fill="#313133"/>
<path id="Vector_15" d="M92.2441 183.91V164.975H56.6018V183.91H92.2441Z" fill="#3B3B3D"/>
<path id="Vector_16" d="M92.2441 183.91V174.443H56.6018V183.91H92.2441Z" fill="#313133"/>
</g>
<g id="&#208;&#147;&#209;&#128;&#208;&#184;&#209;&#132;">
<path id="Vector_17" d="M72.5746 405.099C72.5746 405.099 70.4328 418.298 73.0816 429.14C75.3283 438.308 102.437 459.763 111.398 476.205C121.643 494.996 126.854 514.768 126.854 535.294V638.924H284.323V535.294C284.323 514.742 289.568 494.978 299.779 476.205C308.739 459.763 335.84 438.308 338.095 429.14C340.718 418.298 338.095 403.399 338.095 403.399L72.5746 405.099Z" fill="#1F2021"/>
<path id="Vector_18" d="M356.716 67.3195C353.7 62.6218 341.181 66.5395 328.925 55.9258C317.114 45.7153 318.12 31.4644 314.361 26.8455C310.602 22.2267 274.646 0.762695 205.584 0.762695C136.522 0.762695 100.567 22.253 96.8164 26.8631C93.0661 31.4731 94.0627 45.7328 82.2523 55.9433C70.0135 66.5395 57.4775 62.6218 54.4615 67.337C48.954 75.9174 88.6776 151.957 88.6776 255.561C88.6776 363.661 70.4331 397.544 73.0819 408.386C75.3286 417.545 102.438 439 111.398 455.442C121.644 474.233 126.854 494.005 126.854 514.531V638.924H284.323V514.47C284.323 493.918 289.568 474.154 299.779 455.381C308.74 438.982 335.84 417.527 338.095 408.368C340.718 397.527 322.5 363.67 322.5 255.544C322.5 151.94 362.223 75.8998 356.716 67.3195Z" fill="#303133"/>
<path id="Vector_19" d="M175.547 49.3876C175.547 37.8449 183.144 30.6143 205.593 30.6143C228.042 30.6143 235.631 37.8449 235.631 49.3876C235.631 68.9059 213.907 97.1185 205.593 97.1185C197.279 97.1185 175.547 68.9059 175.547 49.3876Z" fill="#121212"/>
<path id="Vector_20" d="M201.379 63.4455C204.334 66.4078 205.532 79.3616 205.593 84.3135C205.593 79.5194 206.834 66.4254 209.798 63.4542C212.761 60.4831 226.565 59.2385 226.565 59.2385C226.565 59.2385 212.77 57.9852 209.807 55.0229C206.843 52.0605 205.645 39.1155 205.584 34.1812C205.584 38.9753 204.343 52.078 201.388 55.0404C198.433 58.0028 184.604 59.2385 184.604 59.2385C184.604 59.2385 198.425 60.4743 201.379 63.4455Z" fill="#303133"/>
<path id="Vector_21" d="M132.842 205.604C151.918 205.604 167.382 191.042 167.382 173.079C167.382 155.116 151.918 140.555 132.842 140.555C113.767 140.555 98.3027 155.116 98.3027 173.079C98.3027 191.042 113.767 205.604 132.842 205.604Z" fill="#A8A8A8"/>
<g id="Clip path group">
<mask id="mask0_912_8105" style="mask-type:luminance" maskUnits="userSpaceOnUse" x="98" y="140" width="70" height="66">
<g id="clip-path">
<path id="Vector_22" d="M132.842 205.604C151.918 205.604 167.382 191.042 167.382 173.079C167.382 155.116 151.918 140.555 132.842 140.555C113.767 140.555 98.3027 155.116 98.3027 173.079C98.3027 191.042 113.767 205.604 132.842 205.604Z" fill="white"/>
</g>
</mask>
<g mask="url(#mask0_912_8105)">
<g id="Group">
<path id="Vector_23" d="M132.921 139.223C114.842 139.223 100.182 153.027 100.182 170.056C100.182 187.085 114.842 200.889 132.921 200.889V139.223Z" fill="#545454"/>
<path id="Vector_24" d="M132.921 172.107L160.126 187.225C162.993 183.261 164.821 178.637 165.441 173.779C166.061 168.922 165.454 163.986 163.675 159.425L132.93 172.028L132.921 172.107Z" fill="white"/>
</g>
</g>
</g>
<path id="Vector_25" d="M132.842 194.605C146.351 194.605 157.302 184.297 157.302 171.581C157.302 158.865 146.351 148.557 132.842 148.557C119.333 148.557 108.382 158.865 108.382 171.581C108.382 184.297 119.333 194.605 132.842 194.605Z" fill="#1F1F1F"/>
<path id="Vector_26" d="M132.842 186.506C141.311 186.506 148.176 180.04 148.176 172.063C148.176 164.086 141.311 157.619 132.842 157.619C124.374 157.619 117.509 164.086 117.509 172.063C117.509 180.04 124.374 186.506 132.842 186.506Z" fill="#383838"/>
<path id="Vector_27" d="M132.842 180.398C141.987 180.398 149.4 173.417 149.4 164.806C149.4 156.195 141.987 149.214 132.842 149.214C123.698 149.214 116.285 156.195 116.285 164.806C116.285 173.417 123.698 180.398 132.842 180.398Z" fill="white"/>
<path id="Vector_28" d="M132.842 176.348C140.804 176.348 147.258 170.274 147.258 162.781C147.258 155.288 140.804 149.214 132.842 149.214C124.881 149.214 118.427 155.288 118.427 162.781C118.427 170.274 124.881 176.348 132.842 176.348Z" fill="#AEADAB"/>
<path id="Vector_29" d="M117.937 158.934L132.842 162.781L117.937 166.629V158.934Z" fill="white"/>
<path id="Vector_30" d="M147.747 158.934L132.842 162.781L147.747 166.629V158.934Z" fill="white"/>
<path id="Vector_31" d="M132.842 387.667C151.918 387.667 167.382 373.105 167.382 355.142C167.382 337.179 151.918 322.617 132.842 322.617C113.767 322.617 98.3027 337.179 98.3027 355.142C98.3027 373.105 113.767 387.667 132.842 387.667Z" fill="#A8A8A8"/>
<g id="Clip path group_2">
<mask id="mask1_912_8105" style="mask-type:luminance" maskUnits="userSpaceOnUse" x="98" y="322" width="70" height="66">
<g id="clip-path-2">
<path id="Vector_32" d="M132.842 387.667C151.918 387.667 167.382 373.105 167.382 355.142C167.382 337.179 151.918 322.617 132.842 322.617C113.767 322.617 98.3027 337.179 98.3027 355.142C98.3027 373.105 113.767 387.667 132.842 387.667Z" fill="white"/>
</g>
</mask>
<g mask="url(#mask1_912_8105)">
<g id="Group_2">
<path id="Vector_33" d="M132.921 321.294C114.842 321.294 100.182 335.089 100.182 352.119C100.182 369.148 114.842 382.952 132.921 382.952V321.294Z" fill="#545454"/>
<path id="Vector_34" d="M132.921 354.169L160.126 369.288C163.729 364.291 165.671 358.284 165.677 352.119C165.679 348.483 165 344.88 163.675 341.496L132.921 354.082V354.169Z" fill="white"/>
</g>
</g>
</g>
<path id="Vector_35" d="M132.842 376.667C146.351 376.667 157.302 366.359 157.302 353.643C157.302 340.928 146.351 330.619 132.842 330.619C119.333 330.619 108.382 340.928 108.382 353.643C108.382 366.359 119.333 376.667 132.842 376.667Z" fill="#1F1F1F"/>
<path id="Vector_36" d="M132.842 368.569C141.311 368.569 148.176 362.102 148.176 354.125C148.176 346.148 141.311 339.682 132.842 339.682C124.374 339.682 117.509 346.148 117.509 354.125C117.509 362.102 124.374 368.569 132.842 368.569Z" fill="#383838"/>
<path id="Vector_37" d="M132.842 365.318C141.987 365.318 149.4 358.337 149.4 349.726C149.4 341.115 141.987 334.134 132.842 334.134C123.698 334.134 116.285 341.115 116.285 349.726C116.285 358.337 123.698 365.318 132.842 365.318Z" fill="white"/>
<path id="Vector_38" d="M132.842 361.269C140.804 361.269 147.258 355.194 147.258 347.701C147.258 340.208 140.804 334.134 132.842 334.134C124.881 334.134 118.427 340.208 118.427 347.701C118.427 355.194 124.881 361.269 132.842 361.269Z" fill="#AEADAB"/>
<path id="Vector_39" d="M117.937 343.854L132.842 347.701L117.937 351.557V343.854Z" fill="white"/>
<path id="Vector_40" d="M147.747 343.854L132.842 347.701L147.747 351.557V343.854Z" fill="white"/>
<path id="Vector_41" d="M281.666 205.604C300.741 205.604 316.205 191.042 316.205 173.079C316.205 155.116 300.741 140.555 281.666 140.555C262.59 140.555 247.126 155.116 247.126 173.079C247.126 191.042 262.59 205.604 281.666 205.604Z" fill="#A8A8A8"/>
<g id="Clip path group_3">
<mask id="mask2_912_8105" style="mask-type:luminance" maskUnits="userSpaceOnUse" x="247" y="140" width="70" height="66">
<g id="clip-path-3">
<path id="Vector_42" d="M281.666 205.604C300.741 205.604 316.205 191.042 316.205 173.079C316.205 155.116 300.741 140.555 281.666 140.555C262.59 140.555 247.126 155.116 247.126 173.079C247.126 191.042 262.59 205.604 281.666 205.604Z" fill="white"/>
</g>
</mask>
<g mask="url(#mask2_912_8105)">
<g id="Group_3">
<path id="Vector_43" d="M281.744 139.223C263.666 139.223 249.005 153.027 249.005 170.056C249.005 187.085 263.666 200.889 281.744 200.889V139.223Z" fill="#545454"/>
<path id="Vector_44" d="M281.745 172.107L308.95 187.225C312.551 182.218 314.49 176.203 314.492 170.03C314.494 166.392 313.815 162.786 312.49 159.398L281.745 172.002V172.107Z" fill="white"/>
</g>
</g>
</g>
<path id="Vector_45" d="M281.666 194.605C295.175 194.605 306.126 184.297 306.126 171.581C306.126 158.865 295.175 148.557 281.666 148.557C268.157 148.557 257.206 158.865 257.206 171.581C257.206 184.297 268.157 194.605 281.666 194.605Z" fill="#1F1F1F"/>
<path id="Vector_46" d="M281.665 186.506C290.134 186.506 296.999 180.04 296.999 172.063C296.999 164.086 290.134 157.619 281.665 157.619C273.197 157.619 266.332 164.086 266.332 172.063C266.332 180.04 273.197 186.506 281.665 186.506Z" fill="#383838"/>
<path id="Vector_47" d="M281.666 180.398C290.81 180.398 298.223 173.417 298.223 164.806C298.223 156.195 290.81 149.214 281.666 149.214C272.521 149.214 265.108 156.195 265.108 164.806C265.108 173.417 272.521 180.398 281.666 180.398Z" fill="white"/>
<path id="Vector_48" d="M281.666 176.348C289.627 176.348 296.081 170.274 296.081 162.781C296.081 155.288 289.627 149.214 281.666 149.214C273.704 149.214 267.25 155.288 267.25 162.781C267.25 170.274 273.704 176.348 281.666 176.348Z" fill="#AEADAB"/>
<path id="Vector_49" d="M266.77 158.934L281.666 162.781L266.77 166.629V158.934Z" fill="white"/>
<path id="Vector_50" d="M296.571 158.934L281.666 162.781L296.571 166.629V158.934Z" fill="white"/>
<path id="Vector_51" d="M281.666 387.667C300.741 387.667 316.205 373.105 316.205 355.142C316.205 337.179 300.741 322.617 281.666 322.617C262.59 322.617 247.126 337.179 247.126 355.142C247.126 373.105 262.59 387.667 281.666 387.667Z" fill="#A8A8A8"/>
<g id="Clip path group_4">
<mask id="mask3_912_8105" style="mask-type:luminance" maskUnits="userSpaceOnUse" x="247" y="322" width="70" height="66">
<g id="clip-path-4">
<path id="Vector_52" d="M281.666 387.667C300.741 387.667 316.205 373.105 316.205 355.142C316.205 337.179 300.741 322.617 281.666 322.617C262.59 322.617 247.126 337.179 247.126 355.142C247.126 373.105 262.59 387.667 281.666 387.667Z" fill="white"/>
</g>
</mask>
<g mask="url(#mask3_912_8105)">
<g id="Group_4">
<path id="Vector_53" d="M281.744 321.294C263.666 321.294 249.005 335.089 249.005 352.119C249.005 369.148 263.666 382.952 281.744 382.952V321.294Z" fill="#545454"/>
<path id="Vector_54" d="M281.745 354.169L308.95 369.288C312.545 364.288 314.484 358.282 314.492 352.119C314.494 348.483 313.815 344.88 312.49 341.496L281.745 354.082V354.169Z" fill="white"/>
</g>
</g>
</g>
<path id="Vector_55" d="M281.666 376.667C295.175 376.667 306.126 366.359 306.126 353.643C306.126 340.928 295.175 330.619 281.666 330.619C268.157 330.619 257.206 340.928 257.206 353.643C257.206 366.359 268.157 376.667 281.666 376.667Z" fill="#1F1F1F"/>
<path id="Vector_56" d="M281.665 368.569C290.134 368.569 296.999 362.102 296.999 354.125C296.999 346.148 290.134 339.682 281.665 339.682C273.197 339.682 266.332 346.148 266.332 354.125C266.332 362.102 273.197 368.569 281.665 368.569Z" fill="#383838"/>
<path id="Vector_57" d="M281.666 365.318C290.81 365.318 298.223 358.337 298.223 349.726C298.223 341.115 290.81 334.134 281.666 334.134C272.521 334.134 265.108 341.115 265.108 349.726C265.108 358.337 272.521 365.318 281.666 365.318Z" fill="white"/>
<path id="Vector_58" d="M281.666 361.269C289.627 361.269 296.081 355.194 296.081 347.701C296.081 340.208 289.627 334.134 281.666 334.134C273.704 334.134 267.25 340.208 267.25 347.701C267.25 355.194 273.704 361.269 281.666 361.269Z" fill="#AEADAB"/>
<path id="Vector_59" d="M266.77 343.854L281.666 347.701L266.77 351.557V343.854Z" fill="white"/>
<path id="Vector_60" d="M296.571 343.854L281.666 347.701L296.571 351.557V343.854Z" fill="white"/>
<path id="Vector_61" d="M129.529 516.941H281.543C281.939 516.941 282.331 517.02 282.697 517.172C283.063 517.324 283.396 517.546 283.676 517.827C283.956 518.108 284.178 518.441 284.33 518.808C284.481 519.175 284.559 519.568 284.559 519.965V536.819H126.539V519.965C126.539 519.168 126.853 518.403 127.413 517.836C127.973 517.27 128.733 516.948 129.529 516.941Z" fill="#46464A"/>
<path id="Vector_62" d="M130.709 532.56H280.389C281.495 532.56 282.556 533 283.338 533.785C284.12 534.569 284.559 535.632 284.559 536.741V536.811H126.539V536.741C126.539 535.632 126.978 534.569 127.76 533.785C128.542 533 129.603 532.56 130.709 532.56Z" fill="#1F2021"/>
<path id="Vector_63" d="M284.323 515.434C284.323 494.882 289.568 475.118 299.779 456.345C308.74 439.903 335.84 418.447 338.095 409.297C340.718 398.456 322.5 364.599 322.5 256.473C322.5 152.869 362.223 76.8027 356.716 68.2487C353.7 63.551 341.181 67.4686 328.925 56.855C317.114 46.6532 318.12 32.4286 314.361 27.7835C310.602 23.1383 274.646 1.68311 205.584 1.68311C136.522 1.68311 100.567 23.1734 96.8164 27.7835C93.0661 32.3935 94.0627 46.6532 82.2523 56.8637C70.0135 67.4599 57.4775 63.5422 54.4615 68.2574C48.954 76.8378 88.6776 152.878 88.6776 256.482C88.6776 364.582 70.4331 398.465 73.0819 409.306C75.3286 418.465 102.438 439.92 111.398 456.362C121.644 475.153 126.854 494.926 126.854 515.452" stroke="white" stroke-width="2" stroke-miterlimit="10"/>
</g>
<g id="&#208;&#161;&#209;&#130;&#209;&#128;&#209;&#131;&#208;&#189;&#209;&#139;">
<path id="Vector_64" d="M272.061 364.007V639.039" stroke="#A8A8A8" stroke-width="2" stroke-miterlimit="10" stroke-linecap="round"/>
<path id="Vector_65" d="M229.248 639.038V516.482L267.607 174.557" stroke="#A8A8A8" stroke-width="2" stroke-miterlimit="10" stroke-linecap="round"/>
<path id="Vector_66" d="M143.648 364.007V639.039" stroke="#A8A8A8" stroke-width="2" stroke-miterlimit="10" stroke-linecap="round"/>
<path id="Vector_67" d="M186.452 639.038V516.482L148.092 174.557" stroke="#A8A8A8" stroke-width="2" stroke-miterlimit="10" stroke-linecap="round"/>
</g>
</g>
<defs>
<clipPath id="clip0_912_8105">
<rect width="412" height="639.915" fill="white"/>
</clipPath>
</defs>
</svg>
