<svg width="412" height="653" viewBox="0 0 412 653" fill="none" xmlns="http://www.w3.org/2000/svg">
<g clip-path="url(#clip0_912_7940)">
<path d="M398.328 285.525C377.799 285.525 376.838 328.484 315.867 328.484H298.422V343.462H315.867C376.838 343.462 377.799 386.43 398.328 386.43C405.944 386.43 411.824 381.558 411.824 371.312V300.635C411.824 290.397 405.944 285.525 398.328 285.525Z" fill="#3B3B3D"/>
<path d="M315.867 335.982H298.422V343.471H315.867C376.838 343.471 377.799 386.439 398.328 386.439C405.944 386.439 411.824 381.567 411.824 371.32V335.982H315.867Z" fill="#303133"/>
<path d="M370.068 134.665C349.539 134.665 348.578 177.633 287.598 177.633H270.153V192.61H287.598C348.578 192.61 349.539 235.57 370.068 235.57C377.684 235.57 383.563 230.698 383.563 220.46V149.748C383.563 139.537 377.684 134.665 370.068 134.665Z" fill="#3B3B3D"/>
<path d="M287.598 185.122H270.153V192.62H287.598C348.578 192.62 349.539 235.579 370.068 235.579C377.684 235.579 383.563 230.707 383.563 220.469V185.122H287.598Z" fill="#303133"/>
<path d="M14.2009 260.283C34.7303 260.283 35.6911 303.251 96.6624 303.251H114.107V318.229H96.6624C35.6911 318.229 34.7303 361.188 14.2009 361.188C6.58497 361.188 0.705566 356.316 0.705566 346.079V275.402C0.705566 265.164 6.58497 260.283 14.2009 260.283Z" fill="#3B3B3D"/>
<path d="M96.6624 310.74H114.107V318.238H96.6624C35.6911 318.238 34.7303 361.197 14.2009 361.197C6.58497 361.197 0.705566 356.325 0.705566 346.087V310.74H96.6624Z" fill="#303133"/>
<path d="M45.4753 77.7847C66.0047 77.7847 66.9655 120.753 127.946 120.753H145.39V135.731H127.946C66.9655 135.731 66.0047 178.69 45.4753 178.69C37.8594 178.69 31.98 173.818 31.98 163.58V92.9033C31.98 82.6568 37.9035 77.7847 45.4753 77.7847Z" fill="#3B3B3D"/>
<path d="M127.946 128.242H145.39V135.74H127.946C66.9655 135.74 66.0047 178.699 45.4753 178.699C37.8594 178.699 31.98 173.827 31.98 163.589V128.242H127.946Z" fill="#303133"/>
<g opacity="0.3">
<path d="M45.4753 77.7847C66.0047 77.7847 66.9655 120.753 127.946 120.753H145.39V135.731H127.946C66.9655 135.731 66.0047 178.69 45.4753 178.69C37.8594 178.69 31.98 173.818 31.98 163.58V92.9033C31.98 82.6568 37.9035 77.7847 45.4753 77.7847Z" fill="#2BCF2E"/>
</g>
<path d="M297.532 263.544C287.166 208.792 279.092 142.279 279.092 70.5824C279.092 52.3622 261.797 65.1163 239.708 66.1002C212.884 67.3483 154.663 8.19629 135.209 8.19629C131.736 8.19629 129.744 10.8656 129.744 17.1606C129.744 119.476 120.577 203.918 109.197 267.99C100.576 316.528 75.1987 367.572 75.1987 372.701V394.365C75.1987 410.554 142.349 419.017 142.349 505.199V651.966H270.162V505.19C270.162 425.74 337.295 410.8 337.295 394.365V372.701C337.33 361.15 307.916 318.35 297.532 263.544Z" fill="#1F2021"/>
<path d="M297.4 247.425C287.034 194.465 278.96 130.15 278.96 60.812C278.96 43.1912 261.665 55.5258 239.576 56.4773C212.753 57.6755 154.531 0.469727 135.077 0.469727C131.604 0.469727 129.612 3.05117 129.612 9.13914C129.612 108.097 120.445 189.752 109.065 251.715C96.0988 322.322 75.0669 363.096 75.0669 373.942C75.0669 389.589 142.217 397.782 142.217 481.12L142.217 651.944H270.03V481.111C270.03 404.276 337.163 389.836 337.163 373.942C337.199 357.801 311.098 317.335 297.4 247.425Z" fill="#303133"/>
<path d="M178.145 161.857C196.094 161.857 210.645 148.197 210.645 131.346C210.645 114.496 196.094 100.836 178.145 100.836C160.196 100.836 145.646 114.496 145.646 131.346C145.646 148.197 160.196 161.857 178.145 161.857Z" fill="#A8A8A8"/>
<mask id="mask0_912_7940" style="mask-type:luminance" maskUnits="userSpaceOnUse" x="145" y="100" width="66" height="62">
<path d="M178.145 161.857C196.094 161.857 210.645 148.197 210.645 131.347C210.645 114.496 196.094 100.836 178.145 100.836C160.196 100.836 145.646 114.496 145.646 131.347C145.646 148.197 160.196 161.857 178.145 161.857Z" fill="white"/>
</mask>
<g mask="url(#mask0_912_7940)">
<path d="M178.225 99.5854C161.203 99.5854 147.373 112.537 147.373 128.51C147.373 144.483 161.168 157.426 178.225 157.426V99.5854Z" fill="#545454"/>
<path d="M178.225 130.431L203.787 144.615C206.482 140.894 208.199 136.558 208.783 132.002C209.367 127.446 208.798 122.816 207.128 118.537L178.225 130.369V130.431Z" fill="white"/>
</g>
<path d="M178.146 151.54C190.857 151.54 201.161 141.868 201.161 129.937C201.161 118.006 190.857 108.334 178.146 108.334C165.435 108.334 155.13 118.006 155.13 129.937C155.13 141.868 165.435 151.54 178.146 151.54Z" fill="#1F1F1F"/>
<path d="M178.145 143.945C186.115 143.945 192.575 137.879 192.575 130.395C192.575 122.911 186.115 116.845 178.145 116.845C170.176 116.845 163.716 122.911 163.716 130.395C163.716 137.879 170.176 143.945 178.145 143.945Z" fill="#383838"/>
<path d="M178.145 138.201C186.752 138.201 193.73 131.653 193.73 123.576C193.73 115.499 186.752 108.951 178.145 108.951C169.538 108.951 162.561 115.499 162.561 123.576C162.561 131.653 169.538 138.201 178.145 138.201Z" fill="white"/>
<path d="M178.145 134.413C185.633 134.413 191.702 128.713 191.702 121.682C191.702 114.651 185.633 108.951 178.145 108.951C170.658 108.951 164.588 114.651 164.588 121.682C164.588 128.713 170.658 134.413 178.145 134.413Z" fill="#AEADAB"/>
<path d="M164.121 118.069L178.145 121.682L164.121 125.294V118.069Z" fill="white"/>
<path d="M192.17 118.069L178.146 121.682L192.17 125.294V118.069Z" fill="white"/>
<path d="M146.853 336.937C164.802 336.937 179.353 323.277 179.353 306.426C179.353 289.576 164.802 275.916 146.853 275.916C128.904 275.916 114.354 289.576 114.354 306.426C114.354 323.277 128.904 336.937 146.853 336.937Z" fill="#A8A8A8"/>
<mask id="mask1_912_7940" style="mask-type:luminance" maskUnits="userSpaceOnUse" x="114" y="275" width="66" height="62">
<path d="M146.853 336.937C164.802 336.937 179.353 323.277 179.353 306.426C179.353 289.576 164.802 275.916 146.853 275.916C128.904 275.916 114.354 289.576 114.354 306.426C114.354 323.277 128.904 336.937 146.853 336.937Z" fill="white"/>
</mask>
<g mask="url(#mask1_912_7940)">
<path d="M146.933 274.666C129.911 274.666 116.081 287.617 116.081 303.59C116.081 319.563 129.876 332.506 146.933 332.506V274.666Z" fill="#545454"/>
<path d="M146.933 305.51L172.495 319.695C175.19 315.974 176.907 311.637 177.491 307.081C178.075 302.525 177.506 297.896 175.836 293.616L146.906 305.44L146.933 305.51Z" fill="white"/>
</g>
<path d="M146.854 326.62C159.565 326.62 169.869 316.948 169.869 305.017C169.869 293.086 159.565 283.414 146.854 283.414C134.143 283.414 123.838 293.086 123.838 305.017C123.838 316.948 134.143 326.62 146.854 326.62Z" fill="#1F1F1F"/>
<path d="M146.853 319.016C154.822 319.016 161.283 312.95 161.283 305.466C161.283 297.982 154.822 291.916 146.853 291.916C138.884 291.916 132.423 297.982 132.423 305.466C132.423 312.95 138.884 319.016 146.853 319.016Z" fill="#383838"/>
<path d="M146.853 315.968C155.46 315.968 162.437 309.42 162.437 301.343C162.437 293.265 155.46 286.717 146.853 286.717C138.246 286.717 131.269 293.265 131.269 301.343C131.269 309.42 138.246 315.968 146.853 315.968Z" fill="white"/>
<path d="M146.853 312.171C154.341 312.171 160.41 306.471 160.41 299.44C160.41 292.409 154.341 286.709 146.853 286.709C139.366 286.709 133.296 292.409 133.296 299.44C133.296 306.471 139.366 312.171 146.853 312.171Z" fill="#AEADAB"/>
<path d="M132.829 295.836L146.853 299.44L132.829 303.052V295.836Z" fill="white"/>
<path d="M160.878 295.836L146.854 299.44L160.878 303.052V295.836Z" fill="white"/>
<path d="M236.851 223.45C254.801 223.45 269.351 209.79 269.351 192.94C269.351 176.09 254.801 162.43 236.851 162.43C218.902 162.43 204.352 176.09 204.352 192.94C204.352 209.79 218.902 223.45 236.851 223.45Z" fill="#A8A8A8"/>
<mask id="mask2_912_7940" style="mask-type:luminance" maskUnits="userSpaceOnUse" x="204" y="162" width="66" height="62">
<path d="M236.851 223.45C254.801 223.45 269.351 209.79 269.351 192.94C269.351 176.09 254.801 162.43 236.851 162.43C218.902 162.43 204.352 176.09 204.352 192.94C204.352 209.79 218.902 223.45 236.851 223.45Z" fill="white"/>
</mask>
<g mask="url(#mask2_912_7940)">
<path d="M236.931 161.205C219.909 161.205 206.079 174.156 206.079 190.129C206.079 206.102 219.874 219.045 236.931 219.045V161.205Z" fill="#545454"/>
<path d="M236.931 192.041L262.493 206.226C265.188 202.505 266.905 198.168 267.489 193.612C268.073 189.056 267.504 184.427 265.834 180.147L236.931 191.953V192.041Z" fill="white"/>
</g>
<path d="M236.851 213.134C249.562 213.134 259.866 203.462 259.866 191.531C259.866 179.6 249.562 169.928 236.851 169.928C224.14 169.928 213.836 179.6 213.836 191.531C213.836 203.462 224.14 213.134 236.851 213.134Z" fill="#1F1F1F"/>
<path d="M236.852 205.539C244.821 205.539 251.281 199.472 251.281 191.988C251.281 184.505 244.821 178.438 236.852 178.438C228.882 178.438 222.422 184.505 222.422 191.988C222.422 199.472 228.882 205.539 236.852 205.539Z" fill="#383838"/>
<path d="M236.852 199.803C245.459 199.803 252.436 193.255 252.436 185.178C252.436 177.101 245.459 170.553 236.852 170.553C228.244 170.553 221.267 177.101 221.267 185.178C221.267 193.255 228.244 199.803 236.852 199.803Z" fill="white"/>
<path d="M236.851 196.006C244.338 196.006 250.408 190.306 250.408 183.275C250.408 176.244 244.338 170.544 236.851 170.544C229.364 170.544 223.294 176.244 223.294 183.275C223.294 190.306 229.364 196.006 236.851 196.006Z" fill="#AEADAB"/>
<path d="M222.827 179.663L236.851 183.275L222.827 186.888V179.663Z" fill="white"/>
<path d="M250.876 179.663L236.852 183.275L250.876 186.888V179.663Z" fill="white"/>
<path d="M265.799 372.725C283.748 372.725 298.298 359.065 298.298 342.214C298.298 325.364 283.748 311.704 265.799 311.704C247.849 311.704 233.299 325.364 233.299 342.214C233.299 359.065 247.849 372.725 265.799 372.725Z" fill="#A8A8A8"/>
<mask id="mask3_912_7940" style="mask-type:luminance" maskUnits="userSpaceOnUse" x="233" y="311" width="66" height="62">
<path d="M265.799 372.725C283.748 372.725 298.298 359.065 298.298 342.214C298.298 325.364 283.748 311.704 265.799 311.704C247.849 311.704 233.299 325.364 233.299 342.214C233.299 359.065 247.849 372.725 265.799 372.725Z" fill="white"/>
</mask>
<g mask="url(#mask3_912_7940)">
<path d="M265.869 310.462C248.857 310.462 235.062 323.404 235.062 339.378C235.062 355.351 248.857 368.302 265.869 368.302V310.462Z" fill="#545454"/>
<path d="M265.869 341.307L291.431 355.482C294.82 350.795 296.646 345.16 296.65 339.377C296.654 335.967 296.017 332.587 294.772 329.413L265.842 341.236L265.869 341.307Z" fill="white"/>
</g>
<path d="M265.799 362.407C278.51 362.407 288.814 352.735 288.814 340.804C288.814 328.873 278.51 319.201 265.799 319.201C253.088 319.201 242.784 328.873 242.784 340.804C242.784 352.735 253.088 362.407 265.799 362.407Z" fill="#1F1F1F"/>
<path d="M265.799 354.813C273.768 354.813 280.228 348.746 280.228 341.263C280.228 333.779 273.768 327.712 265.799 327.712C257.83 327.712 251.369 333.779 251.369 341.263C251.369 348.746 257.83 354.813 265.799 354.813Z" fill="#383838"/>
<path d="M265.799 351.756C274.406 351.756 281.383 345.208 281.383 337.131C281.383 329.053 274.406 322.505 265.799 322.505C257.192 322.505 250.214 329.053 250.214 337.131C250.214 345.208 257.192 351.756 265.799 351.756Z" fill="white"/>
<path d="M265.799 347.967C273.286 347.967 279.356 342.268 279.356 335.236C279.356 328.205 273.286 322.505 265.799 322.505C258.311 322.505 252.242 328.205 252.242 335.236C252.242 342.268 258.311 347.967 265.799 347.967Z" fill="#AEADAB"/>
<path d="M251.774 331.624L265.799 335.236L251.774 338.849V331.624Z" fill="white"/>
<path d="M279.814 331.624L265.799 335.236L279.814 338.849V331.624Z" fill="white"/>
<path d="M279.091 61.7182C279.091 44.0975 261.797 56.432 239.707 57.3835C212.884 58.5905 154.663 1.38477 135.218 1.38477C154.663 1.38477 216.093 76.6782 240.836 78.8192C261.427 80.6077 279.091 44.1327 279.091 61.7182Z" fill="#46464A"/>
<path d="M142.058 463.489H270.471" stroke="#46464A" stroke-width="3" stroke-miterlimit="10" stroke-linecap="round"/>
<path d="M176.294 514.907C176.294 503.118 184.069 495.726 207.067 495.726C230.064 495.726 237.839 503.118 237.839 514.907C237.839 534.836 215.59 563.646 207.067 563.646C198.543 563.646 176.294 534.836 176.294 514.907Z" fill="#121212"/>
<path d="M202.738 529.258C205.762 532.289 206.996 545.514 207.049 550.571C207.049 545.681 208.327 532.298 211.359 529.267C214.391 526.236 228.53 524.959 228.53 524.959C228.53 524.959 214.427 523.681 211.359 520.659C208.292 517.638 207.102 504.404 207.04 499.347C207.04 504.246 205.771 517.629 202.747 520.651C199.724 523.673 185.559 524.959 185.559 524.959C185.559 524.959 199.689 526.236 202.738 529.258Z" fill="#303133"/>
<path d="M271.617 463.489C281.313 402.697 337.33 389.376 337.33 374.848C337.33 358.707 311.23 318.25 297.532 248.331C287.166 195.38 279.092 131.056 279.092 61.7182C279.092 44.0975 261.797 56.432 239.708 57.3835C212.884 58.5905 154.663 1.38477 135.209 1.38477C131.736 1.38477 129.744 3.96621 129.744 10.0542C129.744 109.004 120.577 190.667 109.197 252.63C96.2306 323.228 75.1987 364.011 75.1987 374.848C75.1987 389.253 132.071 397.341 141.133 463.489" stroke="white" stroke-width="2" stroke-miterlimit="10"/>
<path d="M188.837 41.8511C194.373 46.644 201.874 53.3046 207.419 57.8948C216.842 65.4277 226.3 73.9826 237.909 77.8327C245.965 80.1851 253.934 75.6654 260.131 70.7844C263.357 68.2823 266.345 65.4982 269.36 62.7141C266.477 65.6215 263.551 68.4937 260.404 71.128C254.234 76.2292 245.983 81.0044 237.697 78.5816C229.764 76.1852 223.012 71.1192 216.489 66.1766C206.793 58.6349 197.749 50.265 188.837 41.8247V41.8511Z" fill="#6D6D73"/>
<path d="M191.579 131.74V651.966" stroke="#A8A8A8" stroke-width="2" stroke-miterlimit="10" stroke-linecap="round"/>
<path d="M160.19 312.471V651.966" stroke="#A8A8A8" stroke-width="2" stroke-miterlimit="10" stroke-linecap="round"/>
<path d="M254.349 349.833V651.966" stroke="#A8A8A8" stroke-width="2" stroke-miterlimit="10" stroke-linecap="round"/>
<path d="M222.959 193.218V651.966" stroke="#A8A8A8" stroke-width="2" stroke-miterlimit="10" stroke-linecap="round"/>
<path d="M191.579 133.528V651.966" stroke="#2BCF2E" stroke-width="2" stroke-miterlimit="10" stroke-linecap="round"/>
</g>
<defs>
<clipPath id="clip0_912_7940">
<rect width="412" height="652.848" fill="white"/>
</clipPath>
</defs>
</svg>
