<svg width="384" height="398" viewBox="0 0 384 398" fill="none" xmlns="http://www.w3.org/2000/svg">
<g id="&#208;&#160;&#208;&#181;&#209;&#129;&#209;&#131;&#209;&#128;&#209;&#129; 2" clip-path="url(#clip0_232_165)">
<g id="&#208;&#161;&#208;&#187;&#208;&#190;&#208;&#185; 1">
<path id="Vector" opacity="0.2" d="M191.63 0.75C242.06 0.75 282.3 11.59 314.63 33.89C333.175 46.5777 348.749 63.1346 360.28 82.42C375.03 107.16 382.51 135.18 382.51 165.69C382.51 222.8 356.1 273.44 333.94 305.86C322.145 323.405 308.389 339.549 292.94 353.98C261.94 382.43 227.85 396.86 191.65 396.86C155.45 396.86 121.36 382.43 90.35 354C74.9007 339.569 61.1454 323.425 49.35 305.88C27.16 273.44 0.75 222.8 0.75 165.69C0.75 135.18 8.23 107.16 22.98 82.42C34.5101 63.1371 50.0804 46.5808 68.62 33.89C101 11.59 141.2 0.75 191.63 0.75ZM191.63 0C141 0 100.67 10.88 68.2 33.27C49.5685 46.0049 33.9219 62.6307 22.34 82C7.52 106.9 0 135 0 165.69C0 223 26.48 273.77 48.7 306.28C60.539 323.872 74.3411 340.059 89.84 354.53C120.99 383.12 155.24 397.61 191.63 397.61C228.02 397.61 262.27 383.12 293.42 354.53C308.924 340.064 322.727 323.876 334.56 306.28C356.78 273.77 383.26 222.99 383.26 165.69C383.26 135.04 375.75 106.9 360.92 82.04C349.343 62.6562 333.696 46.0164 315.06 33.27C282.59 10.88 242.22 0 191.63 0Z" fill="#19C63E"/>
<path id="Vector_2" opacity="0.36" d="M191.63 31.9289C238.38 31.9289 275.35 41.7489 304.63 61.9289C321.14 73.2057 334.994 87.9442 345.23 105.119C358.29 127.059 364.91 152.009 364.91 179.249C364.91 229.739 341.79 275.249 322.39 304.519C312.037 320.236 300.047 334.811 286.62 347.999C273.25 360.999 259.52 371.319 245.81 378.629C228.09 388.069 209.86 392.859 191.63 392.859C173.4 392.859 155.17 388.069 137.46 378.629C123.74 371.329 110 360.999 96.6498 347.999C83.211 334.824 71.2134 320.255 60.8598 304.539C41.4598 275.259 18.3298 229.759 18.3298 179.269C18.3298 151.999 24.9998 127.089 37.9998 105.149C48.2485 87.9919 62.1053 73.2684 78.6098 61.9989C107.91 41.7889 144.89 31.9989 191.61 31.9989M191.61 31.1989C144.7 31.1989 107.61 41.0689 78.1298 61.3689C61.5357 72.7226 47.6048 87.544 37.2998 104.809C24.2998 126.639 17.5098 151.649 17.5098 179.349C17.5098 229.969 40.5098 275.349 60.1698 305.059C70.5608 320.818 82.5948 335.43 96.0698 348.649C109.27 361.499 122.95 371.889 137.07 379.409C154.81 388.869 172.93 393.739 191.62 393.739C210.31 393.739 228.43 388.869 246.17 379.409C260.28 371.889 273.96 361.499 287.17 348.649C300.649 335.412 312.683 320.779 323.07 304.999C342.77 275.269 365.73 229.919 365.73 179.289C365.73 151.589 358.93 126.579 345.94 104.749C335.639 87.4783 321.707 72.6528 305.11 61.2989C275.66 40.9989 238.54 31.1289 191.63 31.1289L191.61 31.1989Z" fill="#19C63E"/>
<path id="Vector_3" opacity="0.52" d="M191.63 63.0987C234.69 63.0987 268.4 71.9087 294.63 90.0287C309.098 99.9051 321.234 112.823 330.19 127.879C341.55 147.029 347.31 168.879 347.31 192.879C347.31 236.789 327.47 277.129 310.83 303.239C301.94 317.117 291.721 330.098 280.32 341.999C267.6 355.299 255 365.799 242.73 373.259C225.49 383.769 208.73 388.879 191.63 388.879C174.53 388.879 157.77 383.769 140.53 373.259C128.31 365.799 115.66 355.259 102.95 342.039C91.5231 330.132 81.2878 317.137 72.3895 303.239C55.7495 277.129 35.9095 236.779 35.9095 192.879C35.9095 168.879 41.6795 147.029 53.0395 127.879C61.9846 112.81 74.1183 99.8812 88.5895 89.9987C114.86 71.8787 148.59 63.0687 191.59 63.0687M191.59 62.2188C148.35 62.2188 114.49 71.0788 88.0695 89.2988C73.5088 99.2499 61.292 112.255 52.2695 127.409C41.1095 146.209 35.0195 168.089 35.0195 192.849C35.0195 236.789 54.4595 276.709 71.6395 303.669C80.5706 317.608 90.8356 330.646 102.29 342.599C114.54 355.369 127.14 366.079 140.05 373.949C157.05 384.339 174.05 389.699 191.59 389.699C209.09 389.699 226.11 384.339 243.14 373.949C256.05 366.079 268.64 355.369 280.89 342.599C292.35 330.649 302.618 317.611 311.55 303.669C328.73 276.669 348.16 236.789 348.16 192.849C348.16 168.089 342.07 146.209 330.92 127.409C321.891 112.26 309.675 99.2555 295.12 89.2988C268.69 71.0788 234.83 62.2188 191.59 62.2188Z" fill="#19C63E"/>
<path id="Vector_4" opacity="0.68" d="M191.63 94.2816C231.01 94.2816 261.45 102.072 284.69 118.092C297.116 126.565 307.531 137.663 315.2 150.602C324.87 166.962 329.77 185.762 329.77 206.472C329.77 236.472 319.53 268.632 299.33 301.942C291.898 314.042 283.422 325.468 274 336.092C261.89 349.812 250.65 360.212 239.64 367.882C223.23 379.332 207.52 384.882 191.64 384.882C175.76 384.882 160.03 379.322 143.64 367.882C132.64 360.212 121.39 349.812 109.29 336.092C99.8681 325.467 91.3925 314.041 83.9596 301.942C63.7396 268.632 53.4996 236.512 53.4996 206.472C53.4996 185.762 58.3996 166.962 68.0596 150.602C75.7308 137.665 86.1453 126.568 98.5696 118.092C121.81 102.092 152.25 94.2816 191.63 94.2816ZM191.63 93.3816C152.06 93.3816 121.46 101.222 98.0596 117.382C85.536 125.939 75.0342 137.13 67.2896 150.172C57.9996 165.922 52.5996 184.662 52.5996 206.472C52.5996 243.732 68.4996 278.222 83.1696 302.402C90.6199 314.55 99.1226 326.021 108.58 336.682C119.82 349.422 131.36 360.442 143.09 368.622C159.38 379.982 175.32 385.792 191.63 385.792C207.95 385.792 223.88 379.982 240.17 368.622C251.9 360.442 263.44 349.422 274.68 336.682C284.14 326.021 292.646 314.55 300.1 302.402C314.76 278.222 330.67 243.732 330.67 206.472C330.67 184.662 325.29 165.922 315.98 150.142C308.229 137.102 297.724 125.911 285.2 117.352C261.81 101.222 231.2 93.3516 191.63 93.3516V93.3816Z" fill="#19C63E"/>
<g id="Vector_5" opacity="0.8">
<mask id="path-5-inside-1_232_165" fill="white">
<path d="M191.63 125.449C227.33 125.449 254.5 132.219 274.71 146.159C285.093 153.232 293.786 162.51 300.17 173.329C308.17 186.899 312.17 202.619 312.17 220.059C312.17 244.989 303.96 272.059 287.77 300.639C281.845 310.976 275.128 320.839 267.68 330.139C256.87 343.769 246.4 354.669 236.56 362.519C221.07 374.889 206.37 380.899 191.62 380.899C176.87 380.899 162.18 374.899 146.68 362.519C136.85 354.669 126.38 343.769 115.56 330.139C108.117 320.836 101.4 310.973 95.4701 300.639C79.2901 272.099 71.0801 244.999 71.0801 220.059C71.0801 202.619 75.0801 186.899 83.0801 173.329C89.4643 162.51 98.1577 153.232 108.54 146.159C128.75 132.219 155.93 125.449 191.62 125.449M191.62 124.449C155.73 124.449 128.38 131.279 108 145.329C97.5107 152.489 88.7234 161.867 82.2601 172.799C74.7801 185.539 70.1201 201.149 70.1201 220.009C70.1201 250.589 82.5001 279.659 94.6401 301.059C100.603 311.432 107.349 321.334 114.82 330.679C124.97 343.479 135.51 354.759 146.09 363.209C161.6 375.599 176.49 381.799 191.62 381.799C206.75 381.799 221.62 375.599 237.15 363.209C247.74 354.759 258.27 343.479 268.43 330.679C275.895 321.332 282.638 311.43 288.6 301.059C300.74 279.659 313.12 250.589 313.12 220.009C313.12 201.149 308.47 185.539 300.98 172.799C294.517 161.867 285.73 152.489 275.24 145.329C254.87 131.329 227.51 124.449 191.62 124.449Z"/>
</mask>
<path d="M274.71 146.159L274.142 146.982L274.147 146.986L274.71 146.159ZM300.17 173.329L301.032 172.821L301.031 172.821L300.17 173.329ZM287.77 300.639L288.638 301.137L288.64 301.132L287.77 300.639ZM267.68 330.139L266.9 329.514L266.897 329.518L267.68 330.139ZM236.56 362.519L235.936 361.737L235.936 361.738L236.56 362.519ZM146.68 362.519L147.304 361.738L147.304 361.738L146.68 362.519ZM115.56 330.139L116.343 329.517L116.341 329.514L115.56 330.139ZM95.4701 300.639L94.6002 301.132L94.6028 301.137L95.4701 300.639ZM83.0801 173.329L82.2189 172.821L82.2187 172.821L83.0801 173.329ZM108.54 146.159L109.103 146.986L109.108 146.982L108.54 146.159ZM108 145.329L108.564 146.155L108.568 146.153L108 145.329ZM82.2601 172.799L81.3993 172.29L81.3978 172.293L82.2601 172.799ZM94.6401 301.059L93.7703 301.553L93.7732 301.558L94.6401 301.059ZM114.82 330.679L115.604 330.058L115.601 330.055L114.82 330.679ZM146.09 363.209L146.714 362.428L146.714 362.428L146.09 363.209ZM237.15 363.209L237.774 363.991L237.774 363.991L237.15 363.209ZM268.43 330.679L267.649 330.055L267.647 330.058L268.43 330.679ZM288.6 301.059L289.467 301.558L289.47 301.553L288.6 301.059ZM300.98 172.799L301.842 172.292L301.841 172.29L300.98 172.799ZM275.24 145.329L274.674 146.153L274.676 146.155L275.24 145.329ZM191.63 126.449C227.215 126.449 254.159 133.199 274.142 146.982L275.278 145.336C254.841 131.239 227.445 124.449 191.63 124.449V126.449ZM274.147 146.986C284.408 153.976 292.999 163.144 299.309 173.837L301.031 172.821C294.572 161.875 285.777 152.489 275.273 145.333L274.147 146.986ZM299.309 173.837C307.207 187.235 311.17 202.776 311.17 220.059H313.17C313.17 202.463 309.133 186.563 301.032 172.821L299.309 173.837ZM311.17 220.059C311.17 244.77 303.031 271.67 286.9 300.146L288.64 301.132C304.889 272.449 313.17 245.209 313.17 220.059H311.17ZM286.903 300.142C281.003 310.434 274.315 320.254 266.9 329.514L268.461 330.764C275.941 321.424 282.687 311.518 288.638 301.137L286.903 300.142ZM266.897 329.518C256.117 343.11 245.699 353.949 235.936 361.737L237.184 363.301C247.101 355.39 257.623 344.429 268.464 330.761L266.897 329.518ZM235.936 361.738C220.563 374.015 206.076 379.899 191.62 379.899V381.899C206.664 381.899 221.578 375.764 237.184 363.301L235.936 361.738ZM191.62 379.899C177.164 379.899 162.688 374.025 147.304 361.738L146.056 363.301C161.673 375.774 176.576 381.899 191.62 381.899V379.899ZM147.304 361.738C137.551 353.949 127.133 343.109 116.343 329.517L114.777 330.761C125.627 344.429 136.149 355.389 146.056 363.301L147.304 361.738ZM116.341 329.514C108.929 320.251 102.242 310.431 96.3375 300.142L94.6028 301.137C100.558 311.516 107.304 321.421 114.779 330.764L116.341 329.514ZM96.34 300.146C80.2191 271.71 72.0801 244.78 72.0801 220.059H70.0801C70.0801 245.218 78.3612 272.488 94.6002 301.132L96.34 300.146ZM72.0801 220.059C72.0801 202.776 76.0429 187.235 83.9416 173.837L82.2187 172.821C74.1174 186.563 70.0801 202.463 70.0801 220.059H72.0801ZM83.9414 173.837C90.2508 163.144 98.8423 153.976 109.103 146.986L107.977 145.333C97.4731 152.489 88.6778 161.875 82.2189 172.821L83.9414 173.837ZM109.108 146.982C129.091 133.199 156.045 126.449 191.62 126.449V124.449C155.815 124.449 128.409 131.239 107.972 145.336L109.108 146.982ZM191.62 123.449C155.614 123.449 128.039 130.3 107.433 144.506L108.568 146.153C128.721 132.259 155.846 125.449 191.62 125.449V123.449ZM107.436 144.503C96.8259 151.746 87.9371 161.232 81.3993 172.29L83.1209 173.308C89.5096 162.502 98.1955 153.232 108.564 146.155L107.436 144.503ZM81.3978 172.293C73.8248 185.191 69.1201 200.977 69.1201 220.009H71.1201C71.1201 201.321 75.7355 185.887 83.1225 173.306L81.3978 172.293ZM69.1201 220.009C69.1201 250.841 81.5949 280.09 93.7703 301.553L95.5099 300.566C83.4053 279.228 71.1201 250.337 71.1201 220.009H69.1201ZM93.7732 301.558C99.7614 311.974 106.536 321.919 114.039 331.304L115.601 330.055C108.162 320.749 101.445 310.889 95.5071 300.561L93.7732 301.558ZM114.037 331.301C124.214 344.135 134.807 355.477 145.466 363.991L146.714 362.428C136.214 354.041 125.726 342.824 115.604 330.058L114.037 331.301ZM145.466 363.991C161.091 376.473 176.195 382.799 191.62 382.799V380.799C176.785 380.799 162.109 374.726 146.714 362.428L145.466 363.991ZM191.62 382.799C207.046 382.799 222.129 376.472 237.774 363.991L236.526 362.428C221.111 374.726 206.455 380.799 191.62 380.799V382.799ZM237.774 363.991C248.444 355.477 259.027 344.135 269.213 331.301L267.647 330.058C257.514 342.824 247.036 354.041 236.526 362.428L237.774 363.991ZM269.212 331.303C276.708 321.916 283.48 311.972 289.467 301.558L287.733 300.561C281.796 310.888 275.082 320.748 267.649 330.055L269.212 331.303ZM289.47 301.553C301.645 280.09 314.12 250.841 314.12 220.009H312.12C312.12 250.337 299.835 279.228 287.73 300.566L289.47 301.553ZM314.12 220.009C314.12 200.977 309.426 185.191 301.842 172.292L300.118 173.306C307.515 185.887 312.12 201.321 312.12 220.009H314.12ZM301.841 172.29C295.303 161.232 286.414 151.746 275.804 144.503L274.676 146.155C285.045 153.232 293.731 162.502 300.119 173.308L301.841 172.29ZM275.807 144.505C255.211 130.35 227.627 123.449 191.62 123.449V125.449C227.393 125.449 254.529 132.308 274.674 146.153L275.807 144.505Z" fill="#19C63E" mask="url(#path-5-inside-1_232_165)"/>
</g>
<path id="Vector_6" d="M191.63 156.629C223.63 156.629 247.55 162.379 264.73 174.229C278.36 183.619 294.6 201.559 294.6 233.649C294.6 270.139 273.78 306.049 261.36 324.219C253.324 336.207 243.973 347.259 233.48 357.169C219 370.449 205.31 376.909 191.63 376.909C177.95 376.909 164.27 370.449 149.78 357.169C139.288 347.259 129.937 336.207 121.9 324.219C109.49 306.049 88.6602 270.129 88.6602 233.649C88.6602 201.559 104.91 183.649 118.53 174.229C135.71 162.379 159.62 156.629 191.63 156.629ZM191.63 155.629C159.41 155.629 135.31 161.439 117.96 173.399C104.14 182.939 87.6602 201.129 87.6602 233.649C87.6602 270.399 108.6 306.519 121.07 324.779C129.139 336.828 138.531 347.937 149.07 357.899C163.74 371.369 177.65 377.899 191.59 377.899C205.53 377.899 219.44 371.359 234.11 357.899C243.59 349.209 253.28 337.759 262.11 324.779C274.59 306.519 295.52 270.399 295.52 233.649C295.52 201.129 279.04 182.939 265.22 173.399C247.87 161.399 223.77 155.629 191.55 155.629H191.63Z" fill="#19C63E"/>
<g id="logo">
<path id="Vector_7" d="M122.73 263.219C122.73 236.819 140.14 220.219 191.63 220.219C243.12 220.219 260.54 236.789 260.54 263.219C260.54 307.879 210.71 372.409 191.63 372.409C172.55 372.409 122.73 307.879 122.73 263.219Z" fill="#19C63E"/>
<path id="Vector_8" d="M122.73 263.219C122.73 236.819 140.14 220.219 191.63 220.219C243.12 220.219 260.54 236.789 260.54 263.219C260.54 307.879 210.71 372.409 191.63 372.409C172.55 372.409 122.73 307.879 122.73 263.219Z" fill="url(#paint0_radial_232_165)"/>
<path id="Vector_9" d="M182 295.377C188.78 302.157 191.53 331.777 191.66 343.117C191.66 332.117 194.52 302.187 201.3 295.397C208.08 288.607 239.75 285.737 239.75 285.737C239.75 285.737 208.09 282.877 201.31 276.097C194.53 269.317 191.77 239.707 191.64 228.367C191.64 239.367 188.8 269.307 182.02 276.087C175.24 282.867 143.54 285.737 143.54 285.737C143.54 285.737 175.2 288.597 182 295.377Z" fill="#005313"/>
</g>
</g>
</g>
<defs>
<radialGradient id="paint0_radial_232_165" cx="0" cy="0" r="1" gradientUnits="userSpaceOnUse" gradientTransform="translate(284.04 369.429) scale(90.51 90.51)">
<stop stop-color="white"/>
<stop offset="0.09" stop-color="white" stop-opacity="0.98"/>
<stop offset="0.19" stop-color="white" stop-opacity="0.92"/>
<stop offset="0.31" stop-color="white" stop-opacity="0.82"/>
<stop offset="0.43" stop-color="white" stop-opacity="0.69"/>
<stop offset="0.56" stop-color="white" stop-opacity="0.51"/>
<stop offset="0.69" stop-color="white" stop-opacity="0.3"/>
<stop offset="0.83" stop-color="white" stop-opacity="0.05"/>
<stop offset="0.85" stop-color="white" stop-opacity="0"/>
</radialGradient>
<clipPath id="clip0_232_165">
<rect width="383.26" height="397.61" fill="white"/>
</clipPath>
</defs>
</svg>
