<svg width="412" height="640" viewBox="0 0 412 640" fill="none" xmlns="http://www.w3.org/2000/svg">
<g id="Ukulele2" clip-path="url(#clip0_912_8274)">
<g id="&#208;&#154;&#208;&#190;&#208;&#187;&#208;&#186;&#208;&#184;">
<path id="Vector" d="M381.047 388.893C398.036 388.893 411.807 371.236 411.807 349.455C411.807 327.674 398.036 310.017 381.047 310.017C364.059 310.017 350.288 327.674 350.288 349.455C350.288 371.236 364.059 388.893 381.047 388.893Z" fill="#3B3B3D"/>
<path id="Vector_2" d="M381.047 388.902C398.036 388.902 411.816 371.238 411.816 349.455H350.288C350.288 371.238 364.059 388.902 381.047 388.902Z" fill="#313133"/>
<path id="Vector_3" d="M355.503 358.931V339.996H319.861V358.931H355.503Z" fill="#3B3B3D"/>
<path id="Vector_4" d="M355.503 358.922V349.455H319.861V358.922H355.503Z" fill="#313133"/>
<path id="Vector_5" d="M381.047 212.995C398.036 212.995 411.807 195.338 411.807 173.557C411.807 151.776 398.036 134.119 381.047 134.119C364.059 134.119 350.288 151.776 350.288 173.557C350.288 195.338 364.059 212.995 381.047 212.995Z" fill="#3B3B3D"/>
<path id="Vector_6" d="M381.047 213.013C398.036 213.013 411.816 195.358 411.816 173.566H350.288C350.288 195.341 364.059 213.013 381.047 213.013Z" fill="#313133"/>
<path id="Vector_7" d="M355.503 183.033V164.099H319.861V183.033H355.503Z" fill="#3B3B3D"/>
<path id="Vector_8" d="M355.503 183.024V173.557H319.861V183.024H355.503Z" fill="#313133"/>
<path id="Vector_9" d="M31.0488 388.893C48.0369 388.893 61.8085 371.236 61.8085 349.455C61.8085 327.674 48.0369 310.017 31.0488 310.017C14.0607 310.017 0.289062 327.674 0.289062 349.455C0.289062 371.236 14.0607 388.893 31.0488 388.893Z" fill="#3B3B3D"/>
<path id="Vector_10" d="M31.0488 388.902C14.0516 388.902 0.280273 371.238 0.280273 349.455H61.8085C61.8085 371.238 48.0372 388.902 31.0488 388.902Z" fill="#313133"/>
<path id="Vector_11" d="M92.2441 358.931V339.996H56.6018V358.931H92.2441Z" fill="#3B3B3D"/>
<path id="Vector_12" d="M92.2441 358.931V349.464H56.6018V358.931H92.2441Z" fill="#313133"/>
<path id="Vector_13" d="M31.0488 212.995C48.0369 212.995 61.8085 195.338 61.8085 173.557C61.8085 151.776 48.0369 134.119 31.0488 134.119C14.0607 134.119 0.289062 151.776 0.289062 173.557C0.289062 195.338 14.0607 212.995 31.0488 212.995Z" fill="#3B3B3D"/>
<path id="Vector_14" d="M31.0488 213.013C14.0516 213.013 0.280273 195.358 0.280273 173.566H61.8085C61.8085 195.341 48.0372 213.013 31.0488 213.013Z" fill="#313133"/>
<path id="Vector_15" d="M92.2441 183.033V164.099H56.6018V183.033H92.2441Z" fill="#3B3B3D"/>
<path id="Vector_16" d="M92.2441 183.033V173.566H56.6018V183.033H92.2441Z" fill="#313133"/>
</g>
<path id="2" opacity="0.3" d="M0.280273 349.455C0.280273 327.68 14.0516 310.008 31.0488 310.008C45.4863 310.008 57.6009 322.78 60.9144 339.988H92.2439V358.914H60.9144C57.6009 376.121 45.4863 388.893 31.0488 388.893C14.0516 388.893 0.280273 371.23 0.280273 349.446V349.455Z" fill="#2BCF2E"/>
<g id="&#208;&#147;&#209;&#128;&#208;&#184;&#209;&#132;">
<path id="Vector_17" d="M72.6262 405.171C72.6262 405.171 70.4785 418.373 73.1346 429.216C75.3874 438.386 102.571 459.845 111.556 476.29C121.829 495.084 127.054 514.86 127.054 535.39V639.038H284.955V535.39C284.955 514.833 290.215 495.066 300.453 476.29C309.438 459.845 336.613 438.386 338.875 429.216C341.504 418.373 338.875 403.471 338.875 403.471L72.6262 405.171Z" fill="#1F2021"/>
<path id="Vector_18" d="M357.546 67.3314C354.522 62.6328 341.969 66.5512 329.679 55.9356C317.836 45.7233 318.844 31.4698 315.075 26.8502C311.305 22.2305 275.251 0.762695 206 0.762695C136.749 0.762695 100.695 22.2568 96.934 26.8677C93.1734 31.4786 94.1727 45.7408 82.3299 55.9532C70.0576 66.5512 57.4872 62.6328 54.4629 67.3489C48.9404 75.9308 88.7729 151.984 88.7729 255.607C88.7729 363.726 70.4783 397.615 73.1344 408.459C75.3873 417.619 102.571 439.078 111.556 455.523C121.829 474.317 127.054 494.093 127.054 514.623V639.038H284.955V514.562C284.955 494.006 290.215 474.238 300.453 455.462C309.438 439.061 336.613 417.602 338.874 408.441C341.504 397.598 323.236 363.735 323.236 255.589C323.236 151.967 363.068 75.9132 357.546 67.3314Z" fill="#303133"/>
<path id="Vector_19" d="M175.88 49.3963C175.88 37.8515 183.498 30.6196 206.009 30.6196C228.52 30.6196 236.129 37.8515 236.129 49.3963C236.129 68.9181 214.345 97.1357 206.009 97.1357C197.673 97.1357 175.88 68.9181 175.88 49.3963Z" fill="#121212"/>
<path id="Vector_20" d="M201.784 63.4568C204.747 66.4197 205.948 79.3758 206.009 84.3285C206.009 79.5336 207.254 66.4372 210.225 63.4656C213.197 60.4939 227.039 59.2491 227.039 59.2491C227.039 59.2491 213.206 57.9956 210.234 55.0327C207.262 52.0698 206.062 39.1225 206 34.1873C206 38.9822 204.755 52.0873 201.793 55.0502C198.83 58.0131 184.962 59.2491 184.962 59.2491C184.962 59.2491 198.821 60.4851 201.784 63.4568Z" fill="#303133"/>
<path id="Vector_21" d="M133.059 205.641C152.187 205.641 167.693 191.076 167.693 173.11C167.693 155.144 152.187 140.58 133.059 140.58C113.931 140.58 98.4243 155.144 98.4243 173.11C98.4243 191.076 113.931 205.641 133.059 205.641Z" fill="#A8A8A8"/>
<g id="Clip path group">
<mask id="mask0_912_8274" style="mask-type:luminance" maskUnits="userSpaceOnUse" x="98" y="140" width="70" height="66">
<g id="clip-path">
<path id="Vector_22" d="M133.059 205.641C152.187 205.641 167.693 191.076 167.693 173.11C167.693 155.144 152.187 140.58 133.059 140.58C113.931 140.58 98.4243 155.144 98.4243 173.11C98.4243 191.076 113.931 205.641 133.059 205.641Z" fill="white"/>
</g>
</mask>
<g mask="url(#mask0_912_8274)">
<g id="Group">
<path id="Vector_23" d="M133.138 139.247C115.01 139.247 100.309 153.054 100.309 170.086C100.309 187.118 115.01 200.925 133.138 200.925V139.247Z" fill="#545454"/>
<path id="Vector_24" d="M133.138 172.137L160.417 187.258C163.292 183.293 165.125 178.669 165.747 173.81C166.369 168.952 165.76 164.015 163.976 159.453L133.146 172.058L133.138 172.137Z" fill="white"/>
</g>
</g>
</g>
<path id="Vector_25" d="M133.058 194.639C146.604 194.639 157.586 184.329 157.586 171.611C157.586 158.893 146.604 148.583 133.058 148.583C119.512 148.583 108.531 158.893 108.531 171.611C108.531 184.329 119.512 194.639 133.058 194.639Z" fill="#1F1F1F"/>
<path id="Vector_26" d="M133.059 186.54C141.55 186.54 148.434 180.072 148.434 172.093C148.434 164.115 141.55 157.647 133.059 157.647C124.567 157.647 117.683 164.115 117.683 172.093C117.683 180.072 124.567 186.54 133.059 186.54Z" fill="#383838"/>
<path id="Vector_27" d="M133.058 180.43C142.228 180.43 149.661 173.448 149.661 164.835C149.661 156.222 142.228 149.24 133.058 149.24C123.889 149.24 116.456 156.222 116.456 164.835C116.456 173.448 123.889 180.43 133.058 180.43Z" fill="white"/>
<path id="Vector_28" d="M133.059 176.38C141.042 176.38 147.514 170.305 147.514 162.81C147.514 155.316 141.042 149.24 133.059 149.24C125.075 149.24 118.604 155.316 118.604 162.81C118.604 170.305 125.075 176.38 133.059 176.38Z" fill="#AEADAB"/>
<path id="Vector_29" d="M118.112 158.962L133.058 162.81L118.112 166.658V158.962Z" fill="white"/>
<path id="Vector_30" d="M148.005 158.962L133.059 162.81L148.005 166.658V158.962Z" fill="white"/>
<path id="Vector_31" d="M133.059 387.736C152.187 387.736 167.693 373.172 167.693 355.206C167.693 337.239 152.187 322.675 133.059 322.675C113.931 322.675 98.4243 337.239 98.4243 355.206C98.4243 373.172 113.931 387.736 133.059 387.736Z" fill="#A8A8A8"/>
<g id="Clip path group_2">
<mask id="mask1_912_8274" style="mask-type:luminance" maskUnits="userSpaceOnUse" x="98" y="322" width="70" height="66">
<g id="clip-path-2">
<path id="Vector_32" d="M133.059 387.736C152.187 387.736 167.693 373.172 167.693 355.206C167.693 337.239 152.187 322.675 133.059 322.675C113.931 322.675 98.4243 337.239 98.4243 355.206C98.4243 373.172 113.931 387.736 133.059 387.736Z" fill="white"/>
</g>
</mask>
<g mask="url(#mask1_912_8274)">
<g id="Group_2">
<path id="Vector_33" d="M133.138 321.351C115.01 321.351 100.309 335.149 100.309 352.181C100.309 369.213 115.01 383.02 133.138 383.02V321.351Z" fill="#545454"/>
<path id="Vector_34" d="M133.138 354.232L160.417 369.354C164.03 364.356 165.977 358.348 165.984 352.181C165.985 348.545 165.304 344.942 163.976 341.557L133.138 354.145V354.232Z" fill="white"/>
</g>
</g>
</g>
<path id="Vector_35" d="M133.058 376.735C146.604 376.735 157.586 366.424 157.586 353.706C157.586 340.988 146.604 330.678 133.058 330.678C119.512 330.678 108.531 340.988 108.531 353.706C108.531 366.424 119.512 376.735 133.058 376.735Z" fill="#1F1F1F"/>
<path id="Vector_36" d="M133.059 368.635C141.55 368.635 148.434 362.167 148.434 354.188C148.434 346.21 141.55 339.742 133.059 339.742C124.567 339.742 117.683 346.21 117.683 354.188C117.683 362.167 124.567 368.635 133.059 368.635Z" fill="#383838"/>
<path id="Vector_37" d="M133.058 365.383C142.228 365.383 149.661 358.401 149.661 349.788C149.661 341.175 142.228 334.193 133.058 334.193C123.889 334.193 116.456 341.175 116.456 349.788C116.456 358.401 123.889 365.383 133.058 365.383Z" fill="white"/>
<path id="Vector_38" d="M133.059 361.333C141.042 361.333 147.514 355.257 147.514 347.763C147.514 340.269 141.042 334.193 133.059 334.193C125.075 334.193 118.604 340.269 118.604 347.763C118.604 355.257 125.075 361.333 133.059 361.333Z" fill="#AEADAB"/>
<path id="Vector_39" d="M118.112 343.915L133.058 347.763L118.112 351.62V343.915Z" fill="white"/>
<path id="Vector_40" d="M148.005 343.915L133.059 347.763L148.005 351.62V343.915Z" fill="white"/>
<path id="Vector_41" d="M282.29 205.641C301.418 205.641 316.924 191.076 316.924 173.11C316.924 155.144 301.418 140.58 282.29 140.58C263.162 140.58 247.656 155.144 247.656 173.11C247.656 191.076 263.162 205.641 282.29 205.641Z" fill="#A8A8A8"/>
<g id="Clip path group_3">
<mask id="mask2_912_8274" style="mask-type:luminance" maskUnits="userSpaceOnUse" x="247" y="140" width="70" height="66">
<g id="clip-path-3">
<path id="Vector_42" d="M282.29 205.641C301.418 205.641 316.924 191.076 316.924 173.11C316.924 155.144 301.418 140.58 282.29 140.58C263.162 140.58 247.656 155.144 247.656 173.11C247.656 191.076 263.162 205.641 282.29 205.641Z" fill="white"/>
</g>
</mask>
<g mask="url(#mask2_912_8274)">
<g id="Group_3">
<path id="Vector_43" d="M282.369 139.247C264.241 139.247 249.541 153.054 249.541 170.086C249.541 187.118 264.241 200.925 282.369 200.925V139.247Z" fill="#545454"/>
<path id="Vector_44" d="M282.369 172.137L309.649 187.258C313.26 182.25 315.204 176.234 315.206 170.06C315.208 166.421 314.527 162.814 313.199 159.427L282.369 172.032V172.137Z" fill="white"/>
</g>
</g>
</g>
<path id="Vector_45" d="M282.29 194.639C295.836 194.639 306.818 184.329 306.818 171.611C306.818 158.893 295.836 148.583 282.29 148.583C268.744 148.583 257.763 158.893 257.763 171.611C257.763 184.329 268.744 194.639 282.29 194.639Z" fill="#1F1F1F"/>
<path id="Vector_46" d="M282.29 186.54C290.782 186.54 297.666 180.072 297.666 172.093C297.666 164.115 290.782 157.647 282.29 157.647C273.798 157.647 266.915 164.115 266.915 172.093C266.915 180.072 273.798 186.54 282.29 186.54Z" fill="#383838"/>
<path id="Vector_47" d="M282.29 180.43C291.46 180.43 298.893 173.448 298.893 164.835C298.893 156.222 291.46 149.24 282.29 149.24C273.121 149.24 265.688 156.222 265.688 164.835C265.688 173.448 273.121 180.43 282.29 180.43Z" fill="white"/>
<path id="Vector_48" d="M282.29 176.38C290.273 176.38 296.745 170.305 296.745 162.81C296.745 155.316 290.273 149.24 282.29 149.24C274.307 149.24 267.835 155.316 267.835 162.81C267.835 170.305 274.307 176.38 282.29 176.38Z" fill="#AEADAB"/>
<path id="Vector_49" d="M267.353 158.962L282.29 162.81L267.353 166.658V158.962Z" fill="white"/>
<path id="Vector_50" d="M297.236 158.962L282.29 162.81L297.236 166.658V158.962Z" fill="white"/>
<path id="Vector_51" d="M282.29 387.736C301.418 387.736 316.924 373.172 316.924 355.206C316.924 337.239 301.418 322.675 282.29 322.675C263.162 322.675 247.656 337.239 247.656 355.206C247.656 373.172 263.162 387.736 282.29 387.736Z" fill="#A8A8A8"/>
<g id="Clip path group_4">
<mask id="mask3_912_8274" style="mask-type:luminance" maskUnits="userSpaceOnUse" x="247" y="322" width="70" height="66">
<g id="clip-path-4">
<path id="Vector_52" d="M282.29 387.736C301.418 387.736 316.924 373.172 316.924 355.206C316.924 337.239 301.418 322.675 282.29 322.675C263.162 322.675 247.656 337.239 247.656 355.206C247.656 373.172 263.162 387.736 282.29 387.736Z" fill="white"/>
</g>
</mask>
<g mask="url(#mask3_912_8274)">
<g id="Group_4">
<path id="Vector_53" d="M282.369 321.351C264.241 321.351 249.541 335.149 249.541 352.181C249.541 369.213 264.241 383.02 282.369 383.02V321.351Z" fill="#545454"/>
<path id="Vector_54" d="M282.369 354.232L309.649 369.354C313.254 364.353 315.198 358.346 315.206 352.181C315.208 348.545 314.527 344.942 313.199 341.557L282.369 354.145V354.232Z" fill="white"/>
</g>
</g>
</g>
<path id="Vector_55" d="M282.29 376.735C295.836 376.735 306.818 366.424 306.818 353.706C306.818 340.988 295.836 330.678 282.29 330.678C268.744 330.678 257.763 340.988 257.763 353.706C257.763 366.424 268.744 376.735 282.29 376.735Z" fill="#1F1F1F"/>
<path id="Vector_56" d="M282.29 368.635C290.782 368.635 297.666 362.167 297.666 354.188C297.666 346.21 290.782 339.742 282.29 339.742C273.798 339.742 266.915 346.21 266.915 354.188C266.915 362.167 273.798 368.635 282.29 368.635Z" fill="#383838"/>
<path id="Vector_57" d="M282.29 365.383C291.46 365.383 298.893 358.401 298.893 349.788C298.893 341.175 291.46 334.193 282.29 334.193C273.121 334.193 265.688 341.175 265.688 349.788C265.688 358.401 273.121 365.383 282.29 365.383Z" fill="white"/>
<path id="Vector_58" d="M282.29 361.333C290.273 361.333 296.745 355.257 296.745 347.763C296.745 340.269 290.273 334.193 282.29 334.193C274.307 334.193 267.835 340.269 267.835 347.763C267.835 355.257 274.307 361.333 282.29 361.333Z" fill="#AEADAB"/>
<path id="Vector_59" d="M267.353 343.915L282.29 347.763L267.353 351.62V343.915Z" fill="white"/>
<path id="Vector_60" d="M297.236 343.915L282.29 347.763L297.236 351.62V343.915Z" fill="white"/>
<path id="Vector_61" d="M129.736 517.034H282.168C282.565 517.034 282.958 517.112 283.325 517.264C283.692 517.416 284.025 517.639 284.306 517.919C284.587 518.2 284.81 518.534 284.962 518.901C285.114 519.268 285.192 519.661 285.192 520.058V536.915H126.738V520.058C126.738 519.26 127.053 518.495 127.615 517.929C128.176 517.362 128.939 517.041 129.736 517.034Z" fill="#46464A"/>
<path id="Vector_62" d="M130.92 532.655H281.01C282.119 532.655 283.183 533.095 283.967 533.879C284.751 534.664 285.192 535.727 285.192 536.836V536.906H126.738V536.836C126.738 535.727 127.179 534.664 127.963 533.879C128.747 533.095 129.811 532.655 130.92 532.655Z" fill="#1F2021"/>
<path id="Vector_63" d="M284.955 515.526C284.955 494.97 290.215 475.203 300.453 456.426C309.438 439.981 336.613 418.522 338.874 409.37C341.504 398.527 323.236 364.664 323.236 256.518C323.236 152.896 363.068 76.8161 357.546 68.2606C354.522 63.562 341.969 67.4804 329.679 56.8648C317.836 46.6612 318.844 32.4341 315.075 27.7881C311.305 23.1422 275.251 1.68311 206 1.68311C136.749 1.68311 100.695 23.1772 96.934 27.7881C93.1734 32.399 94.1727 46.6612 82.3299 56.8736C70.0576 67.4716 57.4872 63.5532 54.4629 68.2693C48.9404 76.8512 88.7729 152.905 88.7729 256.527C88.7729 364.646 70.4783 398.536 73.1344 409.379C75.3873 418.539 102.571 439.999 111.556 456.443C121.829 475.238 127.054 495.014 127.054 515.544" stroke="white" stroke-width="2" stroke-miterlimit="10"/>
</g>
<g id="&#208;&#161;&#209;&#130;&#209;&#128;&#209;&#131;&#208;&#189;&#209;&#139;">
<path id="Vector_64" d="M272.061 363.13V638.162" stroke="#A8A8A8" stroke-width="2" stroke-miterlimit="10" stroke-linecap="round"/>
<path id="Vector_65" d="M229.248 638.162V515.605L267.607 173.68" stroke="#A8A8A8" stroke-width="2" stroke-miterlimit="10" stroke-linecap="round"/>
<path id="Vector_66" d="M143.648 363.13V638.162" stroke="#A8A8A8" stroke-width="2" stroke-miterlimit="10" stroke-linecap="round"/>
<path id="Vector_67" d="M186.452 638.162V515.605L148.092 173.68" stroke="#A8A8A8" stroke-width="2" stroke-miterlimit="10" stroke-linecap="round"/>
</g>
<path id="2_2" d="M143.648 364.05V638.6" stroke="#2BCF2E" stroke-width="2" stroke-miterlimit="10" stroke-linecap="round"/>
</g>
<defs>
<clipPath id="clip0_912_8274">
<rect width="412" height="639.915" fill="white"/>
</clipPath>
</defs>
</svg>
