<svg width="412" height="654" viewBox="0 0 412 654" fill="none" xmlns="http://www.w3.org/2000/svg">
<g clip-path="url(#clip0_912_8622)">
<path d="M398.328 285.924C377.799 285.924 376.838 328.94 315.867 328.94H298.422V343.937H315.867C376.838 343.937 377.799 386.961 398.328 386.961C405.944 386.961 411.824 382.082 411.824 371.823V301.054C411.824 290.803 405.944 285.924 398.328 285.924Z" fill="#3B3B3D"/>
<path d="M315.867 336.447H298.422V343.946H315.867C376.838 343.946 377.799 386.97 398.328 386.97C405.944 386.97 411.824 382.091 411.824 371.832V336.447H315.867Z" fill="#303133"/>
<path d="M370.068 134.869C349.539 134.869 348.578 177.893 287.598 177.893H270.153V192.89H287.598C348.578 192.89 349.539 235.905 370.068 235.905C377.684 235.905 383.563 231.027 383.563 220.776V149.972C383.563 139.747 377.684 134.869 370.068 134.869Z" fill="#3B3B3D"/>
<path d="M287.598 185.391H270.153V192.899H287.598C348.578 192.899 349.539 235.914 370.068 235.914C377.684 235.914 383.563 231.035 383.563 220.784V185.391H287.598Z" fill="#303133"/>
<path d="M14.2009 260.65C34.7303 260.65 35.6911 303.674 96.6624 303.674H114.107V318.672H96.6624C35.6911 318.672 34.7303 361.687 14.2009 361.687C6.58497 361.687 0.705566 356.808 0.705566 346.557V275.789C0.705566 265.538 6.58497 260.65 14.2009 260.65Z" fill="#3B3B3D"/>
<path d="M96.6624 311.173H114.107V318.68H96.6624C35.6911 318.68 34.7303 361.695 14.2009 361.695C6.58497 361.695 0.705566 356.817 0.705566 346.566V311.173H96.6624Z" fill="#303133"/>
<path d="M45.4753 77.9146C66.0047 77.9146 66.9655 120.939 127.946 120.939H145.39V135.936H127.946C66.9655 135.936 66.0047 178.951 45.4753 178.951C37.8594 178.951 31.98 174.073 31.98 163.822V93.0528C31.98 82.793 37.9035 77.9146 45.4753 77.9146Z" fill="#3B3B3D"/>
<path d="M127.946 128.437H145.39V135.944H127.946C66.9655 135.944 66.0047 178.96 45.4753 178.96C37.8594 178.96 31.98 174.081 31.98 163.83V128.437H127.946Z" fill="#303133"/>
<g opacity="0.3">
<path d="M370.068 134.868C349.539 134.868 348.578 177.892 287.598 177.892H270.153V192.889H287.598C348.578 192.889 349.539 235.905 370.068 235.905C377.684 235.905 383.563 231.026 383.563 220.775V149.971C383.563 139.747 377.684 134.868 370.068 134.868Z" fill="#2BCF2E"/>
</g>
<path d="M297.532 263.34C287.166 208.443 279.092 141.753 279.092 69.8662C279.092 51.5976 261.798 64.3856 239.708 65.3722C212.885 66.6236 154.664 7.31445 135.21 7.31445C131.737 7.31445 129.745 9.99081 129.745 16.3026C129.745 118.89 120.577 203.556 109.198 267.798C100.577 316.465 75.1992 367.645 75.1992 372.787V394.509C75.1992 410.741 142.35 419.226 142.35 505.637V652.816H270.163V505.628C270.163 425.968 337.296 410.987 337.296 394.509V372.787C337.331 361.205 307.916 318.292 297.532 263.34Z" fill="#1F2021"/>
<path d="M297.4 248.011C287.034 195.015 278.959 130.654 278.959 61.2672C278.959 43.634 261.665 55.9772 239.575 56.9294C212.752 58.1284 154.531 0.882324 135.077 0.882324C131.604 0.882324 129.612 3.46558 129.612 9.55785C129.612 108.586 120.445 190.298 109.065 252.305C96.0983 322.961 75.0664 363.764 75.0664 374.618C75.0664 390.276 142.217 398.475 142.217 481.871L142.217 652.816H270.03V481.863C270.03 404.973 337.163 390.523 337.163 374.618C337.198 358.466 311.098 317.971 297.4 248.011Z" fill="#303133"/>
<path d="M178.146 161.992C196.095 161.992 210.646 148.323 210.646 131.461C210.646 114.598 196.095 100.929 178.146 100.929C160.197 100.929 145.646 114.598 145.646 131.461C145.646 148.323 160.197 161.992 178.146 161.992Z" fill="#A8A8A8"/>
<mask id="mask0_912_8622" style="mask-type:luminance" maskUnits="userSpaceOnUse" x="145" y="100" width="66" height="62">
<path d="M178.146 161.992C196.095 161.992 210.646 148.323 210.646 131.461C210.646 114.598 196.095 100.929 178.146 100.929C160.197 100.929 145.646 114.598 145.646 131.461C145.646 148.323 160.197 161.992 178.146 161.992Z" fill="white"/>
</mask>
<g mask="url(#mask0_912_8622)">
<path d="M178.225 99.6768C161.204 99.6768 147.374 112.637 147.374 128.622C147.374 144.606 161.169 157.558 178.225 157.558V99.6768Z" fill="#545454"/>
<path d="M178.225 130.544L203.788 144.739C206.482 141.015 208.2 136.675 208.783 132.116C209.367 127.557 208.798 122.924 207.129 118.642L178.225 130.482V130.544Z" fill="white"/>
</g>
<path d="M178.146 151.669C190.857 151.669 201.161 141.99 201.161 130.05C201.161 118.111 190.857 108.432 178.146 108.432C165.435 108.432 155.131 118.111 155.131 130.05C155.131 141.99 165.435 151.669 178.146 151.669Z" fill="#1F1F1F"/>
<path d="M178.145 144.069C186.115 144.069 192.575 137.998 192.575 130.509C192.575 123.02 186.115 116.949 178.145 116.949C170.176 116.949 163.716 123.02 163.716 130.509C163.716 137.998 170.176 144.069 178.145 144.069Z" fill="#383838"/>
<path d="M178.145 138.32C186.752 138.32 193.73 131.767 193.73 123.684C193.73 115.601 186.752 109.049 178.145 109.049C169.538 109.049 162.561 115.601 162.561 123.684C162.561 131.767 169.538 138.32 178.145 138.32Z" fill="white"/>
<path d="M178.146 134.529C185.633 134.529 191.703 128.825 191.703 121.789C191.703 114.753 185.633 109.049 178.146 109.049C170.659 109.049 164.589 114.753 164.589 121.789C164.589 128.825 170.659 134.529 178.146 134.529Z" fill="#AEADAB"/>
<path d="M164.122 118.174L178.146 121.789L164.122 125.404V118.174Z" fill="white"/>
<path d="M192.17 118.174L178.146 121.789L192.17 125.404V118.174Z" fill="white"/>
<path d="M146.854 337.196C164.803 337.196 179.354 323.526 179.354 306.664C179.354 289.802 164.803 276.132 146.854 276.132C128.905 276.132 114.354 289.802 114.354 306.664C114.354 323.526 128.905 337.196 146.854 337.196Z" fill="#A8A8A8"/>
<mask id="mask1_912_8622" style="mask-type:luminance" maskUnits="userSpaceOnUse" x="114" y="276" width="66" height="62">
<path d="M146.854 337.196C164.803 337.196 179.354 323.526 179.354 306.664C179.354 289.802 164.803 276.132 146.854 276.132C128.905 276.132 114.354 289.802 114.354 306.664C114.354 323.526 128.905 337.196 146.854 337.196Z" fill="white"/>
</mask>
<g mask="url(#mask1_912_8622)">
<path d="M146.933 274.88C129.912 274.88 116.082 287.84 116.082 303.825C116.082 319.809 129.877 332.761 146.933 332.761V274.88Z" fill="#545454"/>
<path d="M146.933 305.747L172.496 319.941C175.19 316.218 176.908 311.878 177.492 307.319C178.075 302.759 177.506 298.127 175.837 293.844L146.907 305.676L146.933 305.747Z" fill="white"/>
</g>
<path d="M146.854 326.871C159.565 326.871 169.869 317.193 169.869 305.253C169.869 293.314 159.565 283.635 146.854 283.635C134.143 283.635 123.839 293.314 123.839 305.253C123.839 317.193 134.143 326.871 146.854 326.871Z" fill="#1F1F1F"/>
<path d="M146.854 319.262C154.823 319.262 161.284 313.191 161.284 305.702C161.284 298.214 154.823 292.143 146.854 292.143C138.885 292.143 132.424 298.214 132.424 305.702C132.424 313.191 138.885 319.262 146.854 319.262Z" fill="#383838"/>
<path d="M146.853 316.212C155.46 316.212 162.438 309.659 162.438 301.576C162.438 293.493 155.46 286.941 146.853 286.941C138.246 286.941 131.269 293.493 131.269 301.576C131.269 309.659 138.246 316.212 146.853 316.212Z" fill="white"/>
<path d="M146.854 312.412C154.341 312.412 160.411 306.708 160.411 299.672C160.411 292.636 154.341 286.932 146.854 286.932C139.367 286.932 133.297 292.636 133.297 299.672C133.297 306.708 139.367 312.412 146.854 312.412Z" fill="#AEADAB"/>
<path d="M132.83 296.066L146.854 299.672L132.83 303.287V296.066Z" fill="white"/>
<path d="M160.878 296.066L146.854 299.672L160.878 303.287V296.066Z" fill="white"/>
<path d="M236.852 223.63C254.801 223.63 269.352 209.96 269.352 193.098C269.352 176.235 254.801 162.566 236.852 162.566C218.903 162.566 204.352 176.235 204.352 193.098C204.352 209.96 218.903 223.63 236.852 223.63Z" fill="#A8A8A8"/>
<mask id="mask2_912_8622" style="mask-type:luminance" maskUnits="userSpaceOnUse" x="204" y="162" width="66" height="62">
<path d="M236.852 223.63C254.801 223.63 269.352 209.96 269.352 193.098C269.352 176.235 254.801 162.566 236.852 162.566C218.903 162.566 204.352 176.235 204.352 193.098C204.352 209.96 218.903 223.63 236.852 223.63Z" fill="white"/>
</mask>
<g mask="url(#mask2_912_8622)">
<path d="M236.932 161.34C219.91 161.34 206.08 174.3 206.08 190.285C206.08 206.269 219.875 219.221 236.932 219.221V161.34Z" fill="#545454"/>
<path d="M236.931 192.198L262.494 206.393C265.188 202.669 266.906 198.329 267.489 193.77C268.073 189.211 267.504 184.578 265.835 180.295L236.931 192.11V192.198Z" fill="white"/>
</g>
<path d="M236.852 213.305C249.563 213.305 259.867 203.626 259.867 191.687C259.867 179.747 249.563 170.068 236.852 170.068C224.141 170.068 213.836 179.747 213.836 191.687C213.836 203.626 224.141 213.305 236.852 213.305Z" fill="#1F1F1F"/>
<path d="M236.852 205.705C244.821 205.705 251.281 199.634 251.281 192.145C251.281 184.656 244.821 178.585 236.852 178.585C228.882 178.585 222.422 184.656 222.422 192.145C222.422 199.634 228.882 205.705 236.852 205.705Z" fill="#383838"/>
<path d="M236.852 199.965C245.459 199.965 252.436 193.413 252.436 185.33C252.436 177.247 245.459 170.694 236.852 170.694C228.244 170.694 221.267 177.247 221.267 185.33C221.267 193.413 228.244 199.965 236.852 199.965Z" fill="white"/>
<path d="M236.852 196.165C244.339 196.165 250.409 190.462 250.409 183.426C250.409 176.389 244.339 170.686 236.852 170.686C229.365 170.686 223.295 176.389 223.295 183.426C223.295 190.462 229.365 196.165 236.852 196.165Z" fill="#AEADAB"/>
<path d="M222.827 179.811L236.851 183.426L222.827 187.041V179.811Z" fill="white"/>
<path d="M250.876 179.811L236.852 183.426L250.876 187.041V179.811Z" fill="white"/>
<path d="M265.799 373.009C283.748 373.009 298.298 359.339 298.298 342.477C298.298 325.615 283.748 311.945 265.799 311.945C247.849 311.945 233.299 325.615 233.299 342.477C233.299 359.339 247.849 373.009 265.799 373.009Z" fill="#A8A8A8"/>
<mask id="mask3_912_8622" style="mask-type:luminance" maskUnits="userSpaceOnUse" x="233" y="311" width="66" height="63">
<path d="M265.799 373.009C283.748 373.009 298.299 359.339 298.299 342.477C298.299 325.615 283.748 311.945 265.799 311.945C247.85 311.945 233.299 325.615 233.299 342.477C233.299 359.339 247.85 373.009 265.799 373.009Z" fill="white"/>
</mask>
<g mask="url(#mask3_912_8622)">
<path d="M265.869 310.702C248.857 310.702 235.062 323.653 235.062 339.638C235.062 355.622 248.857 368.583 265.869 368.583V310.702Z" fill="#545454"/>
<path d="M265.87 341.568L291.432 355.754C294.821 351.064 296.647 345.425 296.651 339.638C296.655 336.225 296.018 332.843 294.773 329.666L265.843 341.498L265.87 341.568Z" fill="white"/>
</g>
<path d="M265.799 362.685C278.51 362.685 288.815 353.006 288.815 341.067C288.815 329.127 278.51 319.448 265.799 319.448C253.088 319.448 242.784 329.127 242.784 341.067C242.784 353.006 253.088 362.685 265.799 362.685Z" fill="#1F1F1F"/>
<path d="M265.799 355.085C273.768 355.085 280.228 349.014 280.228 341.525C280.228 334.036 273.768 327.965 265.799 327.965C257.83 327.965 251.369 334.036 251.369 341.525C251.369 349.014 257.83 355.085 265.799 355.085Z" fill="#383838"/>
<path d="M265.799 352.025C274.406 352.025 281.384 345.472 281.384 337.389C281.384 329.306 274.406 322.754 265.799 322.754C257.192 322.754 250.215 329.306 250.215 337.389C250.215 345.472 257.192 352.025 265.799 352.025Z" fill="white"/>
<path d="M265.799 348.234C273.287 348.234 279.356 342.53 279.356 335.494C279.356 328.458 273.287 322.754 265.799 322.754C258.312 322.754 252.242 328.458 252.242 335.494C252.242 342.53 258.312 348.234 265.799 348.234Z" fill="#AEADAB"/>
<path d="M251.775 331.879L265.799 335.494L251.775 339.109V331.879Z" fill="white"/>
<path d="M279.815 331.879L265.799 335.494L279.815 339.109V331.879Z" fill="white"/>
<path d="M279.092 61.7832C279.092 44.1501 261.797 56.4933 239.708 57.4455C212.885 58.6533 154.663 1.40723 135.218 1.40723C154.663 1.40723 216.093 76.7538 240.836 78.8962C261.427 80.686 279.092 44.1853 279.092 61.7832Z" fill="#46464A"/>
<path d="M142.059 463.837H270.471" stroke="#46464A" stroke-width="3" stroke-miterlimit="10" stroke-linecap="round"/>
<path d="M176.294 515.29C176.294 503.494 184.069 496.097 207.067 496.097C230.064 496.097 237.839 503.494 237.839 515.29C237.839 535.234 215.59 564.064 207.067 564.064C198.543 564.064 176.294 535.234 176.294 515.29Z" fill="#121212"/>
<path d="M202.739 529.653C205.762 532.686 206.996 545.919 207.049 550.98C207.049 546.087 208.327 532.695 211.36 529.662C214.392 526.629 228.531 525.35 228.531 525.35C228.531 525.35 214.427 524.072 211.36 521.048C208.292 518.024 207.102 504.781 207.041 499.72C207.041 504.622 205.771 518.015 202.748 521.039C199.724 524.063 185.559 525.35 185.559 525.35C185.559 525.35 199.689 526.629 202.739 529.653Z" fill="#303133"/>
<path d="M271.617 463.837C281.313 403.003 337.331 389.672 337.331 375.134C337.331 358.982 311.231 318.496 297.532 248.527C287.166 195.54 279.092 131.17 279.092 61.7832C279.092 44.1501 261.798 56.4933 239.708 57.4455C212.885 58.6533 154.664 1.40723 135.21 1.40723C131.737 1.40723 129.745 3.99049 129.745 10.0828C129.745 109.102 120.577 190.823 109.198 252.83C96.2311 323.477 75.1992 364.289 75.1992 375.134C75.1992 389.549 132.072 397.642 141.133 463.837" stroke="white" stroke-width="2" stroke-miterlimit="10"/>
<path d="M188.838 41.901C194.374 46.6972 201.875 53.3625 207.419 57.956C216.842 65.4942 226.3 74.0551 237.909 77.9079C245.966 80.2619 253.934 75.739 260.131 70.8546C263.357 68.3507 266.346 65.5647 269.36 62.7786C266.478 65.6881 263.551 68.5623 260.404 71.1985C254.234 76.3033 245.984 81.0819 237.698 78.6573C229.765 76.2592 223.012 71.1897 216.49 66.2436C206.793 58.6966 197.75 50.3208 188.838 41.8745V41.901Z" fill="#6D6D73"/>
<path d="M191.579 131.939V652.848" stroke="#A8A8A8" stroke-width="2" stroke-miterlimit="10" stroke-linecap="round"/>
<path d="M160.19 312.908V652.848" stroke="#A8A8A8" stroke-width="2" stroke-miterlimit="10" stroke-linecap="round"/>
<path d="M254.349 350.318V652.848" stroke="#A8A8A8" stroke-width="2" stroke-miterlimit="10" stroke-linecap="round"/>
<path d="M222.959 193.499V652.848" stroke="#A8A8A8" stroke-width="2" stroke-miterlimit="10" stroke-linecap="round"/>
<path d="M222.959 195.086V652.843" stroke="#2BCF2E" stroke-width="2" stroke-miterlimit="10" stroke-linecap="round"/>
</g>
<defs>
<clipPath id="clip0_912_8622">
<rect width="412" height="653.73" fill="white"/>
</clipPath>
</defs>
</svg>
