<svg width="412" height="654" viewBox="0 0 412 654" fill="none" xmlns="http://www.w3.org/2000/svg">
<g clip-path="url(#clip0_912_8706)">
<path d="M398.328 288.243C377.799 288.243 376.838 331.209 315.867 331.209H298.422V346.189H315.867C376.838 346.189 377.799 389.164 398.328 389.164C405.944 389.164 411.824 384.291 411.824 374.043V303.355C411.824 293.116 405.944 288.243 398.328 288.243Z" fill="#3B3B3D"/>
<path d="M315.867 338.708H298.422V346.198H315.867C376.838 346.198 377.799 389.173 398.328 389.173C405.944 389.173 411.824 384.3 411.824 374.052V338.708H315.867Z" fill="#303133"/>
<path d="M370.068 137.358C349.539 137.358 348.578 180.333 287.598 180.333H270.153V195.313H287.598C348.578 195.313 349.539 238.28 370.068 238.28C377.684 238.28 383.563 233.407 383.563 223.167V152.444C383.563 142.231 377.684 137.358 370.068 137.358Z" fill="#3B3B3D"/>
<path d="M287.598 187.823H270.153V195.322H287.598C348.578 195.322 349.539 238.288 370.068 238.288C377.684 238.288 383.563 233.415 383.563 223.176V187.823H287.598Z" fill="#303133"/>
<path d="M14.2009 262.997C34.7303 262.997 35.6911 305.972 96.6624 305.972H114.107V320.952H96.6624C35.6911 320.952 34.7303 363.918 14.2009 363.918C6.58497 363.918 0.705566 359.045 0.705566 348.806V278.118C0.705566 267.879 6.58497 262.997 14.2009 262.997Z" fill="#3B3B3D"/>
<path d="M96.6624 313.462H114.107V320.961H96.6624C35.6911 320.961 34.7303 363.927 14.2009 363.927C6.58497 363.927 0.705566 359.054 0.705566 348.815V313.462H96.6624Z" fill="#303133"/>
<path d="M45.4753 80.4692C66.0047 80.4692 66.9655 123.444 127.946 123.444H145.39V138.424H127.946C66.9655 138.424 66.0047 181.39 45.4753 181.39C37.8594 181.39 31.98 176.518 31.98 166.278V95.5902C31.98 85.3422 37.9035 80.4692 45.4753 80.4692Z" fill="#3B3B3D"/>
<path d="M127.946 130.935H145.39V138.434H127.946C66.966 138.434 66.0052 181.4 45.4758 181.4C37.8599 181.4 31.9805 176.527 31.9805 166.288V130.935H127.946Z" fill="#303133"/>
<g opacity="0.3">
<path d="M398.328 288.242C377.799 288.242 376.838 331.208 315.867 331.208H298.422V346.188H315.867C376.838 346.188 377.799 389.163 398.328 389.163C405.944 389.163 411.824 384.291 411.824 374.042V303.354C411.824 293.115 405.944 288.242 398.328 288.242Z" fill="#2BCF2E"/>
</g>
<path d="M297.532 268.283C287.166 215.356 279.092 151.059 279.092 81.7519C279.092 64.1389 261.797 76.468 239.708 77.4191C212.884 78.6256 154.663 21.4448 135.209 21.4448C131.736 21.4448 129.744 24.0251 129.744 30.1104C129.744 129.017 120.577 210.644 109.197 272.581C100.576 319.502 75.1987 368.845 75.1987 373.803V394.745C75.1987 410.394 142.349 418.575 142.349 501.885V651.191H270.162V501.876C270.162 425.075 337.295 410.632 337.295 394.745V373.803C337.33 362.636 307.916 321.263 297.532 268.283Z" fill="#1F2021"/>
<path d="M297.532 247.341C287.166 194.405 279.092 130.117 279.092 60.8101C279.092 43.197 261.797 55.5261 239.708 56.4772C212.884 57.6749 154.663 0.494141 135.209 0.494141C131.736 0.494141 129.744 3.07445 129.744 9.15976C129.744 108.075 120.577 189.694 109.197 251.63C96.2306 322.205 75.1987 362.962 75.1987 373.803C75.1987 389.443 142.349 397.633 142.349 480.934V652.46H270.162V480.926C270.162 404.124 337.295 389.69 337.295 373.803C337.33 357.669 311.23 317.221 297.532 247.341Z" fill="#303133"/>
<path d="M178.145 162.693C196.094 162.693 210.645 149.039 210.645 132.196C210.645 115.353 196.094 101.699 178.145 101.699C160.196 101.699 145.646 115.353 145.646 132.196C145.646 149.039 160.196 162.693 178.145 162.693Z" fill="#A8A8A8"/>
<mask id="mask0_912_8706" style="mask-type:luminance" maskUnits="userSpaceOnUse" x="145" y="101" width="66" height="62">
<path d="M178.145 162.693C196.094 162.693 210.645 149.039 210.645 132.196C210.645 115.353 196.094 101.699 178.145 101.699C160.196 101.699 145.646 115.353 145.646 132.196C145.646 149.039 160.196 162.693 178.145 162.693Z" fill="white"/>
</mask>
<g mask="url(#mask0_912_8706)">
<path d="M178.225 100.449C161.204 100.449 147.374 113.394 147.374 129.361C147.374 145.327 161.169 158.264 178.225 158.264V100.449Z" fill="#545454"/>
<path d="M178.225 131.28L203.787 145.459C206.482 141.74 208.199 137.405 208.783 132.851C209.367 128.297 208.798 123.669 207.128 119.392L178.225 131.219V131.28Z" fill="white"/>
</g>
<path d="M178.146 152.381C190.857 152.381 201.161 142.713 201.161 130.787C201.161 118.862 190.857 109.194 178.146 109.194C165.435 109.194 155.13 118.862 155.13 130.787C155.13 142.713 165.435 152.381 178.146 152.381Z" fill="#1F1F1F"/>
<path d="M178.145 144.789C186.115 144.789 192.575 138.725 192.575 131.245C192.575 123.764 186.115 117.7 178.145 117.7C170.176 117.7 163.716 123.764 163.716 131.245C163.716 138.725 170.176 144.789 178.145 144.789Z" fill="#383838"/>
<path d="M178.145 139.047C186.752 139.047 193.73 132.502 193.73 124.428C193.73 116.355 186.752 109.81 178.145 109.81C169.538 109.81 162.561 116.355 162.561 124.428C162.561 132.502 169.538 139.047 178.145 139.047Z" fill="white"/>
<path d="M178.145 135.26C185.633 135.26 191.702 129.563 191.702 122.535C191.702 115.507 185.633 109.81 178.145 109.81C170.658 109.81 164.588 115.507 164.588 122.535C164.588 129.563 170.658 135.26 178.145 135.26Z" fill="#AEADAB"/>
<path d="M164.121 118.924L178.145 122.535L164.121 126.146V118.924Z" fill="white"/>
<path d="M192.17 118.924L178.146 122.535L192.17 126.146V118.924Z" fill="white"/>
<path d="M146.853 337.696C164.802 337.696 179.353 324.042 179.353 307.199C179.353 290.356 164.802 276.702 146.853 276.702C128.904 276.702 114.354 290.356 114.354 307.199C114.354 324.042 128.904 337.696 146.853 337.696Z" fill="#A8A8A8"/>
<mask id="mask1_912_8706" style="mask-type:luminance" maskUnits="userSpaceOnUse" x="114" y="276" width="66" height="62">
<path d="M146.853 337.696C164.802 337.696 179.353 324.042 179.353 307.199C179.353 290.356 164.802 276.702 146.853 276.702C128.904 276.702 114.354 290.356 114.354 307.199C114.354 324.042 128.904 337.696 146.853 337.696Z" fill="white"/>
</mask>
<g mask="url(#mask1_912_8706)">
<path d="M146.933 275.452C129.911 275.452 116.081 288.398 116.081 304.364C116.081 320.33 129.876 333.267 146.933 333.267V275.452Z" fill="#545454"/>
<path d="M146.933 306.283L172.495 320.461C175.19 316.742 176.907 312.407 177.491 307.853C178.075 303.299 177.506 298.672 175.836 294.394L146.906 306.212L146.933 306.283Z" fill="white"/>
</g>
<path d="M146.854 327.384C159.565 327.384 169.869 317.716 169.869 305.79C169.869 293.864 159.565 284.196 146.854 284.196C134.143 284.196 123.838 293.864 123.838 305.79C123.838 317.716 134.143 327.384 146.854 327.384Z" fill="#1F1F1F"/>
<path d="M146.853 319.784C154.823 319.784 161.283 313.72 161.283 306.239C161.283 298.759 154.823 292.695 146.853 292.695C138.884 292.695 132.424 298.759 132.424 306.239C132.424 313.72 138.884 319.784 146.853 319.784Z" fill="#383838"/>
<path d="M146.853 316.737C155.46 316.737 162.438 310.192 162.438 302.118C162.438 294.044 155.46 287.499 146.853 287.499C138.246 287.499 131.269 294.044 131.269 302.118C131.269 310.192 138.246 316.737 146.853 316.737Z" fill="white"/>
<path d="M146.854 312.941C154.341 312.941 160.411 307.244 160.411 300.216C160.411 293.188 154.341 287.49 146.854 287.49C139.367 287.49 133.297 293.188 133.297 300.216C133.297 307.244 139.367 312.941 146.854 312.941Z" fill="#AEADAB"/>
<path d="M132.829 296.613L146.853 300.215L132.829 303.826V296.613Z" fill="white"/>
<path d="M160.878 296.613L146.854 300.215L160.878 303.826V296.613Z" fill="white"/>
<path d="M236.851 224.26C254.801 224.26 269.351 210.606 269.351 193.763C269.351 176.92 254.801 163.266 236.851 163.266C218.902 163.266 204.352 176.92 204.352 193.763C204.352 210.606 218.902 224.26 236.851 224.26Z" fill="#A8A8A8"/>
<mask id="mask2_912_8706" style="mask-type:luminance" maskUnits="userSpaceOnUse" x="204" y="163" width="66" height="62">
<path d="M236.851 224.26C254.801 224.26 269.351 210.606 269.351 193.763C269.351 176.92 254.801 163.266 236.851 163.266C218.902 163.266 204.352 176.92 204.352 193.763C204.352 210.606 218.902 224.26 236.851 224.26Z" fill="white"/>
</mask>
<g mask="url(#mask2_912_8706)">
<path d="M236.931 162.041C219.91 162.041 206.08 174.987 206.08 190.953C206.08 206.919 219.875 219.856 236.931 219.856V162.041Z" fill="#545454"/>
<path d="M236.931 192.863L262.493 207.042C265.188 203.323 266.905 198.988 267.489 194.434C268.073 189.88 267.504 185.252 265.834 180.975L236.931 192.775V192.863Z" fill="white"/>
</g>
<path d="M236.851 213.947C249.562 213.947 259.866 204.279 259.866 192.353C259.866 180.427 249.562 170.759 236.851 170.759C224.14 170.759 213.836 180.427 213.836 192.353C213.836 204.279 224.14 213.947 236.851 213.947Z" fill="#1F1F1F"/>
<path d="M236.852 206.356C244.821 206.356 251.281 200.292 251.281 192.812C251.281 185.331 244.821 179.267 236.852 179.267C228.882 179.267 222.422 185.331 222.422 192.812C222.422 200.292 228.882 206.356 236.852 206.356Z" fill="#383838"/>
<path d="M236.852 200.623C245.459 200.623 252.436 194.078 252.436 186.004C252.436 177.93 245.459 171.385 236.852 171.385C228.244 171.385 221.267 177.93 221.267 186.004C221.267 194.078 228.244 200.623 236.852 200.623Z" fill="white"/>
<path d="M236.851 196.827C244.339 196.827 250.408 191.13 250.408 184.102C250.408 177.074 244.339 171.376 236.851 171.376C229.364 171.376 223.294 177.074 223.294 184.102C223.294 191.13 229.364 196.827 236.851 196.827Z" fill="#AEADAB"/>
<path d="M222.827 180.491L236.851 184.101L222.827 187.712V180.491Z" fill="white"/>
<path d="M250.876 180.491L236.852 184.101L250.876 187.712V180.491Z" fill="white"/>
<path d="M265.799 373.468C283.748 373.468 298.299 359.814 298.299 342.971C298.299 326.128 283.748 312.474 265.799 312.474C247.85 312.474 233.299 326.128 233.299 342.971C233.299 359.814 247.85 373.468 265.799 373.468Z" fill="#A8A8A8"/>
<mask id="mask3_912_8706" style="mask-type:luminance" maskUnits="userSpaceOnUse" x="233" y="312" width="66" height="62">
<path d="M265.799 373.468C283.748 373.468 298.299 359.814 298.299 342.971C298.299 326.128 283.748 312.474 265.799 312.474C247.85 312.474 233.299 326.128 233.299 342.971C233.299 359.814 247.85 373.468 265.799 373.468Z" fill="white"/>
</mask>
<g mask="url(#mask3_912_8706)">
<path d="M265.869 311.232C248.857 311.232 235.062 324.169 235.062 340.135C235.062 356.102 248.857 369.047 265.869 369.047V311.232Z" fill="#545454"/>
<path d="M265.87 342.064L291.432 356.234C294.821 351.548 296.647 345.916 296.651 340.135C296.655 336.727 296.018 333.349 294.773 330.175L265.843 341.994L265.87 342.064Z" fill="white"/>
</g>
<path d="M265.799 363.156C278.51 363.156 288.815 353.488 288.815 341.562C288.815 329.637 278.51 319.969 265.799 319.969C253.088 319.969 242.784 329.637 242.784 341.562C242.784 353.488 253.088 363.156 265.799 363.156Z" fill="#1F1F1F"/>
<path d="M265.799 355.564C273.769 355.564 280.229 349.5 280.229 342.02C280.229 334.54 273.769 328.476 265.799 328.476C257.83 328.476 251.37 334.54 251.37 342.02C251.37 349.5 257.83 355.564 265.799 355.564Z" fill="#383838"/>
<path d="M265.799 352.509C274.406 352.509 281.383 345.964 281.383 337.89C281.383 329.816 274.406 323.271 265.799 323.271C257.192 323.271 250.214 329.816 250.214 337.89C250.214 345.964 257.192 352.509 265.799 352.509Z" fill="white"/>
<path d="M265.799 348.722C273.287 348.722 279.356 343.025 279.356 335.996C279.356 328.968 273.287 323.271 265.799 323.271C258.312 323.271 252.242 328.968 252.242 335.996C252.242 343.025 258.312 348.722 265.799 348.722Z" fill="#AEADAB"/>
<path d="M251.775 332.386L265.799 335.997L251.775 339.608V332.386Z" fill="white"/>
<path d="M279.815 332.386L265.799 335.997L279.815 339.608V332.386Z" fill="white"/>
<path d="M279.091 62.5981C279.091 44.9851 261.797 57.3142 239.707 58.2653C212.884 59.4718 154.663 2.29102 135.218 2.29102C154.663 2.29102 216.093 77.5516 240.836 79.6916C261.427 81.4793 279.091 45.0203 279.091 62.5981Z" fill="#46464A"/>
<path d="M142.058 464.193H270.471" stroke="#46464A" stroke-width="3" stroke-miterlimit="10" stroke-linecap="round"/>
<path d="M176.294 515.588C176.294 503.805 184.069 496.416 207.067 496.416C230.064 496.416 237.839 503.805 237.839 515.588C237.839 535.508 215.59 564.306 207.067 564.306C198.543 564.306 176.294 535.508 176.294 515.588Z" fill="#121212"/>
<path d="M202.739 529.934C205.762 532.963 206.996 546.182 207.049 551.237C207.049 546.349 208.327 532.972 211.36 529.943C214.392 526.913 228.531 525.636 228.531 525.636C228.531 525.636 214.427 524.359 211.36 521.339C208.292 518.318 207.102 505.091 207.041 500.036C207.041 504.932 205.771 518.309 202.748 521.33C199.724 524.35 185.559 525.636 185.559 525.636C185.559 525.636 199.689 526.913 202.739 529.934Z" fill="#303133"/>
<path d="M271.753 464.381C281.47 403.406 337.604 390.044 337.604 375.472C337.604 359.283 311.449 318.704 297.723 248.573C287.335 195.463 279.244 130.944 279.244 61.3974C279.244 43.7235 261.913 56.0953 239.778 57.0496C212.899 58.2603 154.556 0.881836 135.061 0.881836C131.581 0.881836 129.585 3.47107 129.585 9.57742C129.585 108.825 120.398 190.735 108.995 252.886C96.0015 323.696 74.9258 364.603 74.9258 375.472C74.9258 389.921 131.917 398.033 140.997 464.381" stroke="white" stroke-width="2" stroke-miterlimit="10"/>
<path d="M188.838 42.7393C194.374 47.5301 201.875 54.1878 207.419 58.776C216.842 66.3056 226.3 74.8567 237.909 78.7052C245.966 81.0565 253.934 76.5388 260.131 71.66C263.357 69.1589 266.346 66.376 269.36 63.5932C266.478 66.4993 263.551 69.3703 260.404 72.0034C254.234 77.1024 245.984 81.8755 237.698 79.4537C229.765 77.0584 223.012 71.9946 216.49 67.0541C206.793 59.5157 197.75 51.1495 188.838 42.7129V42.7393Z" fill="#6D6D73"/>
<path d="M191.579 134.433V652.072" stroke="#A8A8A8" stroke-width="2" stroke-miterlimit="10" stroke-linecap="round"/>
<path d="M160.19 314.266V652.071" stroke="#A8A8A8" stroke-width="2" stroke-miterlimit="10" stroke-linecap="round"/>
<path d="M254.349 351.441V652.071" stroke="#A8A8A8" stroke-width="2" stroke-miterlimit="10" stroke-linecap="round"/>
<path d="M222.959 195.606V652.072" stroke="#A8A8A8" stroke-width="2" stroke-miterlimit="10" stroke-linecap="round"/>
<path d="M254.349 349.811V652.072" stroke="#2BCF2E" stroke-width="2" stroke-miterlimit="10" stroke-linecap="round"/>
</g>
<defs>
<clipPath id="clip0_912_8706">
<rect width="412" height="653.73" fill="white"/>
</clipPath>
</defs>
</svg>
