<svg width="82" height="90" viewBox="0 0 82 90" fill="none" xmlns="http://www.w3.org/2000/svg">
<g id="Group 16">
<path id="Vector" d="M0.322722 25.4195C0.322723 17.6981 2.86304 11.4549 9.13673 7.12391C15.436 2.77534 25.5427 0.322855 40.7465 0.322855C55.9503 0.322856 66.0571 2.77534 72.3563 7.12391C78.63 11.4549 81.1703 17.6981 81.1703 25.4195C81.1703 38.5351 73.8461 54.614 65.0815 67.4374C60.7033 73.843 55.978 79.418 51.6516 83.3876C49.4882 85.3726 47.4309 86.9502 45.5724 88.0298C43.7078 89.1128 42.0729 89.6771 40.7465 89.6771C39.4201 89.6771 37.7852 89.1128 35.9206 88.0298C34.0621 86.9502 32.0049 85.3726 29.8414 83.3876C25.5151 79.418 20.7897 73.843 16.4115 67.4374C7.64696 54.614 0.322722 38.5351 0.322722 25.4195Z" stroke="#19C63E" stroke-width="0.645715"/>
<path id="Vector_2" d="M35.0332 44.4478C39.0349 48.4495 40.6709 65.9915 40.7464 72.6861C40.7464 66.1928 42.4325 48.4747 46.4593 44.4478C50.4862 40.421 69.1104 38.7599 69.1104 38.7599C69.1104 38.7599 50.3855 37.0485 46.4593 33.0468C42.5332 29.0452 40.8219 11.5284 40.7464 4.80859C40.7464 11.3019 39.0601 29.02 35.0584 33.0468C31.0567 37.0737 12.206 38.7599 12.206 38.7599C12.206 38.7599 31.0315 40.4462 35.0332 44.4478Z" fill="#19C63E"/>
</g>
</svg>
