<svg width="412" height="653" viewBox="0 0 412 653" fill="none" xmlns="http://www.w3.org/2000/svg">
<g clip-path="url(#clip0_912_8024)">
<path d="M398.328 286.454C377.799 286.454 376.838 329.417 315.867 329.417H298.422V344.396H315.867C376.838 344.396 377.799 387.367 398.328 387.367C405.944 387.367 411.824 382.495 411.824 372.247V301.565C411.824 291.327 405.944 286.454 398.328 286.454Z" fill="#3B3B3D"/>
<path d="M315.867 336.915H298.422V344.404H315.867C376.838 344.404 377.799 387.376 398.328 387.376C405.944 387.376 411.824 382.503 411.824 372.256V336.915H315.867Z" fill="#303133"/>
<path d="M370.068 135.583C349.539 135.583 348.578 178.554 287.598 178.554H270.153V193.533H287.598C348.578 193.533 349.539 236.496 370.068 236.496C377.684 236.496 383.563 231.623 383.563 221.385V150.668C383.563 140.456 377.684 135.583 370.068 135.583Z" fill="#3B3B3D"/>
<path d="M287.598 186.044H270.153V193.542H287.598C348.578 193.542 349.539 236.505 370.068 236.505C377.684 236.505 383.563 231.632 383.563 221.394V186.044H287.598Z" fill="#303133"/>
<path d="M14.2009 261.211C34.7303 261.211 35.6911 304.182 96.6624 304.182H114.107V319.161H96.6624C35.6911 319.161 34.7303 362.124 14.2009 362.124C6.58497 362.124 0.705566 357.251 0.705566 347.013V276.331C0.705566 266.092 6.58497 261.211 14.2009 261.211Z" fill="#3B3B3D"/>
<path d="M96.6624 311.671H114.107V319.17H96.6624C35.6911 319.17 34.7303 362.132 14.2009 362.132C6.58497 362.132 0.705566 357.26 0.705566 347.021V311.671H96.6624Z" fill="#303133"/>
<path d="M45.4753 78.6992C66.0047 78.6992 66.9655 121.671 127.946 121.671H145.39V136.649H127.946C66.9655 136.649 66.0047 179.612 45.4753 179.612C37.8594 179.612 31.98 174.74 31.98 164.501V93.819C31.98 83.5717 37.9035 78.6992 45.4753 78.6992Z" fill="#3B3B3D"/>
<path d="M127.946 129.16H145.39V136.658H127.946C66.966 136.658 66.0052 179.621 45.4758 179.621C37.8599 179.621 31.9805 174.748 31.9805 164.51V129.16H127.946Z" fill="#303133"/>
<path d="M297.532 267.538C287.165 214.584 279.091 150.254 279.091 80.9113C279.091 63.2892 261.797 75.6247 239.707 76.5762C212.884 77.7834 154.663 20.5732 135.209 20.5732C131.736 20.5732 129.744 23.1549 129.744 29.2433C129.744 128.2 120.576 209.87 109.197 271.838C100.576 318.783 75.1982 368.151 75.1982 373.112V394.065C75.1982 409.722 142.349 417.907 142.349 501.26V651.912H270.162V501.251C270.162 424.41 337.295 409.96 337.295 394.065V373.112C337.33 361.94 307.915 320.545 297.532 267.538Z" fill="#1F2021"/>
<path d="M297.688 247.414C287.322 194.451 279.248 130.131 279.248 60.7878C279.248 43.1657 261.953 55.5011 239.864 56.4527C213.041 57.651 154.82 0.440918 135.365 0.440918C131.892 0.440918 129.9 3.02255 129.9 9.11098C129.9 108.077 120.733 189.737 109.353 251.705C96.3869 322.317 75.355 363.095 75.355 373.941C75.355 389.589 142.505 397.784 142.505 481.127V651.965H270.319V481.119C270.319 404.277 337.451 389.836 337.451 373.941C337.487 357.799 311.386 317.33 297.688 247.414Z" fill="#303133"/>
<path d="M178.145 161.893C196.094 161.893 210.645 148.232 210.645 131.38C210.645 114.529 196.094 100.868 178.145 100.868C160.196 100.868 145.645 114.529 145.645 131.38C145.645 148.232 160.196 161.893 178.145 161.893Z" fill="#A8A8A8"/>
<mask id="mask0_912_8024" style="mask-type:luminance" maskUnits="userSpaceOnUse" x="145" y="100" width="66" height="62">
<path d="M178.145 161.893C196.094 161.893 210.645 148.232 210.645 131.38C210.645 114.529 196.094 100.868 178.145 100.868C160.196 100.868 145.645 114.529 145.645 131.38C145.645 148.232 160.196 161.893 178.145 161.893Z" fill="white"/>
</mask>
<g mask="url(#mask0_912_8024)">
<path d="M178.225 99.6167C161.203 99.6167 147.373 112.569 147.373 128.543C147.373 144.518 161.168 157.461 178.225 157.461V99.6167Z" fill="#545454"/>
<path d="M178.224 130.464L203.787 144.65C206.481 140.929 208.199 136.592 208.782 132.035C209.366 127.479 208.797 122.849 207.128 118.569L178.224 130.403V130.464Z" fill="white"/>
</g>
<path d="M178.145 151.576C190.856 151.576 201.16 141.903 201.16 129.971C201.16 118.039 190.856 108.367 178.145 108.367C165.434 108.367 155.13 118.039 155.13 129.971C155.13 141.903 165.434 151.576 178.145 151.576Z" fill="#1F1F1F"/>
<path d="M178.145 143.98C186.114 143.98 192.575 137.913 192.575 130.429C192.575 122.945 186.114 116.877 178.145 116.877C170.176 116.877 163.715 122.945 163.715 130.429C163.715 137.913 170.176 143.98 178.145 143.98Z" fill="#383838"/>
<path d="M178.144 138.236C186.751 138.236 193.729 131.687 193.729 123.609C193.729 115.531 186.751 108.983 178.144 108.983C169.537 108.983 162.56 115.531 162.56 123.609C162.56 131.687 169.537 138.236 178.144 138.236Z" fill="white"/>
<path d="M178.145 134.447C185.632 134.447 191.702 128.747 191.702 121.715C191.702 114.683 185.632 108.983 178.145 108.983C170.658 108.983 164.588 114.683 164.588 121.715C164.588 128.747 170.658 134.447 178.145 134.447Z" fill="#AEADAB"/>
<path d="M164.121 118.103L178.145 121.715L164.121 125.328V118.103Z" fill="white"/>
<path d="M192.169 118.103L178.145 121.715L192.169 125.328V118.103Z" fill="white"/>
<path d="M146.853 336.986C164.802 336.986 179.353 323.325 179.353 306.474C179.353 289.622 164.802 275.961 146.853 275.961C128.904 275.961 114.353 289.622 114.353 306.474C114.353 323.325 128.904 336.986 146.853 336.986Z" fill="#A8A8A8"/>
<mask id="mask1_912_8024" style="mask-type:luminance" maskUnits="userSpaceOnUse" x="114" y="275" width="66" height="62">
<path d="M146.853 336.986C164.802 336.986 179.353 323.325 179.353 306.474C179.353 289.622 164.802 275.961 146.853 275.961C128.904 275.961 114.353 289.622 114.353 306.474C114.353 323.325 128.904 336.986 146.853 336.986Z" fill="white"/>
</mask>
<g mask="url(#mask1_912_8024)">
<path d="M146.932 274.709C129.911 274.709 116.081 287.662 116.081 303.636C116.081 319.611 129.876 332.554 146.932 332.554V274.709Z" fill="#545454"/>
<path d="M146.932 305.557L172.495 319.742C175.189 316.021 176.907 311.684 177.491 307.128C178.074 302.571 177.505 297.941 175.836 293.662L146.906 305.486L146.932 305.557Z" fill="white"/>
</g>
<path d="M146.853 326.668C159.564 326.668 169.868 316.996 169.868 305.064C169.868 293.132 159.564 283.459 146.853 283.459C134.142 283.459 123.838 293.132 123.838 305.064C123.838 316.996 134.142 326.668 146.853 326.668Z" fill="#1F1F1F"/>
<path d="M146.853 319.065C154.822 319.065 161.283 312.998 161.283 305.513C161.283 298.029 154.822 291.962 146.853 291.962C138.884 291.962 132.423 298.029 132.423 305.513C132.423 312.998 138.884 319.065 146.853 319.065Z" fill="#383838"/>
<path d="M146.853 316.016C155.46 316.016 162.437 309.467 162.437 301.39C162.437 293.312 155.46 286.763 146.853 286.763C138.246 286.763 131.269 293.312 131.269 301.39C131.269 309.467 138.246 316.016 146.853 316.016Z" fill="white"/>
<path d="M146.853 312.219C154.34 312.219 160.41 306.518 160.41 299.487C160.41 292.455 154.34 286.755 146.853 286.755C139.366 286.755 133.296 292.455 133.296 299.487C133.296 306.518 139.366 312.219 146.853 312.219Z" fill="#AEADAB"/>
<path d="M132.829 295.883L146.853 299.487L132.829 303.1V295.883Z" fill="white"/>
<path d="M160.877 295.883L146.853 299.487L160.877 303.1V295.883Z" fill="white"/>
<path d="M236.851 223.492C254.8 223.492 269.351 209.831 269.351 192.979C269.351 176.127 254.8 162.466 236.851 162.466C218.902 162.466 204.351 176.127 204.351 192.979C204.351 209.831 218.902 223.492 236.851 223.492Z" fill="#A8A8A8"/>
<mask id="mask2_912_8024" style="mask-type:luminance" maskUnits="userSpaceOnUse" x="204" y="162" width="66" height="62">
<path d="M236.851 223.492C254.8 223.492 269.351 209.831 269.351 192.979C269.351 176.127 254.8 162.466 236.851 162.466C218.902 162.466 204.351 176.127 204.351 192.979C204.351 209.831 218.902 223.492 236.851 223.492Z" fill="white"/>
</mask>
<g mask="url(#mask2_912_8024)">
<path d="M236.931 161.241C219.909 161.241 206.079 174.193 206.079 190.167C206.079 206.142 219.874 219.085 236.931 219.085V161.241Z" fill="#545454"/>
<path d="M236.93 192.079L262.493 206.265C265.187 202.544 266.905 198.207 267.489 193.651C268.072 189.094 267.503 184.464 265.834 180.185L236.93 191.991V192.079Z" fill="white"/>
</g>
<path d="M236.851 213.173C249.562 213.173 259.866 203.5 259.866 191.569C259.866 179.637 249.562 169.964 236.851 169.964C224.14 169.964 213.835 179.637 213.835 191.569C213.835 203.5 224.14 213.173 236.851 213.173Z" fill="#1F1F1F"/>
<path d="M236.851 205.578C244.82 205.578 251.281 199.511 251.281 192.027C251.281 184.543 244.82 178.476 236.851 178.476C228.882 178.476 222.421 184.543 222.421 192.027C222.421 199.511 228.882 205.578 236.851 205.578Z" fill="#383838"/>
<path d="M236.851 199.842C245.458 199.842 252.435 193.294 252.435 185.216C252.435 177.138 245.458 170.589 236.851 170.589C228.244 170.589 221.266 177.138 221.266 185.216C221.266 193.294 228.244 199.842 236.851 199.842Z" fill="white"/>
<path d="M236.85 196.044C244.338 196.044 250.407 190.344 250.407 183.313C250.407 176.281 244.338 170.581 236.85 170.581C229.363 170.581 223.293 176.281 223.293 183.313C223.293 190.344 229.363 196.044 236.85 196.044Z" fill="#AEADAB"/>
<path d="M222.827 179.7L236.851 183.313L222.827 186.926V179.7Z" fill="white"/>
<path d="M250.875 179.7L236.851 183.313L250.875 186.926V179.7Z" fill="white"/>
<path d="M265.799 372.777C283.748 372.777 298.298 359.116 298.298 342.265C298.298 325.413 283.748 311.752 265.799 311.752C247.849 311.752 233.299 325.413 233.299 342.265C233.299 359.116 247.849 372.777 265.799 372.777Z" fill="#A8A8A8"/>
<mask id="mask3_912_8024" style="mask-type:luminance" maskUnits="userSpaceOnUse" x="233" y="311" width="66" height="62">
<path d="M265.799 372.777C283.748 372.777 298.298 359.116 298.298 342.265C298.298 325.413 283.748 311.752 265.799 311.752C247.849 311.752 233.299 325.413 233.299 342.265C233.299 359.116 247.849 372.777 265.799 372.777Z" fill="white"/>
</mask>
<g mask="url(#mask3_912_8024)">
<path d="M265.869 310.51C248.857 310.51 235.062 323.453 235.062 339.428C235.062 355.402 248.857 368.354 265.869 368.354V310.51Z" fill="#545454"/>
<path d="M265.869 341.357L291.432 355.534C294.82 350.846 296.646 345.211 296.65 339.428C296.654 336.018 296.017 332.637 294.773 329.462L265.843 341.287L265.869 341.357Z" fill="white"/>
</g>
<path d="M265.799 362.459C278.51 362.459 288.814 352.787 288.814 340.855C288.814 328.923 278.51 319.25 265.799 319.25C253.088 319.25 242.784 328.923 242.784 340.855C242.784 352.787 253.088 362.459 265.799 362.459Z" fill="#1F1F1F"/>
<path d="M265.798 354.864C273.768 354.864 280.228 348.797 280.228 341.313C280.228 333.829 273.768 327.762 265.798 327.762C257.829 327.762 251.369 333.829 251.369 341.313C251.369 348.797 257.829 354.864 265.798 354.864Z" fill="#383838"/>
<path d="M265.798 351.806C274.405 351.806 281.383 345.258 281.383 337.18C281.383 329.102 274.405 322.554 265.798 322.554C257.191 322.554 250.214 329.102 250.214 337.18C250.214 345.258 257.191 351.806 265.798 351.806Z" fill="white"/>
<path d="M265.799 348.018C273.286 348.018 279.356 342.317 279.356 335.286C279.356 328.254 273.286 322.554 265.799 322.554C258.311 322.554 252.242 328.254 252.242 335.286C252.242 342.317 258.311 348.018 265.799 348.018Z" fill="#AEADAB"/>
<path d="M251.774 331.673L265.799 335.286L251.774 338.899V331.673Z" fill="white"/>
<path d="M279.814 331.673L265.798 335.286L279.814 338.899V331.673Z" fill="white"/>
<path d="M279.091 61.7472C279.091 44.1251 261.796 56.4606 239.707 57.4122C212.884 58.6193 154.663 1.40918 135.217 1.40918C154.663 1.40918 216.092 76.7084 240.835 78.8494C261.426 80.6381 279.091 44.1604 279.091 61.7472Z" fill="#46464A"/>
<path d="M142.058 463.548H270.47" stroke="#46464A" stroke-width="3" stroke-miterlimit="10" stroke-linecap="round"/>
<path d="M176.294 514.969C176.294 503.18 184.069 495.788 207.066 495.788C230.064 495.788 237.838 503.18 237.838 514.969C237.838 534.9 215.59 563.712 207.066 563.712C198.542 563.712 176.294 534.9 176.294 514.969Z" fill="#121212"/>
<path d="M202.738 529.323C205.762 532.354 206.996 545.579 207.049 550.637C207.049 545.746 208.327 532.363 211.359 529.332C214.391 526.301 228.53 525.023 228.53 525.023C228.53 525.023 214.427 523.745 211.359 520.723C208.292 517.701 207.102 504.467 207.04 499.409C207.04 504.308 205.771 517.692 202.747 520.714C199.724 523.736 185.559 525.023 185.559 525.023C185.559 525.023 199.689 526.3 202.738 529.323Z" fill="#303133"/>
<path d="M271.616 463.548C281.312 402.752 337.33 389.43 337.33 374.901C337.33 358.759 311.23 318.298 297.532 248.374C287.165 195.42 279.091 131.09 279.091 61.7472C279.091 44.1251 261.797 56.4606 239.707 57.4122C212.884 58.6193 154.663 1.40918 135.209 1.40918C131.736 1.40918 129.744 3.99082 129.744 10.0792C129.744 109.036 120.576 190.706 109.197 252.674C96.2301 323.277 75.1982 364.063 75.1982 374.901C75.1982 389.307 132.071 397.395 141.132 463.548" stroke="white" stroke-width="2" stroke-miterlimit="10"/>
<path d="M188.837 41.878C194.373 46.6712 201.874 53.3324 207.418 57.9229C216.841 65.4563 226.299 74.0119 237.908 77.8623C245.965 80.2148 253.933 75.6948 260.13 70.8135C263.356 68.3111 266.345 65.5268 269.359 62.7425C266.477 65.6502 263.55 68.5226 260.403 71.1571C254.233 76.2587 245.983 81.0343 237.697 78.6112C229.764 76.2146 223.012 71.1483 216.489 66.2053C206.792 58.663 197.749 50.2925 188.837 41.8516V41.878Z" fill="#6D6D73"/>
<path d="M191.579 132.659V651.524" stroke="#A8A8A8" stroke-width="2" stroke-miterlimit="10" stroke-linecap="round"/>
<path d="M160.19 312.918V651.524" stroke="#A8A8A8" stroke-width="2" stroke-miterlimit="10" stroke-linecap="round"/>
<path d="M254.349 350.181V651.523" stroke="#A8A8A8" stroke-width="2" stroke-miterlimit="10" stroke-linecap="round"/>
<path d="M222.959 193.976V651.523" stroke="#A8A8A8" stroke-width="2" stroke-miterlimit="10" stroke-linecap="round"/>
</g>
<defs>
<clipPath id="clip0_912_8024">
<rect width="412" height="652.849" fill="white" transform="translate(0 -0.000976562)"/>
</clipPath>
</defs>
</svg>
